<?xml version="1.0" encoding="utf-8"?>
<!-- Generator: Adobe Illustrator 24.0.1, SVG Export Plug-In . SVG Version: 6.00 Build 0)  -->
<svg version="1.1" id="Layer_1" xmlns="http://www.w3.org/2000/svg" xmlns:xlink="http://www.w3.org/1999/xlink" x="0px" y="0px"
	 viewBox="0 0 500 500" style="enable-background:new 0 0 500 500;" xml:space="preserve">
<style type="text/css">
	.st0{fill:#F2F2F3;}
	.st1{fill:#48515A;}
	.st2{fill:#B2E2EF;}
	.st3{fill:#F69170;}
	.st4{fill:#FFDB7B;}
	.st5{fill:#FFFFFF;}
	.st6{fill:none;}
	.st7{fill:#E25E34;}
	.st8{fill:#808285;}
	.st9{fill:#96C6D1;}
	.st10{fill:#BE1E2D;}
	.st11{fill:#D1D3D4;}
	.st12{fill:#A7A9AC;}
	.st13{fill:#EF4136;}
	.st14{fill:#8B5E3C;}
	.st15{fill:#B1E0E7;}
	.st16{fill:#58595B;}
</style>
<g>
	<path class="st0" d="M494,250.6c0,135.6-109.9,245.5-245.5,245.5C112.9,496.1,3,386.2,3,250.6C3,115.1,112.9,5.2,248.5,5.2
		C384.1,5.2,494,115.1,494,250.6z"/>
	<rect x="166.4" y="186.1" class="st14" width="11.2" height="82.6"/>
	<rect x="319.4" y="186.1" class="st14" width="11.2" height="82.6"/>
	<g>
		<path class="st3" d="M354.1,350.7l-10.8,8.3l-10.8-8.3c-34.1,0-28.5,39-28.5,39h78.5C382.6,389.7,388.2,350.7,354.1,350.7z"/>
		<path class="st3" d="M360.8,329.8c0,9.9-8,18-18,18c-9.9,0-18-8-18-18c0-9.9,8-18,18-18C352.8,311.8,360.8,319.8,360.8,329.8z"/>
	</g>
	<path class="st14" d="M382.4,389.7H304c0,0,0,0,0-0.1c-3.4,1.4-6,3.1-8.2,5c-2.1-1.8-4.7-3.5-8-4.9h-78.4c0,0,0,0,0-0.1
		c-3.4,1.4-6.1,3.2-8.2,5c-2.1-1.8-4.7-3.6-8.1-5h-78.4c0,0,0,0,0-0.1c-20.2,8.4-15.5,27.2-15.5,27.2h298.6
		C397.8,416.9,402.5,398.1,382.4,389.7z"/>
	<g>
		<path class="st3" d="M164.8,350.7L154,359l-10.8-8.3c-33.6,0-28.7,37.8-28.5,39c0,0,0,0.1,0,0.1h78.4h0.1
			C193.2,389.7,198.9,350.7,164.8,350.7z"/>
		<path class="st3" d="M153.5,347.7c9.9,0,18-8,18-18c0-9.9-8.1-18-18-18c-9.9,0-18,8-18,18C135.5,339.7,143.6,347.7,153.5,347.7z"
			/>
	</g>
	<g>
		<path class="st4" d="M259.4,350.7l-10.8,8.3l-10.8-8.3c-34.1,0-28.5,39-28.5,39h78.5C287.9,389.7,293.6,350.7,259.4,350.7z"/>
		<path class="st4" d="M266.2,329.8c0,9.9-8.1,18-18,18c-10,0-18-8-18-18c0-9.9,8-18,18-18C258.1,311.8,266.2,319.8,266.2,329.8z"/>
	</g>
	<rect x="148.1" y="79.6" class="st15" width="200.9" height="107.7"/>
	<path class="st14" d="M348.9,69.2H148.1h-10.4v10.4v107.7v10.4h10.4h200.9h10.4v-10.4V79.6V69.2H348.9z M348.9,187.3H148.1V79.6
		h200.9V187.3z"/>
	<g>
		<g>
			<path class="st7" d="M263,121.6c0,8.3-6.7,14.9-15,14.9c-8.3,0-15-6.7-15-14.9c0-8.3,6.7-15,15-15
				C256.3,106.6,263,113.3,263,121.6z"/>
		</g>
		<g>
			<path class="st7" d="M280.4,139.3c-0.2,0-0.3,0-0.5,0v0h-1.4h-8.5h-0.1h-18.6h-0.1h-2.8h-2.8h-0.1H227h-0.1h-8.5h-2.2v0
				c-3.5,0.2-6.3,3-6.3,6.6v1.9v56.6v1.9c0,3.7,3,6.6,6.6,6.6c0.3,0,0.6-0.1,0.9-0.1l0,0c3.2-0.5,5.7-3.2,5.7-6.5v-49.5
				c0-1,0.8-1.9,1.9-1.9c1,0,1.9,0.8,1.9,1.9v56.1v27.5V276c0,0.4,0.1,0.8,0.1,1.2c0.6,4.1,4.1,7.3,8.4,7.3h1.7
				c4.7,0,8.5-3.8,8.5-8.5v-35.6v-27.5h0.1h2.8h2.8h0.1v27.5V276c0,4.7,3.8,8.5,8.5,8.5h1.7c4.2,0,7.8-3.2,8.4-7.3
				c0.1-0.4,0.1-0.8,0.1-1.2v-35.6v-27.5v-56.1c0-1,0.8-1.9,1.9-1.9c1,0,1.9,0.8,1.9,1.9v49.5c0,3.3,2.5,6.1,5.7,6.5l0,0
				c0.3,0,0.6,0.1,0.9,0.1c3.7,0,6.6-3,6.6-6.6v-1.9v-56.6v-1.9C287,142.3,284.1,139.3,280.4,139.3z"/>
		</g>
	</g>
	<path class="st14" d="M115.6,431.3h266.1c2.3-1.7,4.6-3.5,6.8-5.4H108.8C111,427.8,113.3,429.6,115.6,431.3z"/>
</g>
</svg>
