<?xml version="1.0" encoding="utf-8"?>
<!-- Generator: Adobe Illustrator 24.0.1, SVG Export Plug-In . SVG Version: 6.00 Build 0)  -->
<svg version="1.1" id="Layer_1" xmlns="http://www.w3.org/2000/svg" xmlns:xlink="http://www.w3.org/1999/xlink" x="0px" y="0px"
	 viewBox="0 0 500 500" style="enable-background:new 0 0 500 500;" xml:space="preserve">
<style type="text/css">
	.st0{fill:#F2F2F3;}
	.st1{fill:#48515A;}
	.st2{fill:#B2E2EF;}
	.st3{fill:#F69170;}
	.st4{fill:#FFDB7B;}
	.st5{fill:#FFFFFF;}
	.st6{fill:none;}
	.st7{fill:#E25E34;}
	.st8{fill:#808285;}
	.st9{fill:#96C6D1;}
	.st10{fill:#BE1E2D;}
	.st11{fill:#D1D3D4;}
	.st12{fill:#A7A9AC;}
	.st13{fill:#EF4136;}
	.st14{fill:#8B5E3C;}
	.st15{fill:#B1E0E7;}
	.st16{fill:#58595B;}
</style>
<g>
	<path class="st0" d="M493,250.1c0,135-109.5,244.5-244.5,244.5C113.5,494.6,4,385.2,4,250.1C4,115.1,113.5,5.6,248.5,5.6
		C383.6,5.6,493,115.1,493,250.1z"/>
	<path class="st11" d="M314.3,166.5L314.3,166.5C314.3,166.5,314.2,166.5,314.3,166.5c-0.1-0.1-0.2-0.2-0.3-0.3
		c-5.3-5.3-77.4-77.9-78.2-78.6c-0.7-0.7-1.5-0.8-6.5-2.5c-4.4-1.5-11.1-7.5-12.6-9l-51.3,51.3c1.8,4.1,8,17.3,16.7,26.1
		c10.6,10.6,65.7,68.2,65.7,68.2l0,0c2.1,2.3,5.2,3.8,8.6,3.8c6.4,0,11.6-5.2,11.6-11.7c0-1.6-0.3-3.1-0.9-4.5
		c1.9,3.4,5.5,5.7,9.6,5.7c6,0,10.9-4.9,10.9-10.9c0-2.1-0.6-4.1-1.7-5.8c1.8,1.4,4.1,2.3,6.6,2.3c5.9,0,10.6-4.8,10.6-10.7
		c0-2.2-0.7-4.2-1.8-5.9c1.4,0.7,3.1,1.1,4.7,1.1c6.1,0,11.1-4.9,11.1-11C317.3,171.2,316.2,168.5,314.3,166.5z"/>
	<g>
		<g>
			<path class="st1" d="M205.4,249.5c0,10.2-8.2,18.4-18.4,18.4c-10.2,0-18.4-8.2-18.4-18.4c0-10.2,8.2-18.4,18.4-18.4
				C197.2,231.1,205.4,239.3,205.4,249.5z"/>
		</g>
		<g>
			<path class="st1" d="M226.9,271.3c-0.2,0-0.4,0-0.6,0.1v-0.1h-1.8h-10.4H214h-22.9H191h-3.4h-3.4H184h-22.8H161h-10.4h-2.7v0
				c-4.3,0.2-7.7,3.7-7.7,8.1v2.3v69.8v2.3c0,4.5,3.7,8.1,8.1,8.1c0.4,0,0.8-0.1,1.1-0.1h0c3.9-0.6,7-3.9,7-8v-61
				c0-1.3,1-2.3,2.3-2.3c1.3,0,2.3,1,2.3,2.3V362v33.9v43.9c0,0.5,0.1,1,0.2,1.5c0.7,5.1,5,9,10.3,9h2.1c5.8,0,10.4-4.7,10.4-10.5
				v-43.9V362h0.2h3.4h3.4h0.2v33.9v43.9c0,5.8,4.7,10.5,10.5,10.5h2.1c5.3,0,9.6-3.9,10.3-9c0.1-0.5,0.1-1,0.1-1.5v-43.9V362v-69.2
				c0-1.3,1-2.3,2.3-2.3c1.3,0,2.3,1,2.3,2.3v61c0,4.1,3,7.5,7,8l0,0c0.4,0,0.8,0.1,1.2,0.1c4.5,0,8.1-3.7,8.1-8.1v-2.3v-69.8v-2.3
				C235.1,274.9,231.4,271.3,226.9,271.3z"/>
		</g>
	</g>
	<g>
		<g>
			<path class="st12" d="M327.3,249.5c0,10.2-8.3,18.4-18.5,18.4c-10.2,0-18.4-8.2-18.4-18.4c0-10.2,8.3-18.4,18.4-18.4
				C319,231.1,327.3,239.3,327.3,249.5z"/>
		</g>
		<g>
			<path class="st12" d="M348.8,271.3c-0.2,0-0.4,0-0.6,0.1v-0.1h-1.8H336h-0.1H313h-0.2h-3.4H306h-0.1H283h-0.1h-10.4h-2.7v0
				c-4.3,0.2-7.7,3.7-7.7,8.1v2.3v69.8v2.3c0,4.5,3.7,8.1,8.1,8.1c0.4,0,0.8-0.1,1.2-0.1l0,0c3.9-0.6,7-3.9,7-8v-61
				c0-1.3,1-2.3,2.3-2.3c1.3,0,2.3,1,2.3,2.3V362v33.9v43.9c0,0.5,0.1,1,0.1,1.5c0.7,5.1,5.1,9,10.3,9h2.1c5.8,0,10.5-4.7,10.5-10.5
				v-43.9V362h0.1h3.4h3.4h0.2v33.9v43.9c0,5.8,4.7,10.5,10.4,10.5h2.1c5.3,0,9.6-3.9,10.3-9c0.1-0.5,0.1-1,0.1-1.5v-43.9V362v-69.2
				c0-1.3,1-2.3,2.3-2.3c1.3,0,2.3,1,2.3,2.3v61c0,4.1,3,7.5,7,8h0c0.4,0,0.8,0.1,1.2,0.1c4.5,0,8.1-3.7,8.1-8.1v-2.3v-69.8v-2.3
				C356.9,274.9,353.3,271.3,348.8,271.3z"/>
		</g>
	</g>
	<polygon class="st1" points="202.7,48.7 137.1,114.3 157.8,135 165.4,127.4 216.7,76.1 223.4,69.4 	"/>
	<g>
		<g>
			<path class="st1" d="M186.3,175.3c-2.5,0-5-1-6.9-3c-3.4-3.8-3.2-9.7,0.6-13.1l10.1-9.2c3.8-3.4,9.7-3.2,13.1,0.6
				c3.4,3.8,3.2,9.7-0.6,13.1l-10.1,9.1C190.7,174.5,188.5,175.3,186.3,175.3z"/>
		</g>
		<g>
			<path class="st1" d="M230.8,224c-2.5,0-5.1-1-6.9-3c-3.4-3.8-3.2-9.7,0.6-13.1l10.1-9.1c3.8-3.4,9.7-3.2,13.1,0.6
				c3.5,3.8,3.2,9.7-0.6,13.1l-10.1,9.2C235.2,223.2,233,224,230.8,224z"/>
		</g>
		<g>
			<path class="st1" d="M199.5,193.3c-2.5,0-5-1-6.9-3c-3.5-3.8-3.2-9.7,0.5-13.1l12.1-11.1c3.8-3.5,9.7-3.2,13.1,0.5
				c3.5,3.8,3.2,9.7-0.6,13.1l-12.1,11.2C204,192.5,201.7,193.3,199.5,193.3z"/>
		</g>
		<g>
			<path class="st1" d="M214.9,208.9c-2.5,0-5-1-6.9-3c-3.5-3.8-3.2-9.7,0.6-13.1l12.1-11.1c3.8-3.5,9.7-3.2,13.1,0.5
				c3.5,3.8,3.2,9.7-0.5,13.1l-12.1,11.1C219.4,208.1,217.2,208.9,214.9,208.9z"/>
		</g>
		<path class="st1" d="M262.8,84c-14.6-1.6-22.3,0.1-25.9,3.5c-3.6,3.4-29,27.4-29,27.4s-6.9,7.9,2,15.6c8.9,7.7,15.2,3.4,16.5,2.3
			c1.3-1.1,20.1-19.9,20.1-19.9s7.3,7.6,14.4,8.8c7,1.1,9.1,0.2,13.8,4.4c4.7,4.2,33.2,33.3,33.2,33.3l24.9-29.4l-51.7-51.7
			C279,80.8,273.6,85.2,262.8,84z"/>
	</g>
	<polygon class="st8" points="294.1,50 273.5,70.7 281.1,78.3 332.8,130 339.1,136.3 359.7,115.6 	"/>
	<g>
		<polygon class="st13" points="102.9,152.6 90.8,140.5 107.2,136.1 123.7,131.7 119.3,148.1 114.9,164.6 		"/>
		<g>
			<g>
				<path class="st13" d="M386.2,303.9c-2.4,0-4.7-0.9-6.4-2.8c-3.2-3.5-3-9,0.5-12.2c0,0,0.3-0.3,0.4-0.4c3.5-3.2,9-2.9,12.2,0.6
					c3.2,3.5,2.9,9-0.6,12.2l-0.2,0.2C390.3,303.2,388.2,303.9,386.2,303.9z M110.8,303.8c-2.1,0-4.2-0.8-5.8-2.3l-0.2-0.2
					c-3.6-3.2-3.8-8.6-0.6-12.2c3.2-3.5,8.6-3.8,12.2-0.6c0,0,0.4,0.3,0.4,0.4c3.5,3.2,3.7,8.7,0.5,12.2
					C115.4,302.9,113.1,303.8,110.8,303.8z M412.3,270.6c-1.4,0-2.8-0.3-4-1c-4.2-2.2-5.8-7.5-3.5-11.7c2.2-4.2,7.5-5.9,11.7-3.8
					c4.2,2.2,5.9,7.2,3.8,11.4c0,0-0.2,0.5-0.3,0.5C418.3,269,415.4,270.6,412.3,270.6z M84.7,270.5c-3.1,0-6.2-1.7-7.7-4.7
					l-0.2-0.3c-2.2-4.2-0.5-9.4,3.7-11.6c4.2-2.2,9.4-0.5,11.6,3.7c0,0,0.2,0.4,0.2,0.4c2.2,4.2,0.5,9.4-3.8,11.6
					C87.3,270.2,86,270.5,84.7,270.5z M422.5,229.8c-4.8,0-8.6-3.8-8.6-8.6c0-0.1,0-0.2,0-0.3c0-0.1,0-0.2,0-0.3
					c0-4.8,3.9-8.9,8.6-8.9c4.8,0,8.6,3.7,8.6,8.4v0.4c0,0,0,0,0,0.1c0,0,0,0,0,0v0.4C431.2,225.9,427.3,229.8,422.5,229.8z
					 M74.5,229.4c-4.8,0-8.6-3.7-8.6-8.4v-0.3c0-4.8,3.9-8.7,8.6-8.7c4.8,0,8.6,3.8,8.6,8.6C83.1,225.4,79.3,229.4,74.5,229.4z
					 M84.4,188.5c-1.3,0-2.6-0.3-3.8-0.9c-4.2-2.2-6-7.1-3.9-11.3c0,0,0.2-0.5,0.3-0.5c2.2-4.2,7.4-5.8,11.7-3.6
					c4.2,2.2,5.8,7.4,3.6,11.7C90.7,186.7,87.6,188.5,84.4,188.5z M412.4,188.3c-3.1,0-6.1-1.7-7.6-4.6c0,0-0.2-0.5-0.2-0.5
					c-2.2-4.2-0.5-9.4,3.8-11.6c4.2-2.2,9.4-0.5,11.6,3.8l0.1,0.2c2.2,4.2,0.6,9.4-3.5,11.7C415.2,188,413.8,188.3,412.4,188.3z"/>
			</g>
			<polygon class="st13" points="393,152.6 405.1,140.5 388.7,136.1 372.2,131.7 376.6,148.1 381,164.6 			"/>
		</g>
	</g>
</g>
</svg>
