<?xml version="1.0" encoding="utf-8"?>
<!-- Generator: Adobe Illustrator 24.0.1, SVG Export Plug-In . SVG Version: 6.00 Build 0)  -->
<svg version="1.1" id="Layer_1" xmlns="http://www.w3.org/2000/svg" xmlns:xlink="http://www.w3.org/1999/xlink" x="0px" y="0px"
	 viewBox="0 0 500 500" style="enable-background:new 0 0 500 500;" xml:space="preserve">
<style type="text/css">
	.st0{fill:#F2F2F3;}
	.st1{fill:#48515A;}
	.st2{fill:#B2E2EF;}
	.st3{fill:#F69170;}
	.st4{fill:#FFDB7B;}
	.st5{fill:#FFFFFF;}
	.st6{fill:none;}
	.st7{fill:#E25E34;}
	.st8{fill:#808285;}
	.st9{fill:#96C6D1;}
	.st10{fill:#BE1E2D;}
	.st11{fill:#D1D3D4;}
	.st12{fill:#A7A9AC;}
	.st13{fill:#EF4136;}
	.st14{fill:#8B5E3C;}
	.st15{fill:#B1E0E7;}
	.st16{fill:#58595B;}
</style>
<g>
	<path class="st0" d="M501.4,251.2c0,138.5-112.2,250.7-250.7,250.7C112.2,501.9,0,389.7,0,251.2C0,112.8,112.2,0.6,250.7,0.6
		C389.1,0.6,501.4,112.8,501.4,251.2z"/>
	<g>
		<path class="st3" d="M106.8,244.9L93.6,255l-13.1-10.1c-41.5,0-34.6,47.4-34.6,47.4h95.4C141.3,292.3,148.2,244.9,106.8,244.9z"/>
		<path class="st3" d="M115,219.5c0,12.1-9.8,21.9-21.9,21.9c-12.1,0-21.9-9.8-21.9-21.9c0-12.1,9.8-21.9,21.9-21.9
			C105.2,197.6,115,207.4,115,219.5z"/>
	</g>
	<g>
		<path class="st4" d="M263.8,96.1l-13.1,10.1l-13.1-10.1c-41.5,0-34.5,47.4-34.5,47.4h95.3C298.3,143.5,305.3,96.1,263.8,96.1z"/>
		<path class="st4" d="M272,70.7c0,12.1-9.8,21.9-21.8,21.9c-12.1,0-21.9-9.8-21.9-21.9c0-12.1,9.8-21.8,21.9-21.8
			C262.2,48.8,272,58.6,272,70.7z"/>
	</g>
	<g>
		<path class="st7" d="M263.8,406.3l-13.1,10.1l-13.1-10.1c-41.5,0-34.6,47.4-34.6,47.4h95.3C298.3,453.7,305.3,406.3,263.8,406.3z"
			/>
		<path class="st7" d="M272,380.8c0,12.1-9.8,21.9-21.8,21.9c-12.1,0-21.9-9.8-21.9-21.9c0-12.1,9.8-21.9,21.9-21.9
			C262.2,359,272,368.8,272,380.8z"/>
	</g>
	<g>
		<path class="st1" d="M112.6,320.8c0-0.1-0.2-0.5-0.3-0.5c-2.5-5.1-0.4-11.2,4.7-13.7c5.1-2.5,11.2-0.6,13.7,4.7
			c2.5,5,0.5,11.3-4.6,13.9C121.1,327.7,115.1,325.8,112.6,320.8z M134.5,353.1c-2-4-1.2-9.1,2.2-12.2c4.2-3.8,10.7-3.5,14.5,0.7
			c0,0,0.3,0.4,0.3,0.4c3.8,4.2,3.4,10.7-0.8,14.5c-4.2,3.8-10.7,3.4-14.5-0.8l-0.2-0.3C135.4,354.6,134.9,353.8,134.5,353.1z
			 M164.6,378.5c-1.6-3.1-1.5-7,0.5-10.2c3-4.8,9.4-6.2,14.1-3.1c4.8,3,6.3,9.4,3.3,14.2c-3,4.8-9.1,6.3-13.9,3.4
			c0,0-0.4-0.3-0.5-0.3C166.6,381.5,165.4,380.1,164.6,378.5z M200.5,394.8c-1.1-2.2-1.5-4.9-0.7-7.5c1.6-5.4,7.3-8.6,12.7-7
			c0,0,0.5,0.1,0.5,0.1c5.4,1.6,8.5,7.4,6.8,12.8c-1.6,5.4-7.4,8.5-12.8,6.8l-0.3-0.1C203.9,399.2,201.7,397.3,200.5,394.8z"/>
	</g>
	<g>
		<path class="st1" d="M122.9,193c-1.6,0-3.2-0.4-4.7-1.2c-5-2.7-7-8.7-4.3-13.7l0.2-0.4c2.7-5,8.9-6.9,13.9-4.2
			c5,2.7,6.9,8.9,4.2,13.9C130.3,190.9,126.6,193,122.9,193z M146.1,161.1c-2.5,0-5.1-0.9-7-2.8c-4.1-3.9-4.4-10.3-0.4-14.3l0.3-0.3
			c3.9-4.1,10.4-4.2,14.5-0.3c4.1,3.9,4.2,10.4,0.3,14.5C151.7,160,148.9,161.1,146.1,161.1z M176.9,136.8c-3.5,0-6.9-1.8-8.8-5.1
			c-2.9-4.9-1.2-11.1,3.6-14l0.3-0.2c4.9-2.9,11.2-1.3,14,3.6c2.9,4.9,1.3,11.2-3.6,14c0,0-0.4,0.2-0.4,0.3
			C180.5,136.4,178.7,136.8,176.9,136.8z M176.9,136.8c-3.5,0-6.9-1.8-8.8-5.1c-2.9-4.9-1.2-11.1,3.6-14l0.3-0.2
			c4.9-2.9,11.2-1.3,14,3.6c2.9,4.9,1.3,11.2-3.6,14c0,0-0.4,0.2-0.4,0.3C180.5,136.4,178.7,136.8,176.9,136.8z"/>
	</g>
	<path class="st1" d="M331.5,119c-1.3-0.8-2.7-1.6-4.1-2.4c-2.7-0.8-5.6-0.6-8.2,1l-0.3,0.2c-4.9,2.9-6.5,9.2-3.6,14
		c0.8,1.4,2,2.5,3.3,3.3c0.4,0.2,0.7,0.4,1.1,0.6c39.3,23.5,65.6,66.5,65.6,115.5c0,60.7-40.5,112.1-95.8,128.8
		c-0.9,0.3-1.8,0.5-2.7,0.8c-2.7,1.2-4.9,3.4-5.8,6.5c-0.8,2.6-0.4,5.3,0.7,7.5c1.2,2.4,3.4,4.4,6.3,5.2l0.3,0.1
		c1.6,0.5,3.2,0.5,4.7,0.3c0.7-0.2,1.5-0.4,2.2-0.6c63.9-19.2,110.6-78.5,110.6-148.5C405.8,195.3,376,146.3,331.5,119z"/>
</g>
<g>
	<path class="st16" d="M221.6,323.3c0,0,0.4-0.4,0.9-0.2c0.5,0.2,0.4,0.4,0.4,1c0,0.6,0.1,0.5,0.2,1.4c0,0.9,0.5,0.6-0.4,1.2
		c-0.8,0.6-2.2,0.8-1.5,0.1c0.7-0.6,1-1,0.8-1.4C221.8,325,220.9,323.6,221.6,323.3z"/>
	<path class="st16" d="M230.8,328.2c0,0,0.9-0.2,0.7,0.4c-0.2,0.6-0.8,0.3-0.5,0.9c0.3,0.6,1.1,1.2,0.3,1.3
		C230.5,330.9,229.8,329.4,230.8,328.2z"/>
	<path class="st16" d="M239.9,341.2c0,0-0.7-0.2,0,0.5c0.6,0.6,1.2,1,0.8,1.5c-0.4,0.4-1,1.1-1.3,0.6c-0.4-0.5-0.5-1.4-0.5-1.4
		S239.1,340.2,239.9,341.2z"/>
	<path class="st16" d="M243.2,301.7c0,0-0.4,0.2-0.8,0.5c-0.4,0.3-0.9-0.2-0.4,1.1c0.5,1.2,0,0.2,0.6,1.5c0.6,1.4,1.2,2,1.2,0.9
		c0-1.1-0.7-1-0.1-1.8c0.6-0.8,0.6-1.1,0.5-1.5C244,302.1,243.4,301.3,243.2,301.7z"/>
	<path class="st16" d="M241.6,299.1c0,0-1,0.5-0.2,1.2c0.8,0.6,1.6,0.4,1.7-0.1c0.1-0.4,0.8-1,0-1.1
		C242.2,298.9,242,298.5,241.6,299.1z"/>
	<path class="st16" d="M268.5,267.6c0,0,0.4-0.5,0.8,0.2c0.4,0.7,0,1.2,1.2,1.4c1.1,0.2,1.8,1,0.8,1.2c-1,0.2-1.1,0.3-1.9-0.3
		c-0.8-0.6-1-0.5-1.2-1C267.9,268.4,267.7,267.6,268.5,267.6z"/>
	<path class="st16" d="M310.5,228.9c0.3-1.9-0.6-2.7-1.6-4.2c-1-1.5,1-4.5,1.8-6.3c0.7-1.8-1.3-2.1-2.7-2.4c-1.3-0.3-0.1-1.5-0.3-3
		c-0.1-1.5-2.2-0.9-3.7-0.4c-1.5,0.4-1.2-1-2.7-2.1c-1.5-1-3.9-1.3-2.5-3.9c1.3-2.5,0.7-4.9-0.7-6.6c-1.5-1.6-0.6-5.4-0.7-7.6
		c-0.1-2.2-5.7-4.2-7.6-4.8c-1.9-0.6-2.4-2.1-3.3-4.5c-0.9-2.4-7.5-1.3-9.1-1.2c-1.6,0.1-2.2,4.3-4.6,6.1c-2.4,1.8-5.2-1-6-1.8
		c-0.7-0.7-3.7-0.3-5.4-1.6c-1.6-1.3-6.6,0.4-6.9,3c-0.3,2.5-1.9,0.7-4.8,2.7c-2.8,1.9-0.9-5.5,0-7.9c0.9-2.4-2.1-4.6-0.6-6.4
		c1.5-1.8,0.1-3.7-1.2-6c-1.3-2.2,0.9-3.1,1-4.6c0.1-1.5-3.1-1-4-1c-0.9,0-1.5,0.9-3.3,1.9c-1.8,1-3.7-2.5-2.4-5.1
		c1.3-2.5,0.4-3.4-0.3-4.6c-0.7-1.2-3.1-2.1-4.3-1.9c-1.2,0.1-1.5-0.3-1.5-1.5c0-0.7-0.8-1-1.8-1.2c-0.8-0.1-1.8-0.2-2.5-0.2
		c-0.1,0-0.2,0-0.2,0c-1.6,0.1-2.9,1-3.5,2.4c-0.6,1.5,1.5,3.3-0.4,3.7c-1.9,0.4-3.4,0.1-3.4,1.8c0,1.6-1.3,3.1-2.4,3.6
		c-1,0.4-2.7-0.3-4.3,1.3c-1.6,1.6-1.9,0.3-1.9,0.3c-4.5-3.4-4.6,1.6-4.8,3.9c-0.1,2.2,1,2.2-1.3,3.9c-2.4,1.6,0.3,3.9-0.7,7.5
		c-1,3.6-3.6,0.7-4,2.5c-0.4,1.8,3.3,0.9,3.6,3.6c0.3,2.7,2.1,3.1,4.2,5.2c2.1,2.1,3.3,1.9,3.3,4.9c0,3,2.7,3.4,3.9,3.9
		c1.2,0.4,1.2,1.2,1.3,3.6c0.1,2.4,2.1,3.6,3.4,5.1c1.3,1.5,0.1,3.1-1.5,4.2c-1.6,1-0.7,2.4-0.4,5.7c0.3,3.3-0.3,4.9-1.6,6.7
		c-1.3,1.8,2.1,4.5,3.3,8.1c1.2,3.6,3.3,4.6,6.6,7.2c3.3,2.5,2.7,7.9,2.4,10.7c-0.3,2.8,1.9,7.9,3.3,10.2c1.3,2.2-0.7,3.9,0.7,7
		c1.5,3.1-0.4,6.3-1.9,7.5c-1.5,1.2-1,4-1.2,5.4c-0.1,1.3-2.2,2.4-3.3,3.6c-1,1.2,0.4,3.9-1.9,6c-2,1.7-1.7,3.3-1,5
		c0.1,0.3,0.3,0.7,0.4,1c0.9,2.1-0.4,1.9-1,2.8c-0.6,0.9,0.3,1-0.2,2.8c-0.4,1.8-0.4,1.6-1.3,2.2c-0.9,0.6-0.7,0.3-0.6,2.2
		c0.1,1.9,0.6,1.9-0.9,3.1c-1.5,1.2,0.4,2.4-0.4,4.5c-0.9,2.1,0.3,2.7,0.7,4c0.4,1.3,0.6,1.8,1.2,3.4c0.6,1.6,0.6-2.7,1.2-3.6
		c0.6-0.9,2.2-0.4,2.2,1c0,1.5,1.5,1.5,3.7,2.7c2.2,1.2,0.7,1.2,1,3.4c0.3,2.2,1,0.6,2.8,1.2c1.8,0.6,1.8,2.5,3,4.8
		c1.2,2.2,0.6,0.7,1.9,1.3c1.3,0.6,1.3,1.2,1.9,2.8c0.6,1.6-0.4,1.6-0.4,3.3c0,1.6,1.5,0.9,3.7,2.2c0.2,0.1,0.4,0.3,0.6,0.4
		c1.5,1,1,1.1,1.9,1.9c1,0.9,1.3-3.7,3.4-3.4c2.1,0.3,0.7,1.2,2.8,1.5c2.1,0.3,2.5,0.7,3,2.7c0.4,1.9,2.5,0.3,3.6,2.1
		c1,1.8,0.4,3.1-0.7,4.5c-1.2,1.3-0.3,1.8,1.3,2.8c1.6,1,1.8-0.7,4.6-2.2c2.8-1.5,2.8,0.4,4.6,0.3c1.8-0.2,1.2-2.8,1.2-3.7
		c0,0,0,0,0,0c0-0.9-1.1-2.2-2.8-2.2c-1.8,0-1.5-1.8-2.1-3.6c-0.6-1.8-4-2.2-5.5-1.9c-1.5,0.3-3.3-1.3-3.3-3.1
		c0-1.8-1.6-2.1-3.1-2.4c-1.5-0.3-1.3-1.9-1.3-3c0-1-0.9-0.9-1.9,0.6c-1,1.5-1.8,1.3-3.4-1.2c-1.6-2.5,2.4-2.5,3-3.4
		c0.6-0.9-0.6-2.5,0.3-3.4c0.9-0.9,0.1-2.5-1.3-3.6c-1.5-1-0.3-2.8-0.9-3.7c-0.6-0.9-0.9,0.7-2.5,1.8c-1.6,1-1.2-2.4-2.1-3.6
		c-0.9-1.2-1.2-1.3,0-3c1.2-1.6-1.8-2.1-1.8-3.6c0-1.5-0.4-1.3-2.4-1.9c-1.9-0.6-1.8,0.6-3.3,1.2c-1.5,0.6-2.1-1.2-1.2-2.4
		c0.9-1.2,0.1-1.8-1.3-3c-1.5-1.2-1.6-4.2-0.9-5.7c0.7-1.5,0-1.8-0.6-2.8c-0.6-1-0.3-1.8,0.3-3.3c0.6-1.5-0.3-2.1-0.3-2.7
		c0-0.6,2.2-2.7,4-5.1c1.8-2.4-0.1-4,0-6.3c0.1-2.2,2.7-9,3.7-10c1-1,0.3-3.1-0.3-4.6c-0.6-1.5-0.1-3.4,1.8-5.4
		c1.9-1.9,0-2.2-1.3-3.9c-1.3-1.6,1-1.6,1.5-2.5c0.4-0.9,0.6-0.6,2.7-0.1c2.1,0.4,1.5-0.7,2.2,0.3c0.7,1,0.9,0.1,3.4-0.1
		c2.5-0.3,2.7,1.3,1.5,2.8c-1.2,1.5,1.5,4.9,0.5,6.7c-1,1.8,3.1,1.5,5.1,0.1c1.9-1.3,3.4,0.1,5.1,1.2c1.6,1,0,0,0.7-0.9
		c0.7-0.9,2.5-0.3,2.8,1.5c0.3,1.8,4,0.7,4,3.3c0,2.5,3,2.7,4,3.4c0.7,0.5,1.3-1.1,1.7-3.1c0.3-1.1,0.5-2.4,0.7-3.5
		c0.4-2.8-1.5-4.8-2.8-4.9c-1.3-0.1-1.8-2.2-1-4.9c0.7-2.7-1.6-4.5,0.4-6.9c2.1-2.4,1.5-3.1,1.8-5.5c0.3-2.4,3.7-4,6.7-4.2
		c3-0.1,1.9-0.3,3.9-1.2c1.6-0.7,2.7-0.7,3.8,0c0.3,0.1,0.5,0.3,0.8,0.5c1.5,1,2.4,0.4,3.6,0c1.2-0.4,2.1,0,2.8,0.4
		c0.7,0.4,2.5-0.3,4.3-1.3c1.8-1,3.3,1.2,6.4,1.5c1,0.1,1.4,0,1.7-0.1c0.5-0.3,0-1.2,1.9-2.1C312.5,232,310.2,230.8,310.5,228.9z"/>
</g>
</svg>
