<?xml version="1.0" encoding="utf-8"?>
<!-- Generator: Adobe Illustrator 24.0.1, SVG Export Plug-In . SVG Version: 6.00 Build 0)  -->
<svg version="1.1" id="Layer_1" xmlns="http://www.w3.org/2000/svg" xmlns:xlink="http://www.w3.org/1999/xlink" x="0px" y="0px"
	 viewBox="0 0 500 500" style="enable-background:new 0 0 500 500;" xml:space="preserve">
<style type="text/css">
	.st0{fill:#F2F2F3;}
	.st1{fill:#48515A;}
	.st2{fill:#B2E2EF;}
	.st3{fill:#F69170;}
	.st4{fill:#FFDB7B;}
	.st5{fill:#FFFFFF;}
	.st6{fill:none;}
	.st7{fill:#E25E34;}
	.st8{fill:#808285;}
	.st9{fill:#96C6D1;}
	.st10{fill:#BE1E2D;}
	.st11{fill:#D1D3D4;}
	.st12{fill:#A7A9AC;}
	.st13{fill:#EF4136;}
	.st14{fill:#8B5E3C;}
	.st15{fill:#B1E0E7;}
	.st16{fill:#58595B;}
</style>
<g>
	
		<ellipse transform="matrix(3.044509e-02 -0.9995 0.9995 3.044509e-02 -11.4457 490.4585)" class="st0" cx="247.1" cy="251.1" rx="247.1" ry="247.1"/>
	<rect x="77.8" y="88" class="st9" width="190.6" height="234.6"/>
	<rect x="94.6" y="104.7" class="st4" width="157" height="39.3"/>
	<rect x="94.6" y="162.3" class="st1" width="144.1" height="15.8"/>
	<rect x="94.6" y="198" class="st1" width="144.1" height="15.8"/>
	<rect x="94.6" y="233.8" class="st1" width="94.1" height="15.8"/>
	<g>
		<g>
			<path class="st7" d="M342.8,242.1c0,18-14.6,32.7-32.7,32.7c-18,0-32.7-14.6-32.7-32.7c0-18,14.6-32.7,32.7-32.7
				C328.2,209.5,342.8,224.1,342.8,242.1z"/>
		</g>
		<g>
			<path class="st7" d="M380.9,280.8c-0.4,0-0.7,0.1-1,0.1v-0.1h-3.1h-18.5H358h-20.2l-19.9,12.3l0.3,0l4.9,86.1l-13,8.9l-13-8.9
				l5-86.1l0.2,0l-19.9-12.3h-18.1h-0.3h-18.5h-4.9v0.1c-7.6,0.4-13.7,6.6-13.7,14.3v4.1v100.8H256v-81.2c0-2.3,1.8-4.1,4.1-4.1
				c2.3,0,4.1,1.8,4.1,4.1v81.2h94.2v-81.2c0-2.3,1.8-4.1,4.1-4.1c2.2,0,4.1,1.8,4.1,4.1v81.2h28.8V299.3v-4.1
				C395.3,287.3,388.9,280.8,380.9,280.8z"/>
		</g>
	</g>
	<g>
		<path class="st10" d="M119.1,309.9c-1.8,0-3.4-0.7-4.5-1.8l-18.8-19.8c-2-2-1.5-5,0.9-6.7c2.4-1.6,6-1.3,8,0.8l13.6,14.3
			l23.1-32.9c1.6-2.3,5.1-3,7.8-1.7c2.7,1.3,3.6,4.2,2.1,6.5L124,307.5c-1,1.3-2.6,2.2-4.5,2.3C119.3,309.9,119.2,309.9,119.1,309.9
			z"/>
	</g>
	<path class="st1" d="M213.1,379.6l-36-20.8v15h-72.2c-3.3,0-6,2.7-6,6c0,3.3,2.7,6,6,6H177v14.7L213.1,379.6z"/>
</g>
<g>
	<rect x="282.6" y="61" class="st5" width="86.8" height="24"/>
	<rect x="289.8" y="70.8" class="st3" width="48.7" height="4.9"/>
	<polygon class="st3" points="362.4,70.8 355.3,70.8 355.3,64.8 349.5,64.8 349.5,70.8 342.4,70.8 342.4,75.7 349.5,75.7 
		349.5,81.7 355.3,81.7 355.3,75.7 362.4,75.7 	"/>
	<rect x="282.6" y="94.7" class="st5" width="86.8" height="24"/>
	<rect x="282.6" y="128.4" class="st5" width="86.8" height="24"/>
	<rect x="282.6" y="162.2" class="st5" width="86.8" height="24"/>
	<polygon class="st4" points="362.4,104.3 355.3,104.3 355.3,98.3 349.5,98.3 349.5,104.3 342.4,104.3 342.4,109.2 349.5,109.2 
		349.5,115.2 355.3,115.2 355.3,109.2 362.4,109.2 	"/>
	<rect x="289.8" y="138" class="st1" width="48.7" height="4.9"/>
	<polygon class="st1" points="362.4,138 355.3,138 355.3,132 349.5,132 349.5,138 342.4,138 342.4,142.9 349.5,142.9 349.5,148.9 
		355.3,148.9 355.3,142.9 362.4,142.9 	"/>
	<rect x="289.8" y="171.7" class="st7" width="48.7" height="4.9"/>
	<polygon class="st7" points="362.4,171.7 355.3,171.7 355.3,165.7 349.5,165.7 349.5,171.7 342.4,171.7 342.4,176.6 349.5,176.6 
		349.5,182.6 355.3,182.6 355.3,176.6 362.4,176.6 	"/>
	<rect x="289.8" y="104.3" class="st4" width="48.7" height="4.9"/>
</g>
</svg>
