<?xml version="1.0" encoding="utf-8"?>
<!-- Generator: Adobe Illustrator 24.0.1, SVG Export Plug-In . SVG Version: 6.00 Build 0)  -->
<svg version="1.1" id="Layer_1" xmlns="http://www.w3.org/2000/svg" xmlns:xlink="http://www.w3.org/1999/xlink" x="0px" y="0px"
	 viewBox="0 0 500 500" style="enable-background:new 0 0 500 500;" xml:space="preserve">
<style type="text/css">
	.st0{fill:#F2F2F3;}
	.st1{fill:#48515A;}
	.st2{fill:#B2E2EF;}
	.st3{fill:#F69170;}
	.st4{fill:#FFDB7B;}
	.st5{fill:#FFFFFF;}
	.st6{fill:none;}
	.st7{fill:#E25E34;}
	.st8{fill:#808285;}
	.st9{fill:#96C6D1;}
	.st10{fill:#BE1E2D;}
	.st11{fill:#D1D3D4;}
	.st12{fill:#A7A9AC;}
	.st13{fill:#EF4136;}
	.st14{fill:#8B5E3C;}
	.st15{fill:#B1E0E7;}
	.st16{fill:#58595B;}
</style>
<g>
	<path class="st0" d="M494.3,252.4c0,136.2-110.4,246.6-246.6,246.6C111.4,499,1,388.6,1,252.4C1,116.2,111.4,5.8,247.6,5.8
		C383.8,5.8,494.3,116.2,494.3,252.4z"/>
	<path class="st6" d="M211.4,179.2c-1.2,0-2.3,0.8-2.7,1.9h5.4C213.7,180,212.6,179.2,211.4,179.2z"/>
	<path class="st6" d="M284.2,179.2c-1.3,0-2.3,0.8-2.7,1.9h5.4C286.5,180,285.5,179.2,284.2,179.2z"/>
	<path class="st7" d="M187.9,181.2h-6.6c-14.2,0-25.7,11.5-25.7,25.7v22.5h32.3V181.2z"/>
	<path class="st7" d="M339.6,229.3v-22.5c0-14.2-11.5-25.7-25.7-25.7h-6.3v48.2H339.6z"/>
	<path class="st7" d="M281.3,229.3h5.8v-47.2c0-0.4-0.1-0.7-0.2-1h-5.4c-0.1,0.3-0.2,0.6-0.2,1V229.3z"/>
	<polygon class="st7" points="252.1,269.3 247.8,269.3 243.5,269.3 243.3,269.3 243.3,310.8 252.3,310.8 252.3,269.3 	"/>
	<path class="st7" d="M214.3,182.2c0-0.4-0.1-0.7-0.2-1h-5.4c-0.1,0.3-0.2,0.6-0.2,1v47.2h5.8V182.2z"/>
	<g>
		<path class="st4" d="M247,150.8c12.8,0,23.2-10.4,23.2-23.3c0-12.8-10.4-23.2-23.2-23.2c-12.8,0-23.3,10.4-23.3,23.2
			C223.8,140.3,234.2,150.8,247,150.8z"/>
	</g>
	<g>
		<path class="st4" d="M297.4,155c-0.2,0-0.4,0-0.7,0.1V155h-2.2h-13.2h-0.2h-28.8h-0.2h-4.3h-4.3h-0.2h-28.8h-0.2h-13.2h-3.5v0
			c-5.4,0.3-9.7,4.7-9.7,10.2v2.9v13v48.2h20.5v-47.2c0-0.4,0.1-0.7,0.2-1c0.4-1.1,1.5-1.9,2.7-1.9c1.3,0,2.3,0.8,2.7,1.9
			c0.1,0.3,0.2,0.6,0.2,1v47.2h67v-47.2c0-0.4,0.1-0.7,0.2-1c0.4-1.1,1.5-1.9,2.7-1.9c1.3,0,2.3,0.8,2.7,1.9c0.1,0.3,0.2,0.6,0.2,1
			v47.2h20.5v-48.2v-13v-2.9C307.7,159.6,303.1,155,297.4,155z"/>
	</g>
	<rect x="75" y="229.3" class="st1" width="345.3" height="18.2"/>
	<polygon class="st1" points="106.6,252.4 106.6,383.1 138.6,383.1 138.6,298.8 356.6,298.8 356.6,383.1 388.7,383.1 388.7,252.4 	
		"/>
	<path class="st7" d="M321.9,356c-2.6,0-4.9,0.8-7,2c-1.7,1-3.2,2.4-4.3,4c-1.5,2.2-2.3,4.8-2.3,7.5c0,7.5,6.1,13.6,13.6,13.6
		c7.5,0,13.6-6.1,13.6-13.6C335.5,362,329.4,356,321.9,356z"/>
	<path class="st1" d="M281.3,332.7l29.3,29.3c1.1-1.6,2.6-3,4.3-4l-32-32.1h-1.5V332.7z"/>
	<path class="st4" d="M274.5,325.9h-22.2v41.4c0,7.3,5.9,13.2,13.2,13.2h2.6c6.6,0,12.1-4.9,13-11.3c0.1-0.6,0.2-1.3,0.2-1.9v-34.6
		v-6.8H274.5z"/>
	<path class="st1" d="M212.5,325.9L180.4,358c1.7,1,3.2,2.4,4.3,4l29.6-29.6v-6.5H212.5z"/>
	<path class="st4" d="M220.8,325.9h-6.5v6.5v34.9c0,0.6,0.1,1.3,0.2,1.9c0.9,6.4,6.4,11.3,13,11.3h2.6c7.3,0,13.2-5.9,13.2-13.2
		v-41.4H220.8z"/>
	<polygon class="st8" points="138.6,298.8 138.6,325.9 212.5,325.9 214.3,325.9 220.8,325.9 243.3,325.9 252.3,325.9 274.5,325.9 
		281.3,325.9 282.8,325.9 356.6,325.9 356.6,298.8 	"/>
	<path class="st7" d="M184.7,362c-1.1-1.6-2.6-3-4.3-4c-2-1.2-4.4-2-7-2c-7.5,0-13.6,6.1-13.6,13.6c0,7.5,6.1,13.6,13.6,13.6
		c7.5,0,13.6-6.1,13.6-13.6C187,366.7,186.1,364.2,184.7,362z"/>
</g>
</svg>
