<?xml version="1.0" encoding="utf-8"?>
<!-- Generator: Adobe Illustrator 24.0.1, SVG Export Plug-In . SVG Version: 6.00 Build 0)  -->
<svg version="1.1" id="Layer_1" xmlns="http://www.w3.org/2000/svg" xmlns:xlink="http://www.w3.org/1999/xlink" x="0px" y="0px"
	 viewBox="0 0 500 500" style="enable-background:new 0 0 500 500;" xml:space="preserve">
<style type="text/css">
	.st0{fill:#F2F2F3;}
	.st1{fill:#48515A;}
	.st2{fill:#B2E2EF;}
	.st3{fill:#F69170;}
	.st4{fill:#FFDB7B;}
	.st5{fill:#FFFFFF;}
	.st6{fill:none;}
	.st7{fill:#E25E34;}
	.st8{fill:#808285;}
	.st9{fill:#96C6D1;}
	.st10{fill:#BE1E2D;}
	.st11{fill:#D1D3D4;}
	.st12{fill:#A7A9AC;}
	.st13{fill:#EF4136;}
	.st14{fill:#8B5E3C;}
	.st15{fill:#B1E0E7;}
	.st16{fill:#58595B;}
</style>
<g>
	
		<ellipse transform="matrix(0.7071 -0.7071 0.7071 0.7071 -104.0136 252.1314)" class="st0" cx="252.3" cy="251.6" rx="246.7" ry="246.7"/>
	<path class="st1" d="M408.2,335.9c0,12.1-9.8,21.9-22,21.9H118.4c-12.1,0-22-9.8-22-21.9V157c0-12.1,9.8-21.9,22-21.9h267.9
		c12.1,0,22,9.8,22,21.9V335.9z"/>
	<rect x="114.4" y="151.8" class="st2" width="276" height="193.1"/>
	<path class="st1" d="M93.3,368.1h318.1c13.6,0,24.7-14,25.9-32h-370C68.6,354.1,79.7,368.1,93.3,368.1z"/>
	<path class="st0" d="M197.5,347.2h109.7c4.7,0,8.5-4.8,9-11H188.6C189,342.3,192.8,347.2,197.5,347.2z"/>
	<g>
		<g>
			<path class="st3" d="M339.2,209.3c0,13.2-10.7,23.9-23.9,23.9c-13.2,0-23.9-10.7-23.9-23.9c0-13.2,10.7-23.9,23.9-23.9
				C328.6,185.3,339.2,196.1,339.2,209.3z"/>
		</g>
		<g>
			<path class="st3" d="M275.7,265.5c0-1.7,1.3-3,3-3c1.6,0,3,1.3,3,3V325h69v-59.5c0-1.7,1.3-3,3-3c1.6,0,3,1.3,3,3V325h21.1v-73.8
				v-3c0-5.8-4.7-10.6-10.6-10.6c-0.2,0-0.5,0.1-0.7,0.1v-0.1h-2.3h-13.5h-0.2h-29.7h-0.2h-4.4h-4.4h-0.2h-29.7h-0.2h-13.6h-3.5v0.1
				c-5.6,0.3-10,4.9-10,10.5v3V325h21.1V265.5z"/>
		</g>
	</g>
	<path class="st4" d="M295.8,168.8c0,9.1-7.4,16.5-16.5,16.5h-69.6c-9.1,0-16.5-7.4-16.5-16.5v-40.5c0-9.1,7.4-16.5,16.5-16.5h69.6
		c9.1,0,16.5,7.4,16.5,16.5V168.8z"/>
	<polygon class="st4" points="271.7,177.7 278.9,209.3 244.5,177.7 	"/>
	<rect x="206.6" y="122.4" class="st1" width="75.8" height="9.7"/>
	<rect x="206.6" y="164.9" class="st1" width="75.8" height="9.7"/>
	<rect x="206.6" y="143.7" class="st1" width="41.1" height="9.7"/>
	<rect x="257" y="143.7" class="st1" width="25.3" height="9.7"/>
	<rect x="125.7" y="289.4" class="st5" width="107.1" height="11.3"/>
	<rect x="125.7" y="313.7" class="st5" width="72.3" height="11.3"/>
	<rect x="125.7" y="265.2" class="st5" width="107.1" height="11.3"/>
	<rect x="125.7" y="199.6" class="st5" width="107.1" height="52"/>
</g>
</svg>
