<?xml version="1.0" encoding="utf-8"?>
<!-- Generator: Adobe Illustrator 24.0.1, SVG Export Plug-In . SVG Version: 6.00 Build 0)  -->
<svg version="1.1" id="Layer_1" xmlns="http://www.w3.org/2000/svg" xmlns:xlink="http://www.w3.org/1999/xlink" x="0px" y="0px"
	 viewBox="0 0 500 500" style="enable-background:new 0 0 500 500;" xml:space="preserve">
<style type="text/css">
	.st0{fill:#C3C5D0;}
	.st1{fill:#F0F1F5;}
	.st2{fill:#3A559F;}
	.st3{fill:#FFFFFF;}
	.st4{fill:#00C200;}
	.st5{fill:#00C500;}
	.st6{fill:#C536A4;}
	.st7{fill:#DD4B39;}
	.st8{fill:#15ACE5;}
	.st9{fill:#DC472E;}
</style>
<circle class="st0" cx="250" cy="250" r="250"/>
<path class="st1" d="M385.4,276.5c1.7-8.6,2.6-17.4,2.6-26.5c0-76.2-61.8-138-138-138c-9.1,0-17.9,0.9-26.5,2.6
	c-11.8-6.9-25.5-10.9-40.1-10.9c-44,0-79.6,35.7-79.6,79.6c0,14.6,4,28.4,10.9,40.1c-1.7,8.6-2.6,17.4-2.6,26.5
	c0,76.2,61.8,138,138,138c9.1,0,17.9-0.9,26.5-2.6c11.8,6.9,25.5,10.9,40.1,10.9c44,0,79.6-35.7,79.6-79.6
	C396.3,302,392.3,288.3,385.4,276.5L385.4,276.5z M252.6,344.7c-49,0-73.5-18.4-81.1-41.5c-7.5-23.1,9-29.7,14.1-30.2
	c5.2-0.5,16.2,0.8,19.3,10.4c3.3,10,14.1,29.7,37.7,32.1s39.1-8.5,43.8-19.8c4.7-11.3-3.8-26.9-40.1-32.1c-36.3-5.2-74-21.2-74-57.5
	c0-36.3,41.5-50.9,81.1-50.9c39.6,0,59.7,22.4,64.1,31.1c5.5,10.8,3.6,28.9-9.4,32.1c-13.7,3.3-20.7-4.2-30.6-22.6
	c-10.2-19-46.7-14.1-58.9-3.3c-12.3,10.8-9,26.4,42,36.3c50.9,9.9,69.8,28.3,69.8,57C330.4,314.6,301.6,344.7,252.6,344.7
	L252.6,344.7z M252.6,344.7"/>
</svg>
