<?xml version="1.0" encoding="utf-8"?>
<!-- Generator: Adobe Illustrator 24.0.1, SVG Export Plug-In . SVG Version: 6.00 Build 0)  -->
<svg version="1.1" id="Layer_1" xmlns="http://www.w3.org/2000/svg" xmlns:xlink="http://www.w3.org/1999/xlink" x="0px" y="0px"
	 viewBox="0 0 500 500" style="enable-background:new 0 0 500 500;" xml:space="preserve">
<style type="text/css">
	.st0{fill:#C3C5D0;}
	.st1{fill:#F0F1F5;}
	.st2{fill:url(#SVGID_1_);}
	.st3{fill:#FFFFFF;}
	.st4{fill:#3A559F;}
	.st5{fill:url(#SVGID_2_);}
	.st6{fill:#00C200;}
	.st7{fill:#00C500;}
	.st8{fill:url(#SVGID_3_);}
	.st9{fill:#C536A4;}
	.st10{fill:url(#SVGID_4_);}
	.st11{fill:#DD4B39;}
	.st12{fill:url(#SVGID_5_);}
	.st13{fill:#15ACE5;}
	.st14{fill:url(#SVGID_6_);}
	.st15{fill:#DC472E;}
</style>
<linearGradient id="SVGID_1_" gradientUnits="userSpaceOnUse" x1="0" y1="250" x2="500" y2="250">
	<stop  offset="0" style="stop-color:#4389A2"/>
	<stop  offset="1" style="stop-color:#5C258D"/>
</linearGradient>
<circle class="st2" cx="250" cy="250" r="250"/>
<path class="st3" d="M430.8,216c-4.4-76.4-83.7-137.3-180.9-137.3c-100,0-181.1,64.5-181.1,144c0,73.1,68.5,133.5,157.2,142.8
	c5.4,0.6,9.3,5.5,8.7,10.9l-3.8,34c-0.9,7.7,7.1,13.3,14.1,10c75-36.2,119.8-73.4,146.6-105.7c4.9-5.9,20.8-28.1,24-34
	c6.9-12.4,11.6-25.7,13.8-39.7c0.8-4.4,1.2-8.1,1.4-11C431.3,225.3,431,218.2,430.8,216z M178.2,270.4h-37c-5.1,0-9.3-4.1-9.3-9.3
	v-69.9c0-5.1,4.2-9.3,9.3-9.3c5.1,0,9.3,4.1,9.3,9.3v60.7h27.8c5.1,0,9.3,4.1,9.3,9.3C187.4,266.3,183.3,270.4,178.2,270.4z
	 M214.8,263.2c0,4-3.2,7.2-7.2,7.2h-4c-4,0-7.2-3.2-7.2-7.2v-74c0-4,3.2-7.2,7.2-7.2h4c4,0,7.2,3.2,7.2,7.2V263.2z M300.9,260.7
	c0,5.1-4.2,9.7-9.3,9.6c-2.4,0-4.6-1-6.3-2.5c-0.6-0.5-38.1-49.2-38.1-49.2v42.5c0,5.1-4.1,9.3-9.3,9.3c-5.1,0-9.3-4.1-9.3-9.3
	v-69.6c0-5,3.9-9.4,8.9-9.6c2.9-0.1,5.5,1.1,7.3,3.1c0.6,0.6,37.6,48.9,37.6,48.9v-42.7c0-5.1,4.1-9.3,9.3-9.3
	c5.1,0,9.3,4.1,9.3,9.3V260.7z M361.1,216.9c5.1,0,9.3,4.1,9.3,9.3c0,5.1-4.1,9.3-9.3,9.3h-27.8v16.4h27.8c5.1,0,9.3,4.1,9.3,9.3
	c0,5.1-4.1,9.3-9.3,9.3h-37c-5.1,0-9.3-4.1-9.3-9.3v-69.9c0-5.1,4.1-9.3,9.3-9.3h37c5.1,0,9.3,4.1,9.3,9.3c0,5.1-4.1,9.3-9.3,9.3
	h-27.8v16.4H361.1z"/>
</svg>
