<?xml version="1.0" encoding="utf-8"?>
<!-- Generator: Adobe Illustrator 24.0.1, SVG Export Plug-In . SVG Version: 6.00 Build 0)  -->
<svg version="1.1" id="Layer_1" xmlns="http://www.w3.org/2000/svg" xmlns:xlink="http://www.w3.org/1999/xlink" x="0px" y="0px"
	 viewBox="0 0 500 500" style="enable-background:new 0 0 500 500;" xml:space="preserve">
<style type="text/css">
	.st0{fill:#C3C5D0;}
	.st1{fill:#F0F1F5;}
	.st2{fill:#3A559F;}
	.st3{fill:#FFFFFF;}
	.st4{fill:#00C200;}
	.st5{fill:#00C500;}
	.st6{fill:#C536A4;}
	.st7{fill:#DD4B39;}
	.st8{fill:#15ACE5;}
	.st9{fill:#DC472E;}
</style>
<circle class="st0" cx="250" cy="250" r="250"/>
<g>
	<path class="st1" d="M250,328.7c43.4,0,78.7-35.3,78.7-78.7c0-43.4-35.3-78.7-78.7-78.7c-43.4,0-78.7,35.3-78.7,78.7
		C171.3,293.4,206.6,328.7,250,328.7z M250,204.6c25,0,45.4,20.4,45.4,45.4c0,25-20.4,45.4-45.4,45.4c-25,0-45.4-20.4-45.4-45.4
		C204.6,225,225,204.6,250,204.6z"/>
	<path class="st1" d="M331.2,187.6c10.3,0,18.6-8.3,18.6-18.6c0-10.3-8.3-18.6-18.6-18.6c-10.3,0-18.6,8.3-18.6,18.6
		C312.6,179.3,320.9,187.6,331.2,187.6z"/>
	<path class="st1" d="M325.7,402.7c42.5,0,77-34.6,77-77V174.3c0-42.5-34.6-77-77-77H174.3c-42.5,0-77,34.6-77,77v151.3
		c0,42.5,34.6,77,77,77H325.7z M130.5,325.7V174.3c0-24.2,19.7-43.8,43.8-43.8h151.3c24.2,0,43.8,19.7,43.8,43.8v151.3
		c0,24.2-19.7,43.8-43.8,43.8H174.3C150.2,369.5,130.5,349.8,130.5,325.7z"/>
</g>
</svg>
