<?xml version="1.0" encoding="utf-8"?>
<!-- Generator: Adobe Illustrator 24.0.1, SVG Export Plug-In . SVG Version: 6.00 Build 0)  -->
<svg version="1.1" id="Layer_1" xmlns="http://www.w3.org/2000/svg" xmlns:xlink="http://www.w3.org/1999/xlink" x="0px" y="0px"
	 viewBox="0 0 500 500" style="enable-background:new 0 0 500 500;" xml:space="preserve">
<style type="text/css">
	.st0{fill:#C3C5D0;}
	.st1{fill:#F0F1F5;}
	.st2{fill:#3A559F;}
	.st3{fill:#FFFFFF;}
	.st4{fill:#00C200;}
	.st5{fill:#00C500;}
	.st6{fill:#C536A4;}
	.st7{fill:#DD4B39;}
	.st8{fill:#15ACE5;}
	.st9{fill:#DC472E;}
</style>
<circle class="st0" cx="250" cy="250" r="250"/>
<g>
	<path class="st1" d="M429.6,241c0.8-4.4,1.2-8.1,1.4-11c0.3-4.8,0-11.9-0.2-14.1c-4.4-76.4-83.7-137.3-180.9-137.3
		c-100,0-181.1,64.5-181.1,144c0,73.1,68.5,133.5,157.2,142.8c5.4,0.6,9.3,5.5,8.7,10.9l-3.8,34c-0.9,7.7,7.1,13.3,14.1,10
		c75-36.2,119.8-73.4,146.6-105.7c4.9-5.9,20.8-28.1,24-34C422.6,268.3,427.4,255,429.6,241L429.6,241z M429.6,241"/>
	<path class="st0" d="M150.4,251.9v-60.7c0-5.1-4.1-9.3-9.3-9.3c-5.1,0-9.3,4.1-9.3,9.3v69.9c0,5.1,4.2,9.3,9.3,9.3h37
		c5.1,0,9.3-4.1,9.3-9.3c0-5.1-4.1-9.3-9.3-9.3H150.4z M150.4,251.9"/>
	<path class="st0" d="M207.5,270.4h-4c-4,0-7.2-3.2-7.2-7.2v-74c0-4,3.2-7.2,7.2-7.2h4c4,0,7.2,3.2,7.2,7.2v74
		C214.8,267.2,211.5,270.4,207.5,270.4L207.5,270.4z M207.5,270.4"/>
	<path class="st0" d="M282.4,191.2v42.7c0,0-37-48.3-37.6-48.9c-1.8-2-4.4-3.2-7.3-3.1c-5,0.2-8.9,4.6-8.9,9.6v69.6
		c0,5.1,4.1,9.3,9.3,9.3c5.1,0,9.3-4.1,9.3-9.3v-42.5c0,0,37.6,48.7,38.1,49.2c1.6,1.5,3.8,2.5,6.3,2.5c5.1,0,9.3-4.5,9.3-9.6v-69.5
		c0-5.1-4.1-9.3-9.3-9.3C286.5,181.9,282.4,186.1,282.4,191.2L282.4,191.2z M282.4,191.2"/>
	<path class="st0" d="M370.4,191.2c0-5.1-4.1-9.3-9.3-9.3h-37c-5.1,0-9.3,4.1-9.3,9.3v69.9c0,5.1,4.1,9.3,9.3,9.3h37
		c5.1,0,9.3-4.1,9.3-9.3c0-5.1-4.1-9.3-9.3-9.3h-27.8v-16.4h27.8c5.1,0,9.3-4.1,9.3-9.3c0-5.1-4.1-9.3-9.3-9.3h-27.8v-16.4h27.8
		C366.2,200.5,370.4,196.3,370.4,191.2L370.4,191.2z M370.4,191.2"/>
</g>
</svg>
