<?xml version="1.0" encoding="utf-8"?>
<!-- Generator: Adobe Illustrator 21.0.0, SVG Export Plug-In . SVG Version: 6.00 Build 0)  -->
<svg version="1.1" id="Layer_1" xmlns="http://www.w3.org/2000/svg" xmlns:xlink="http://www.w3.org/1999/xlink" x="0px" y="0px"
	 viewBox="0 0 768 300" style="enable-background:new 0 0 768 300;" xml:space="preserve">
<style type="text/css">
	.st0{fill:#E6E7E8;}
	.st1{fill:#242333;}
	.st2{fill:#FFB888;}
	.st3{fill:#150C0F;}
	.st4{fill:#FFC197;}
	.st5{fill:#E6E6FF;}
	.st6{fill:#335572;}
	.st7{fill:#1B1D23;}
	.st8{fill:#6A402E;}
	.st9{fill:#454563;}
	.st10{fill:#598253;}
	.st11{fill:#D3A192;}
	.st12{fill:#DDB2A2;}
	.st13{fill:#51915E;}
	.st14{fill:#5E8658;}
	.st15{fill:#364163;}
	.st16{fill:#202C52;}
	.st17{fill:#688D63;}
	.st18{fill:#121119;}
	.st19{fill:#FFE7D7;}
	.st20{fill:#7DAD86;}
	.st21{fill:#1D3322;}
	.st22{fill:#0C2412;}
	.st23{fill:#C18B87;}
	.st24{fill:#7D9E79;}
	.st25{fill:#35756C;}
	.st26{fill:#4B807A;}
	.st27{fill:#3A1A39;}
	.st28{fill:#F7CDAF;}
	.st29{fill:#BF8D84;}
	.st30{fill:#796F89;}
	.st31{fill:#100D14;}
	.st32{fill:#564966;}
	.st33{fill:#625475;}
	.st34{fill:#695C7C;}
	.st35{fill:#2B082A;}
	.st36{fill:#DCFFF3;}
	.st37{fill:#F4B990;}
	.st38{fill:#432342;}
	.st39{fill:#F3CFC1;}
	.st40{fill:#F7CAAB;}
	.st41{fill:#873A00;}
	.st42{fill:#D3F6EA;}
	.st43{fill:#6B5569;}
	.st44{fill:#745F72;}
	.st45{fill:#F2AD86;}
	.st46{fill:#918397;}
	.st47{fill:#C4F3E3;}
	.st48{fill:#7D697B;}
	.st49{fill:#837081;}
	.st50{fill:#6D566A;}
	.st51{fill:#927AA9;}
	.st52{fill:#E2F9F1;}
	.st53{fill:#5C3113;}
	.st54{enable-background:new    ;}
	.st55{fill:#54BDBF;}
	.st56{fill:#740B03;}
	.st57{fill:#94EDEA;}
	.st58{fill:#77D8D8;}
	.st59{fill:#68598E;}
	.st60{fill:#FFCBA1;}
	.st61{fill:#EABA24;}
	.st62{fill:#DEC3F4;}
	.st63{fill:#E8D5F7;}
	.st64{fill:#5E4E87;}
	.st65{fill:#F8F2FD;}
	.st66{fill:#25154A;}
	.st67{fill:#322355;}
	.st68{fill:#40355C;}
	.st69{fill:#756798;}
	.st70{fill:#7B6E9D;}
	.st71{fill:#428F65;}
	.st72{fill:#C0F0FF;}
	.st73{fill:#4B956C;}
	.st74{fill:#469168;}
	.st75{fill:#257749;}
	.st76{fill:#365042;}
	.st77{fill:#3D5648;}
	.st78{fill:#223F2F;}
	.st79{fill:#6AA785;}
	.st80{fill:#D9F6FF;}
	.st81{fill:#4A6254;}
	.st82{fill:#2F4B3C;}
	.st83{fill:#FFC6A9;}
	.st84{fill:#FFDBC9;}
	.st85{fill:#27362D;}
	.st86{fill:#100B0F;}
	.st87{fill:#FFD0B0;}
	.st88{fill:#5D6862;}
	.st89{fill:#C0EDED;}
	.st90{fill:#A0E4E4;}
	.st91{fill:#D7F7FF;}
	.st92{fill:#707BA1;}
	.st93{fill:#6A759D;}
	.st94{fill:#606C96;}
	.st95{fill:#7D87A9;}
	.st96{fill:#45455C;}
	.st97{fill:#3C4357;}
	.st98{fill:#47475D;}
	.st99{fill:#FFCEB5;}
	.st100{fill:#42495C;}
	.st101{fill:#FFDBC8;}
	.st102{fill:#636F99;}
	.st103{fill:#8D95B4;}
	.st104{fill:#CFE8E5;}
	.st105{fill:#F5F6F7;}
	.st106{fill:#FFBF94;}
	.st107{fill:#521C59;}
	.st108{fill:#DFB0A1;}
	.st109{fill:#D69985;}
	.st110{fill:#411249;}
	.st111{fill:#F2BF9C;}
	.st112{fill:#FFE394;}
	.st113{fill:#56205D;}
	.st114{fill:#683870;}
	.st115{fill:#F6D3BB;}
	.st116{fill:#A32914;}
	.st117{fill:#E6FFFC;}
	.st118{fill:#772F2F;}
	.st119{fill:#E8DFDF;}
	.st120{fill:#722828;}
	.st121{fill:#6C6F7A;}
	.st122{fill:#350000;}
	.st123{fill:#593126;}
	.st124{fill:#230000;}
	.st125{fill:#5D81A6;}
	.st126{fill:#34537C;}
	.st127{fill:#EFB68F;}
	.st128{fill:#2A4B6B;}
	.st129{fill:#C7D6E2;}
	.st130{fill:#F3F3F3;}
	.st131{fill:#99C9D6;}
	.st132{fill:#475B73;}
	.st133{fill:#32517A;}
	.st134{fill:#536D90;}
	.st135{fill:#526F9B;}
	.st136{fill:#0F0F11;}
	.st137{fill:#5C8D8B;}
	.st138{fill:#385473;}
	.st139{fill:#AFE3EF;}
	.st140{fill:#7D4534;}
	.st141{fill:#F2AF81;}
	.st142{fill:#BA3900;}
	.st143{fill:#3E5C82;}
	.st144{fill:#3D0606;}
	.st145{fill:#2D0000;}
	.st146{fill:#6A83A9;}
	.st147{fill:#101319;}
	.st148{fill:#151A21;}
	.st149{fill:#4B668A;}
	.st150{fill:#B0E3FF;}
	.st151{fill:#A50C00;}
	.st152{fill:#25601E;}
	.st153{fill:#245E1E;}
	.st154{fill:#C7EEFF;}
	.st155{fill:#F9B28F;}
	.st156{fill:#9FC3CF;}
	.st157{fill:#608F9E;}
	.st158{fill:#E9FFFD;}
	.st159{fill:#F8FFFF;}
	.st160{fill:#FFFFFF;}
	.st161{fill:#421000;}
	.st162{fill:#D1D7E5;}
	.st163{fill:#EAEDF4;}
	.st164{fill:#F3F6FF;}
	.st165{fill:#E2EDED;}
	.st166{fill:#232877;}
	.st167{fill:#E83A28;}
	.st168{fill:#FF7364;}
	.st169{fill:#DCF5F9;}
	.st170{fill:#FF5027;}
	.st171{fill:#232865;}
	.st172{fill:#7A4039;}
	.st173{fill:#232835;}
	.st174{fill:#141926;}
	.st175{fill:#263349;}
	.st176{fill:#30242E;}
	.st177{fill:#EAE4DF;}
	.st178{fill:#22474D;}
	.st179{fill:#316D63;}
	.st180{fill:#49737A;}
	.st181{fill:#151515;}
	.st182{fill:#E9B7A0;}
	.st183{fill:#FBCCBA;}
	.st184{fill:#2F353F;}
	.st185{fill:#290E3A;}
	.st186{fill:#4B3B54;}
	.st187{fill:#BAC6DB;}
	.st188{fill:#3E221A;}
	.st189{fill:#66668A;}
	.st190{fill:#000103;}
	.st191{fill:#3F3E83;}
	.st192{fill:#CED1E0;}
	.st193{fill:#DDDFEC;}
	.st194{fill:#540D0D;}
	.st195{fill:#3D3C82;}
	.st196{fill:#291B1D;}
	.st197{fill:#FFAF78;}
	.st198{fill:#FFDED4;}
	.st199{fill:#F4D2AB;}
	.st200{fill:#300600;}
	.st201{fill:#EFD7B9;}
	.st202{fill:#222327;}
	.st203{fill:#2E0000;}
	.st204{fill:#4F2C22;}
	.st205{fill:#3D0B0B;}
	.st206{fill:#440C0C;}
	.st207{fill:#425E4E;}
	.st208{fill:#EFE8DF;}
	.st209{fill:#3E3E3E;}
	.st210{fill:#05162D;}
	.st211{fill:#2A2A2C;}
	.st212{fill:#B6B19E;}
	.st213{fill:#8DA9B0;}
	.st214{fill:#5F665F;}
	.st215{fill:#BF897B;}
	.st216{fill:#AD7866;}
	.st217{fill:#FFCAB3;}
	.st218{fill:#2C57A5;}
	.st219{opacity:0.14;fill:url(#SVGID_1_);}
	.st220{opacity:0.5;}
	.st221{fill:url(#SVGID_2_);}
	.st222{fill:#306CC4;}
	.st223{fill:#5D5D5D;}
	.st224{fill:#C2C8D3;}
	.st225{opacity:0.3;fill:#C2C8D3;}
	.st226{fill:none;stroke:#FFFFFF;stroke-width:1.584;stroke-linecap:square;stroke-miterlimit:10;}
	.st227{fill:url(#SVGID_3_);}
	.st228{fill:#F2F2F2;}
	.st229{fill:#E6E6E6;}
	.st230{fill:#4D4D4D;}
	.st231{fill:#666666;}
</style>
<rect class="st0" width="768" height="300"/>
<g>
	<g>
		<g>
			<polygon class="st160" points="310.1,7.7 310.1,191.9 457.9,191.9 457.9,47.5 418,7.7 			"/>
			<polygon class="st212" points="457.9,47.5 418,7.7 418,47.5 			"/>
		</g>
		<rect x="370.3" y="31.6" class="st213" width="37.3" height="5.9"/>
		<rect x="341.3" y="60" class="st213" width="95.4" height="5.5"/>
		<rect x="341.3" y="77" class="st213" width="95.4" height="5.5"/>
		<rect x="341.3" y="94.1" class="st213" width="95.4" height="5.5"/>
		<rect x="341.3" y="111.2" class="st213" width="95.4" height="5.5"/>
		<rect x="341.3" y="128.3" class="st213" width="95.4" height="5.5"/>
		<rect x="341.3" y="145.4" class="st213" width="95.4" height="5.5"/>
		<rect x="341.3" y="162.4" class="st213" width="95.4" height="5.5"/>
		<ellipse class="st214" cx="325" cy="72.7" rx="5" ry="5"/>
		<circle class="st214" cx="325" cy="128.3" r="5"/>
	</g>
	<g>
		<g>
			<path class="st215" d="M379.5,138.5l-22.2,17c0,0-4,5.1,3.6,9.7c7.6,4.6,31-2.3,31-2.3l3.9-8.6l-4.2-16.2L379.5,138.5z"/>
			<path class="st215" d="M382.2,132l-26.4,13.6c0,0-5.2,4.6,1.9,10.9c7.1,6.2,32.9,3.5,32.9,3.5l5.7-8.2l-1.4-17.7L382.2,132z"/>
			<path class="st215" d="M371.3,142.3c0,0,11.6,7.3,21,3.9c0,0-1.9,6.2,5.4,11.2c7.3,5,23.1-3.1,23.1-3.1l-16-26.7l-23.8-2.8
				l-7.7,3.4L371.3,142.3z"/>
			<path class="st216" d="M377.2,134.5c0,0,11.7,7.3,20.7,2.9c0,0-0.7,5.1,7.1,9.3c7.8,4.2,22.6-5.5,22.6-5.5l-20-18.6l-23.8,0.1
				l-6.2-2.6L377.2,134.5z"/>
			<g>
				<path class="st217" d="M438.1,153.7c-1.6-3-9.6-20.5-13.7-25.8c-4.1-5.2-10.5-12.7-10.5-12.7l0,0.1c-0.1-0.2-0.2-0.4-0.3-0.4
					c-0.8-0.2-11,1.8-12.7,1.9c-1.7,0-20.6,1.1-21,0.8c0,0-2.3,0.5-1.2,5.7c2.5,11.9,18.7,11.5,25.5,11l-0.2,0.3
					c-0.2,4.6,4,9.9,4,9.9c-5.4,6.4-12,15.5-12,15.5l-11.1,0.4c-2.3-5.4-8.5-14.2-8.5-14.2s0.5-0.4,2.1-7
					c2.9-11.6-0.2-17.1-4.5-18.9c-5.1-2.2-7.4,1.9-8,2.8c-0.8,1.2-6,11.5-7.2,13.8c-1.4,2.7-3.8,5.1-2.6,9.6
					c1.2,4.5,7.5,41.6,9.1,47.2c1.6,5.6,9,25.4,9,25.4l39.1-3.8c0.5-0.8,0.5-14.1,2.7-17.5C422.3,188.2,439.7,156.7,438.1,153.7z"/>
				<path class="st217" d="M413.6,215.2l-0.3,0C412.5,216.6,413.6,215.2,413.6,215.2z"/>
			</g>
			<g>
				<path class="st217" d="M374.3,219c0,0-7.4-19.8-9-25.4c-1.6-5.6-7.9-42.7-9.1-47.2c-1.2-4.5,1.2-6.9,2.6-9.6"/>
				<g>
					<path class="st217" d="M385,160.3l0.4,0l-1.9-3C384.1,158.3,384.6,159.4,385,160.3z"/>
					<path class="st217" d="M413.7,215.2l-0.1-0.2C412.5,216.8,413.7,215.2,413.7,215.2z"/>
					<path class="st217" d="M376.5,146.1l7,11.2C380.8,152.1,376.5,146.1,376.5,146.1z"/>
				</g>
			</g>
			<polygon class="st218" points="411.5,183.8 403.8,187.8 382.5,146 359.2,100.4 359.1,91.7 366.7,96.1 391,143.7 			"/>
			<path class="st217" d="M358.9,136.8c1.2-2.3,6.4-12.6,7.2-13.8c0.6-0.9,2.9-5,8-2.8c4.2,1.9,7.3,7.3,4.5,18.9
				c-1.6,6.6-2.1,7-2.1,7"/>
			
				<linearGradient id="SVGID_1_" gradientUnits="userSpaceOnUse" x1="322.4373" y1="52.2796" x2="242.5481" y2="-82.3087" gradientTransform="matrix(-0.9646 -0.2638 -0.2638 0.9646 671.1458 245.4686)">
				<stop  offset="0.2743" style="stop-color:#D9BAA6"/>
				<stop  offset="0.4346" style="stop-color:#DEC3B1"/>
				<stop  offset="0.716" style="stop-color:#EDDACE"/>
				<stop  offset="1" style="stop-color:#FFF7F2"/>
			</linearGradient>
			<path class="st219" d="M438.2,153.7c-0.5-0.9-0.6-1.8-2.4-4.6c1.9,3.6-24.6,27.8-27.2,31.2c-0.5,0.7-12-20.2-12-20.2
				c-14.9,0-14.9,0-11.2,0.2c3.8,0.2,8.3,13.7,9.3,21.3c0.5,3.7-4.8,4-6.1,3.9c-6.5-0.4-12.2-10.8-14-13.5
				c-2.1-3.1-6.8-10.6-9.3-16.3c-5.1-11.7-7.5-12.1,0.8-24.8c1.6-2.5,7.2-11.1,6.8-11.2c-4.3-1.2-6.3,2.4-6.9,3.2
				c-0.8,1.2-6,11.5-7.2,13.8c-0.9,1.8-2.3,3.5-2.8,5.7c-0.1,0.2-0.1,0.6-0.2,1.2c0,0.1,0,0.1,0,0.2v0l0,0c0,0.4,0,0.8,0.1,1.2
				c0,0,0,0,0,0.1c0,0.2,0.1,0.4,0.1,0.6c0,0,0,0.1,0,0.1c0,0.2,0.1,0.4,0.1,0.6c0,0.1,0,0.2,0.1,0.3c0,0,0,0.1,0,0.1
				c0,0.1,0,0.2,0.1,0.3c0,0,0,0,0,0.1c0,0.1,0.1,0.2,0.1,0.4c0,0.1,0,0.1,0,0.2c0,0.1,0,0.2,0.1,0.2c0,0.1,0,0.1,0,0.2
				c0,0.1,0.1,0.3,0.1,0.4c0,0.1,0,0.2,0.1,0.3c1.1,5.4,3.3,17.8,5.3,28.3c0,0,0,0,0,0c0.6,3.1,1.1,6,1.6,8.6c0,0.1,0,0.1,0,0.2
				c0,0.2,0.1,0.3,0.1,0.5c0,0,0,0.1,0,0.1c0.1,0.3,0.1,0.5,0.2,0.8c0,0.1,0,0.2,0,0.2c0,0.1,0,0.2,0.1,0.3c0,0.1,0,0.2,0.1,0.3
				c0,0.1,0,0.2,0.1,0.3c0,0.1,0,0.2,0.1,0.3c0,0.1,0,0.2,0,0.2c0,0.2,0.1,0.4,0.1,0.5c0,0.1,0,0.1,0,0.2c0,0.1,0.1,0.2,0.1,0.4
				c0,0.1,0,0.1,0,0.2c0,0.1,0.1,0.2,0.1,0.4c0,0,0,0.1,0,0.1c0,0.2,0.1,0.3,0.1,0.5c0,0,0,0.1,0,0.1c0,0.1,0.1,0.2,0.1,0.4
				c0,0,0,0.1,0,0.1c0,0.1,0.1,0.2,0.1,0.3c0,0,0,0.1,0,0.1c0,0.1,0.1,0.3,0.1,0.4c0,0,0,0,0,0c0,0.1,0.1,0.2,0.1,0.3
				c0,0,0,0.1,0,0.1c0,0.1,0,0.2,0.1,0.2c0,0,0,0.1,0,0.1c0,0.1,0,0.2,0.1,0.3c0.1,0.2,0.1,0.4,0.2,0.6c0,0.1,0,0.1,0.1,0.2
				c0,0.1,0.1,0.3,0.1,0.4c0,0.1,0.1,0.1,0.1,0.2c0,0.1,0.1,0.2,0.1,0.4c0,0.1,0.1,0.2,0.1,0.2c0,0.1,0.1,0.2,0.1,0.4
				c0,0.1,0.1,0.2,0.1,0.2c0.1,0.1,0.1,0.2,0.2,0.4c0,0.1,0.1,0.2,0.1,0.3c0.1,0.1,0.1,0.2,0.2,0.4c0,0.1,0.1,0.2,0.1,0.2
				c0.1,0.1,0.1,0.2,0.2,0.4c0,0.1,0.1,0.2,0.1,0.2c0.1,0.1,0.1,0.3,0.2,0.4c0,0.1,0.1,0.1,0.1,0.2c0.1,0.1,0.1,0.3,0.2,0.4
				c0,0.1,0.1,0.1,0.1,0.2c0.1,0.1,0.2,0.3,0.2,0.4c0,0.1,0.1,0.1,0.1,0.2c0.1,0.2,0.2,0.3,0.3,0.5c0,0,0,0,0,0.1
				c0.5,0.8,2,13.1,2.5,13.9c0,0,0,0,0,0c0.1,0.2,0.2,0.4,0.3,0.5c0,0,0,0,0,0c1.6,2.4,2.9,4.2,2.9,4.2l39.1-3.8
				c0.5-0.8,0.5-14.1,2.7-17.5C422.4,188.2,439.8,156.7,438.2,153.7z"/>
			<g>
				<g class="st220">
					
						<linearGradient id="SVGID_2_" gradientUnits="userSpaceOnUse" x1="732.5743" y1="-39.5501" x2="732.6012" y2="-39.5501" gradientTransform="matrix(0.9646 0.2638 -0.2638 0.9646 -338.6902 -30.7165)">
						<stop  offset="0.2743" style="stop-color:#D9BAA6"/>
						<stop  offset="0.4346" style="stop-color:#DEC3B1"/>
						<stop  offset="0.716" style="stop-color:#EDDACE"/>
						<stop  offset="1" style="stop-color:#FFF7F2"/>
					</linearGradient>
					<path class="st221" d="M378.4,124.4L378.4,124.4C378.4,124.4,378.4,124.4,378.4,124.4z"/>
				</g>
				<path class="st217" d="M413.7,215.2l-0.3,0C412.6,216.6,413.7,215.2,413.7,215.2z"/>
			</g>
			<polyline class="st218" points="391,143.7 411.5,183.8 403.8,187.8 382.5,146 			"/>
			
				<ellipse transform="matrix(0.8273 -0.5617 0.5617 0.8273 -33.9652 261.0544)" class="st222" cx="407.7" cy="185.8" rx="4.6" ry="3.5"/>
			<polygon class="st223" points="357.8,90.6 360.1,89.5 357.1,86.2 			"/>
			<path class="st217" d="M413.5,215.2l0.3,0C413.7,215.2,412.6,216.6,413.5,215.2z"/>
			<path class="st224" d="M359.1,87.9l7.6,8.2c0,0,0,0-0.1,0c-3.1-0.8-6.4,1.4-7.4,4.4l-2-11.6c0,0,0-0.5,0.6-0.9
				C358.5,87.8,359.1,87.9,359.1,87.9z"/>
			<path class="st225" d="M365.4,96c-1.1,0-2.1,0.3-3.1,0.8l-4.4-8.7c0.2-0.1,0.5-0.2,0.7-0.2L365.4,96z"/>
			<path class="st226" d="M366.6,96.2c-3.1-0.8-6.4,1.4-7.4,4.4"/>
		</g>
		<polygon class="st228" points="423.8,233.9 364.5,235.9 362.9,216.4 424.5,213.1 		"/>
		<polygon class="st229" points="423.8,233.9 364.5,235.9 373.1,221.4 424.5,213.1 		"/>
		<polygon class="st230" points="433.4,292.3 430.8,228.7 356.4,232.2 359,292.3 		"/>
		<polygon class="st231" points="397.9,230.2 402.6,292.3 433.4,292.3 430.8,228.7 		"/>
	</g>
</g>
</svg>
