<?xml version="1.0" encoding="utf-8"?>
<!-- Generator: Adobe Illustrator 21.0.0, SVG Export Plug-In . SVG Version: 6.00 Build 0)  -->
<svg version="1.1" id="Layer_1" xmlns="http://www.w3.org/2000/svg" xmlns:xlink="http://www.w3.org/1999/xlink" x="0px" y="0px"
	 viewBox="0 0 768 300" style="enable-background:new 0 0 768 300;" xml:space="preserve">
<style type="text/css">
	.st0{fill:#E6E7E8;}
	.st1{fill:#242333;}
	.st2{fill:#FFB888;}
	.st3{fill:#150C0F;}
	.st4{fill:#FFC197;}
	.st5{fill:#E6E6FF;}
	.st6{fill:#335572;}
	.st7{fill:#1B1D23;}
	.st8{fill:#6A402E;}
	.st9{fill:#454563;}
	.st10{fill:#598253;}
	.st11{fill:#D3A192;}
	.st12{fill:#DDB2A2;}
	.st13{fill:#51915E;}
	.st14{fill:#5E8658;}
	.st15{fill:#364163;}
	.st16{fill:#202C52;}
	.st17{fill:#688D63;}
	.st18{fill:#121119;}
	.st19{fill:#FFE7D7;}
	.st20{fill:#7DAD86;}
	.st21{fill:#1D3322;}
	.st22{fill:#0C2412;}
	.st23{fill:#C18B87;}
	.st24{fill:#7D9E79;}
	.st25{fill:#35756C;}
	.st26{fill:#4B807A;}
	.st27{fill:#3A1A39;}
	.st28{fill:#F7CDAF;}
	.st29{fill:#BF8D84;}
	.st30{fill:#796F89;}
	.st31{fill:#100D14;}
	.st32{fill:#564966;}
	.st33{fill:#625475;}
	.st34{fill:#695C7C;}
	.st35{fill:#2B082A;}
	.st36{fill:#DCFFF3;}
	.st37{fill:#F4B990;}
	.st38{fill:#432342;}
	.st39{fill:#F3CFC1;}
	.st40{fill:#F7CAAB;}
	.st41{fill:#873A00;}
	.st42{fill:#D3F6EA;}
	.st43{fill:#6B5569;}
	.st44{fill:#745F72;}
	.st45{fill:#F2AD86;}
	.st46{fill:#918397;}
	.st47{fill:#C4F3E3;}
	.st48{fill:#7D697B;}
	.st49{fill:#837081;}
	.st50{fill:#6D566A;}
	.st51{fill:#927AA9;}
	.st52{fill:#E2F9F1;}
	.st53{fill:#5C3113;}
	.st54{enable-background:new    ;}
	.st55{fill:#54BDBF;}
	.st56{fill:#740B03;}
	.st57{fill:#94EDEA;}
	.st58{fill:#77D8D8;}
	.st59{fill:#68598E;}
	.st60{fill:#FFCBA1;}
	.st61{fill:#EABA24;}
	.st62{fill:#DEC3F4;}
	.st63{fill:#E8D5F7;}
	.st64{fill:#5E4E87;}
	.st65{fill:#F8F2FD;}
	.st66{fill:#25154A;}
	.st67{fill:#322355;}
	.st68{fill:#40355C;}
	.st69{fill:#756798;}
	.st70{fill:#7B6E9D;}
	.st71{fill:#428F65;}
	.st72{fill:#C0F0FF;}
	.st73{fill:#4B956C;}
	.st74{fill:#469168;}
	.st75{fill:#257749;}
	.st76{fill:#365042;}
	.st77{fill:#3D5648;}
	.st78{fill:#223F2F;}
	.st79{fill:#6AA785;}
	.st80{fill:#D9F6FF;}
	.st81{fill:#4A6254;}
	.st82{fill:#2F4B3C;}
	.st83{fill:#FFC6A9;}
	.st84{fill:#FFDBC9;}
	.st85{fill:#27362D;}
	.st86{fill:#100B0F;}
	.st87{fill:#FFD0B0;}
	.st88{fill:#5D6862;}
	.st89{fill:#C0EDED;}
	.st90{fill:#A0E4E4;}
	.st91{fill:#D7F7FF;}
	.st92{fill:#707BA1;}
	.st93{fill:#6A759D;}
	.st94{fill:#606C96;}
	.st95{fill:#7D87A9;}
	.st96{fill:#45455C;}
	.st97{fill:#3C4357;}
	.st98{fill:#47475D;}
	.st99{fill:#FFCEB5;}
	.st100{fill:#42495C;}
	.st101{fill:#FFDBC8;}
	.st102{fill:#636F99;}
	.st103{fill:#8D95B4;}
	.st104{fill:#CFE8E5;}
	.st105{fill:#F5F6F7;}
	.st106{fill:#FFBF94;}
	.st107{fill:#521C59;}
	.st108{fill:#DFB0A1;}
	.st109{fill:#D69985;}
	.st110{fill:#411249;}
	.st111{fill:#F2BF9C;}
	.st112{fill:#FFE394;}
	.st113{fill:#56205D;}
	.st114{fill:#683870;}
	.st115{fill:#F6D3BB;}
	.st116{fill:#A32914;}
	.st117{fill:#E6FFFC;}
	.st118{fill:#772F2F;}
	.st119{fill:#E8DFDF;}
	.st120{fill:#722828;}
	.st121{fill:#6C6F7A;}
	.st122{fill:#350000;}
	.st123{fill:#593126;}
	.st124{fill:#230000;}
	.st125{fill:#5D81A6;}
	.st126{fill:#34537C;}
	.st127{fill:#EFB68F;}
	.st128{fill:#2A4B6B;}
	.st129{fill:#C7D6E2;}
	.st130{fill:#F3F3F3;}
	.st131{fill:#99C9D6;}
	.st132{fill:#475B73;}
	.st133{fill:#32517A;}
	.st134{fill:#536D90;}
	.st135{fill:#526F9B;}
	.st136{fill:#0F0F11;}
	.st137{fill:#5C8D8B;}
	.st138{fill:#385473;}
	.st139{fill:#AFE3EF;}
	.st140{fill:#7D4534;}
	.st141{fill:#F2AF81;}
	.st142{fill:#BA3900;}
	.st143{fill:#3E5C82;}
	.st144{fill:#3D0606;}
	.st145{fill:#2D0000;}
	.st146{fill:#6A83A9;}
	.st147{fill:#101319;}
	.st148{fill:#151A21;}
	.st149{fill:#4B668A;}
	.st150{fill:#B0E3FF;}
	.st151{fill:#A50C00;}
	.st152{fill:#25601E;}
	.st153{fill:#245E1E;}
	.st154{fill:#C7EEFF;}
	.st155{fill:#F9B28F;}
	.st156{fill:#9FC3CF;}
	.st157{fill:#608F9E;}
	.st158{fill:#E9FFFD;}
	.st159{fill:#F8FFFF;}
	.st160{fill:#FFFFFF;}
	.st161{fill:#421000;}
	.st162{fill:#D1D7E5;}
	.st163{fill:#EAEDF4;}
	.st164{fill:#F3F6FF;}
	.st165{fill:#E2EDED;}
	.st166{fill:#232877;}
	.st167{fill:#E83A28;}
	.st168{fill:#FF7364;}
	.st169{fill:#DCF5F9;}
	.st170{fill:#FF5027;}
	.st171{fill:#232865;}
	.st172{fill:#7A4039;}
	.st173{fill:#232835;}
	.st174{fill:#141926;}
	.st175{fill:#263349;}
	.st176{fill:#30242E;}
	.st177{fill:#EAE4DF;}
	.st178{fill:#22474D;}
	.st179{fill:#316D63;}
	.st180{fill:#49737A;}
	.st181{fill:#151515;}
	.st182{fill:#E9B7A0;}
	.st183{fill:#FBCCBA;}
	.st184{fill:#2F353F;}
	.st185{fill:#290E3A;}
	.st186{fill:#4B3B54;}
	.st187{fill:#BAC6DB;}
	.st188{fill:#3E221A;}
	.st189{fill:#66668A;}
	.st190{fill:#000103;}
	.st191{fill:#3F3E83;}
	.st192{fill:#CED1E0;}
	.st193{fill:#DDDFEC;}
	.st194{fill:#540D0D;}
	.st195{fill:#3D3C82;}
	.st196{fill:#291B1D;}
	.st197{fill:#FFAF78;}
	.st198{fill:#FFDED4;}
	.st199{fill:#F4D2AB;}
	.st200{fill:#300600;}
	.st201{fill:#EFD7B9;}
	.st202{fill:#222327;}
	.st203{fill:#2E0000;}
	.st204{fill:#4F2C22;}
	.st205{fill:#3D0B0B;}
	.st206{fill:#440C0C;}
	.st207{fill:#425E4E;}
	.st208{fill:#EFE8DF;}
	.st209{fill:#3E3E3E;}
	.st210{fill:#05162D;}
	.st211{fill:#2A2A2C;}
	.st212{fill:#B6B19E;}
	.st213{fill:#8DA9B0;}
	.st214{fill:#5F665F;}
	.st215{fill:#BF897B;}
	.st216{fill:#AD7866;}
	.st217{fill:#FFCAB3;}
	.st218{fill:#2C57A5;}
	.st219{opacity:0.14;fill:url(#SVGID_1_);}
	.st220{opacity:0.5;}
	.st221{fill:url(#SVGID_2_);}
	.st222{fill:#306CC4;}
	.st223{fill:#5D5D5D;}
	.st224{fill:#C2C8D3;}
	.st225{opacity:0.3;fill:#C2C8D3;}
	.st226{fill:none;stroke:#FFFFFF;stroke-width:1.584;stroke-linecap:square;stroke-miterlimit:10;}
	.st227{fill:url(#SVGID_3_);}
	.st228{fill:#F2F2F2;}
	.st229{fill:#E6E6E6;}
	.st230{fill:#4D4D4D;}
	.st231{fill:#666666;}
</style>
<rect class="st0" width="768" height="300"/>
<g>
	<g>
		<g>
			<path class="st1" d="M328.3,55c0,0,3-1.9,3.7-0.1c0.7,1.8,1.1,7.6,1.1,7.6s0.7-0.8,2,1.2c1.4,2,9.9,23.2,9.9,23.2l-13.1-15
				L328.3,55z"/>
		</g>
		<g>
			<g>
				<polygon class="st2" points="321,35.1 317.3,44.1 330.5,55.7 333.5,41.2 				"/>
			</g>
			<g>
				<path class="st3" d="M339.4,23.3c0,0,2.6-2.7,0.3-5.4c-2.3-2.7-9.5-6.8-17.6-2.7c-8.1,4.1-8.8,5.3-9.2,11.9
					c-0.4,6.6,5.1,10.2,5.1,12.1s0,3.3,0,3.3s10.2-7.6,10.4-8C328.7,34,339.4,23.3,339.4,23.3z"/>
			</g>
			<g>
				<path class="st4" d="M333,16.8c0,0,6.5,2.4,7.7,6.7c1.2,4.3,1.5,6.1,1.5,6.1l-0.7,1.8l3.7,4.9l-1.6,1.4c0,0,0.3,2.6-0.1,2.8
					c-0.4,0.3-2.6,0-2.6,0l2,0.8c0,0-1.4,2.2-0.5,3c0.8,0.8,2.2,4.2-0.4,4.2c-2.6,0-8.5-1.1-8.5-1.1l-6-6.9c0,0-0.1-1.5-2.2-2.4
					c-2-0.9-4.6-8.3-3-9.1c1.6-0.8,6.1,3.9,6.1,3.9s-1.8-12,1-13.7C332.3,17.3,333,16.8,333,16.8z"/>
			</g>
			<g>
				<path class="st3" d="M339.4,23.3c0,0,2.6-2.7,0.3-5.4c-2.3-2.7-9.5-6.8-17.6-2.7c-8.1,4.1-8.8,5.3-9.2,11.9
					c-0.4,6.6,5.1,10.2,5.1,12.1s0,3.3,0,3.3s10.2-7.6,10.4-8C328.7,34,339.4,23.3,339.4,23.3z"/>
			</g>
			<g>
				<path class="st4" d="M333,16.8c0,0,6.5,2.4,7.7,6.7c1.2,4.3,1.5,6.1,1.5,6.1l-0.7,1.8l3.7,4.9l-1.6,1.4c0,0,0.3,2.6-0.1,2.8
					c-0.4,0.3-2.6,0-2.6,0l2,0.8c0,0-1.4,2.2-0.5,3c0.8,0.8,2.2,4.2-0.4,4.2c-2.6,0-8.5-1.1-8.5-1.1l-6-6.9c0,0-0.1-1.5-2.2-2.4
					c-2-0.9-4.6-8.3-3-9.1c1.6-0.8,6.1,3.9,6.1,3.9s-1.8-12,1-13.7C332.3,17.3,333,16.8,333,16.8z"/>
			</g>
		</g>
		<g>
			<path class="st5" d="M331.8,52.6c0,0-10.6-4.9-11.1-6.1c-0.5-1.2-3.4-3.3-3.4-3.3l-1.2,3.7l7.9,7.2l5.1,4.6l2.8-5.6L331.8,52.6z"
				/>
		</g>
		<g>
			<g>
				<g>
					<path class="st6" d="M350.3,267c0,0-2.7,8.1-1.9,10.7c0.7,2.7,7.5,2.9,7.9,2.2c0.4-0.7,1.5-11.9,1.5-11.9L350.3,267z"/>
				</g>
				<g>
					<g>
						<path class="st7" d="M363.2,286.5c-2.8,0.1-6-1.3-6.3-1.3c-0.3,0-2.7-0.8-4.8-0.5c-1.5,0.3-3.8-0.1-5-0.4
							c0.2,1.5,0.4,2.9,0.7,3c0.6,0.2,7.4-0.3,9.1,0.2c1.8,0.4,5.3,1.8,7.4,1.5c2.1-0.3,16.3-1.2,16.3-1.2s0.1-1.5,0.1-2.7
							C376.8,285.5,365.5,286.4,363.2,286.5z"/>
					</g>
					<g>
						<path class="st8" d="M352.1,284.7c2.1-0.4,4.4,0.5,4.8,0.5c0.3,0,3.6,1.4,6.3,1.3c2.3-0.1,13.7-1,17.5-1.3
							c0-0.6,0-1.2-0.1-1.4c-0.2-0.6-8.8-3.4-10-4.3c-1.2-0.9-8.4-9.9-8.4-9.9l-4.8,0.7c0,0-7,7.6-7.3,7.2c-0.4-0.3-1.6-5-1.6-5
							s-2,5.8-1.9,7.4c0.1,0.8,0.2,2.7,0.4,4.4C348.3,284.7,350.6,285,352.1,284.7z"/>
					</g>
				</g>
				<g>
					<path class="st9" d="M317.9,263c0,0-1.4,16.5,0,16.8c1.4,0.3,7.9,0.5,7.9,0.5l5.1-17.9L317.9,263z"/>
				</g>
				<g>
					<g>
						<path class="st7" d="M331.9,286.5c-2.8,0.1-6-1.3-6.3-1.3c-0.3,0-2.7-0.8-4.8-0.5c-1.5,0.3-3.8-0.1-5-0.4
							c0.2,1.5,0.4,2.9,0.7,3c0.6,0.2,7.4-0.3,9.1,0.2s5.3,1.8,7.4,1.5c2.1-0.3,16.3-1.2,16.3-1.2s0.1-1.5,0.1-2.7
							C345.6,285.5,334.2,286.4,331.9,286.5z"/>
					</g>
					<g>
						<path class="st8" d="M320.8,284.7c2.1-0.4,4.4,0.5,4.8,0.5c0.3,0,3.6,1.4,6.3,1.3c2.3-0.1,13.7-1,17.5-1.3
							c0-0.6,0-1.2-0.1-1.4c-0.2-0.6-8.8-3.4-10-4.3c-1.2-0.9-8.4-9.9-8.4-9.9l-4.8,0.7c0,0-7,7.6-7.3,7.2c-0.4-0.3-1.6-5-1.6-5
							s-2,5.8-1.9,7.4c0.1,0.8,0.2,2.7,0.4,4.4C317.1,284.7,319.3,285,320.8,284.7z"/>
					</g>
				</g>
			</g>
			<g>
				<g>
					<path class="st10" d="M427.4,61.4c0,0-0.1,0.1-0.4,0.4c-0.8,0.8-2.9,2.8-4.7,5.9c-2.4,4.1-24.4,29.2-24.4,29.2l0.6,6l7,4.3
						c0,0,23.8-20,25-27.2L427.4,61.4z"/>
				</g>
				<g>
					<g>
						<path class="st11" d="M430.3,45.4c0,0,2.2,8,2,8.9c-0.2,0.9-0.4,6.7-0.4,6.7l16.1-11.4l-2.2-8.1l-1.4-13.3L430.3,45.4z"/>
					</g>
					<g>
						<path class="st3" d="M424.1,22.8l-1.3-0.2c0,0-5.2-5-0.1-7.5c5.1-2.5,14.5-6.1,20.4-3c5.9,3,8.2,5.3,8.1,10.7
							c0,5.5-3.2,13.6-1.9,14.3c1.3,0.8,2.7,2.8,2.7,2.8s-3.2,0.8-4.1,0.2c-0.9-0.6-7.8-4-8.6-6.4C438.5,31.4,424.1,22.8,424.1,22.8
							z"/>
					</g>
					<g>
						<path class="st12" d="M423.1,20.2c0,0-1.9,1-2.5,4.1s-2.9,6.1-1.2,6.7c1.7,0.6,0.5,0.9,0.5,0.9s-3.6,6.3-2.7,6.5
							c0.9,0.2,3.1,1,3.1,1s-0.5,2.8,0.6,3c1,0.2,1,0.2,1,0.2s-1.7,1.1-1.2,1.3c0.5,0.2,0.8,2.5,0.8,2.5s-0.8,3.2,0.6,3.6
							c1.4,0.4,14-4,15.4-7.5s2.3-6.2,2.3-6.2l2.7-1.2c0,0,2.1-3.7,1.9-5.2c-0.2-1.5-1.1-4.3-2.7-3.8c-1.6,0.5-3.7,2.3-3.7,2.3
							s-5.6-8.8-8.8-9.6C426.1,18.1,423.1,20.2,423.1,20.2z"/>
					</g>
				</g>
				<g>
					<path class="st13" d="M437.3,52.8c0,0-6.8,2.5-8,6.3c-1.2,3.8-3.7,9.5-4.8,13.4c-1.1,3.9-7.9,37.4,3.4,29s19-42.7,19.2-43.6
						C447.3,57.1,437.3,52.8,437.3,52.8z"/>
				</g>
				<g>
					<g>
						<rect x="423" y="259.7" class="st11" width="8.9" height="13.9"/>
					</g>
					<g>
						<g>
							<path class="st14" d="M447.7,169.2c0,0-0.1,0.3-0.2,0.8c-1.6,5.4-11,36.3-12.2,42.5c-1.3,6.8,0.1,19.2,0.1,29.2
								c0,10-0.5,24.8-0.5,24.8l-15.6-1.9c0,0-2-37.6-1.4-44.9c0.5-7.3-1.2-51.6,1.3-59.5c2.5-7.9,3.1-23.6,3.1-23.6l14,6.4
								L447.7,169.2z"/>
						</g>
						<g>
							<g>
								<path class="st15" d="M451.6,286.1c-3.1-0.1-9.1-0.8-12.8-1.2c0-0.1,0-0.1,0-0.2c-0.2-1.5,2.7-4,4.4-5.4
									c1.7-1.3,6.5-9.4,6.5-9.4l10.9,1.3c0,0,0,3.6,1.1,5.7c0.8,1.4,1.2,2.8,1.4,3.6c-1,0.3-2.4,0.9-4.3,2.2
									C454.9,285.5,456.2,286.3,451.6,286.1z"/>
							</g>
							<g>
								<path class="st16" d="M438.8,284.9c3.7,0.4,9.8,1.1,12.8,1.2c4.6,0.2,3.3-0.6,7.3-3.3c1.8-1.2,3.2-1.8,4.3-2.2
									c0.1,0.4,0.1,0.6,0.1,0.6l-1.3,4.6c0,0-4.8,1.5-6.7,2.7c-1.9,1.1-16.5-0.6-16.5-0.6S439,286.4,438.8,284.9z"/>
							</g>
						</g>
						<g>
							<path class="st17" d="M462.9,145.3c1.8,6.1,2.9,12.4,2.6,18.8c-0.6,13,0.4,23.8,1.1,32.7c0.8,9.9,5,18.9,3.3,37.3
								c-1.6,18.3-4.8,42.7-4.8,42.7l-20.4,0.2c0,0,10.4-40.8,5.9-59.5c-4.5-18.7-11.4-47.2-13.8-52.4c-2.3-5.2-1.1-23.5-1.1-23.5
								l23.3-8.5L462.9,145.3z"/>
						</g>
						<g>
							<g>
								<path class="st15" d="M422.4,276.1c-2.7,1.3-4.7,3.9-10.4,3.2c-2.7-0.4-4.9-0.9-6.4-1.3c0.1-0.6,0.1-1.3,0.2-2
									c0.2-2.5,6.3-3.4,8.2-4.8s5.4-7.7,5.4-7.7l5.2,0.4c0,0,2.3,3.6,5.2,4.8c2.9,1.1,1.9-3.8,1.9-3.8s1.1,5.7,2.1,8.1
									c0.2,0.4,0.3,0.8,0.3,1.2c-1.4,0.5-3.2,0.9-5.3,1C424.7,275.3,425.1,274.8,422.4,276.1z"/>
							</g>
							<g>
								<path class="st16" d="M411.9,279.3c5.7,0.8,7.8-1.8,10.4-3.2c2.7-1.3,2.3-0.8,6.3-1c2-0.1,3.9-0.6,5.3-1
									c0.2,1.9-0.7,3.5-0.7,3.5s-5.9,1-8.8,1c-2.9,0-4,2.9-9,3.1c-5,0.2-10.2-1.1-10.2-1.1s0.1-1.1,0.2-2.6
									C407,278.4,409.2,278.9,411.9,279.3z"/>
							</g>
						</g>
					</g>
				</g>
				<g>
					<g>
						<path class="st18" d="M381.2,102.9c0,0,1.5,7.4,4.2,7.5c0,0,0.1,0,0.1,0L382.7,96C380.5,96.1,381.3,102.2,381.2,102.9z"/>
					</g>
					<g>
						<path class="st1" d="M386.5,100.4c-0.8-2.2-1.7-4.5-3.8-4.4l2.8,14.4C388.1,110.3,387.3,102.6,386.5,100.4z"/>
					</g>
					<g>
						<g>
							<path class="st10" d="M402.2,93.9c-3.3-0.5-19.5,2.2-19.5,2.2c2.2-0.1,3.1,2.3,3.8,4.4c0.7,2.1,1.5,9.8-1,10l0,0.2
								c0,0,18.8-2.3,20-3.4c1.1-1.1,2.4-3.3,2.5-7.7S405.5,94.3,402.2,93.9z"/>
						</g>
					</g>
				</g>
				<g>
					<path class="st2" d="M367.6,102.2l5.3-4h10.8c0,0,4.7,3.7,4.5,4.9c-0.2,1.2-0.9,1.2-0.9,1.2s0.3,1.2,0.1,1.8
						c-0.3,0.5-1.2,1.1-1.2,1.1s0.1,1.2-1,1.6c-1.2,0.4-1.9,0-1.9,0s-1.1,0.9-2.2,1.2c-1.2,0.2-3.9-1.1-3.9-1.1s-1.4,1.7-3.4,1.4
						c-2-0.3-5.8-2.6-5.8-2.6L367.6,102.2z"/>
				</g>
				<g>
					<path class="st19" d="M383.3,98.3l-4.5-3.3l-4.7,2.4l-1.9,3.7c0,0,0.7,2,2.2,0.5c1.6-1.4,2.4-3.3,2.4-3.3H383.3L383.3,98.3z"/>
				</g>
				<g>
					<path class="st20" d="M432.8,53.9l3.2,5.6c0,0,9.8-14.1,12.8-15.2c3-1.1,0.3-2.4,0.3-2.4L432.8,53.9z"/>
				</g>
				<g>
					<path class="st20" d="M432.8,53.9L432,53l-4.5,7.8c0,0,0.2-0.1,0.4-0.3c1.2-0.9,4.6-3.5,4.8-4.2
						C433.1,55.4,432.8,53.9,432.8,53.9z"/>
				</g>
				<g>
					<path class="st21" d="M429.9,60.5h2.9c0,0,2.1-2.9,1.8-3.5c-0.4-0.6,0.2-4.2-1.8-3.1C430.8,55.1,429.9,60.5,429.9,60.5z"/>
				</g>
				<g>
					<path class="st22" d="M429.9,60.5c0,0-5.8,10.5-5.8,16.2l-2.8,18c0,0,9.1-27.8,9.7-29.7c0.6-2,1.8-4.5,1.8-4.5H429.9z"/>
				</g>
				<g>
					<path class="st14" d="M450.1,47.5c0,0,13.7,10.2,14.8,13.1c1.1,2.9-1.5,31.2-2.9,38.9c-1.4,7.7,5,33.9,5,40.1
						c0,6.2,0.5,15.5,0.5,15.5s-34.8,2-37.5,1.8c-2.7-0.2-8.1-8.1-8.1-8.1s-2-48.6-0.6-53.9c1.5-5.3,19.6-41,19.6-41L450.1,47.5z"/>
				</g>
				<g>
					<path class="st23" d="M461.2,153.6c0,0,1,3.4,0.8,6.6c-0.2,3.2-0.5,4.6-0.5,4.6s1.5-0.9,1.5-0.2s0.6,4.5-0.8,4.2
						c-1.4-0.3-1.4-0.3-1.4-0.3s-1,2.1-1.5,2.2c-0.6,0.1-2.4-0.2-2.4-0.2s0.9,1.1-0.9,1.2c-1.8,0.1-3.3-1.2-3.3-1.2l-2.6,0l-3.2-8.7
						l5.4-9.9L461.2,153.6z"/>
				</g>
				<g>
					<path class="st24" d="M455.3,58.9c0,0-4.3,0.5-5.1,8.8c-0.8,8.3,4.3,47.9,4.3,47.9l-4.5,38.1l13.2,3.8c0,0,10-40.1,9.4-47.6
						c-0.6-7.5-0.2-43.2-5.7-48.6C461.3,55.9,455.3,58.9,455.3,58.9z"/>
				</g>
				<g>
					<path class="st24" d="M453.6,48.4l-3.5-5.6c0,0-8.3,5.3-13.3,11.7s-15.6,40.2-15.6,40.2l20.7-37.2l-0.8-2.3L444,55L453.6,48.4z
						"/>
				</g>
				<g>
					<path class="st24" d="M426.2,62.6l4.2-3.9c0,0-4,9.5-5.4,15.4c-1.4,5.9-3.7,20.7-3.7,20.7S420.7,83.3,426.2,62.6z"/>
				</g>
			</g>
			<g>
				<path class="st25" d="M349.5,138.6l-19.7,1.5l-4.4,31l0.4,0.6l21.6,34.5c0,0-2.7,26.5-2.2,33.1c0.5,6.6,2.9,30.7,2.9,30.7
					s6.4,0.9,10.5,0.5c4.1-0.4,5.8-0.4,5.8-0.4l0.2-55.4c0.3-5-0.2-10-1.5-14.8L349.5,138.6z"/>
			</g>
			<g>
				<path class="st26" d="M337.2,134l-28.2,0.3c0,0-3.9,25.7-3.6,33.7c0.4,9.9,8.4,39,8.4,39s-2.7,26.3-2.2,32.9
					c0.5,6.6,5.4,30.2,5.4,30.2s6.4,0.9,10.5,0.5c4.1-0.4,5.7-1,5.7-1l-2.3-60.9L337.2,134z"/>
			</g>
			<g>
				<path class="st25" d="M313.9,50.3c0,0-8.7,5.3-9.3,23.6c-0.6,18.3,4.1,26.6,4.3,33.5c0.2,6.9-2.6,44.3-2.6,44.3s20.5,4.9,29.5,1
					c8.9-3.9,14.8-8.1,14.8-8.1s2.1-40.1-4.6-54.7C339.2,75.2,330.6,53.5,313.9,50.3z"/>
			</g>
			<g>
				<path class="st5" d="M366.4,99.9l4.7-1c0,0,1.8,6.1,0.8,7.7c-1,1.6-1.4,4.1-1.4,4.1l-4.5-1.2L366.4,99.9z"/>
			</g>
			<g>
				<path class="st26" d="M321.3,59.6c0,0-6.1-4.3-10.4-2.2c-4.3,2-12.2,15.2-0.4,31.1c11.8,15.9,16.1,18.3,19.5,18.5
					c3.5,0.2,37,6.5,37,6.5s3-5.5,2.6-8.7c-0.4-3.3-2-7.7-2-7.7l-26.4-3.3C341.2,93.8,331,68.2,321.3,59.6z"/>
			</g>
		</g>
		<g>
			<path class="st26" d="M345.9,89.9c0,0-8.4-19-11.1-23.3c-2.7-4.3-10.3-14.5-12.6-16.4c-2.3-1.9-7.5-3.3-7.5-3.3l-3.3,5.7
				c0,0,5.8-0.9,9.1,1.2c3.3,2.2,5.7,4.9,5.7,4.9l0.8-0.3l0.7,2.2c0,0,5.7,6.8,7.9,10.4L345.9,89.9z"/>
		</g>
	</g>
	<g>
		<g>
			<path class="st27" d="M526.3,21.5c0,0-10.6-4-16.2,4.6c-5.7,8.6-3.1,20-2.5,23.9c0.6,3.9-3.5,4.7-2.9,6.8
				c0.6,2.1,2.4,6.3,16.4,5.6c14-0.6,15.5-4.6,15.8-6.7c0.3-2.1-2.9-3.3-2.6-6.3C534.5,46.4,540.4,31.2,526.3,21.5z"/>
		</g>
		<g>
			<g>
				<path class="st28" d="M522,274.6c0,0.2,0.1,0.4,0.1,0.7c0.3,1.9-11.3,7.1-11.3,7.1l2.1-3.6c0,0-1.9-0.4-3.7-0.7l3-3.5
					c0,0,0-2.4-1-12c-0.5-5.2-6.8-27.7-7.6-31.3c-0.7-3.6,0.5-12.8-0.7-15.9c-1-2.7-0.8-13.7-0.7-16.7c0-0.5,0-0.7,0-0.7l15.2-0.7
					c1.7,12.8-0.5,21.4-0.5,21.4s3.7,9.2,4.5,18.8c0.9,10.2-0.7,24.7-0.7,27.6s0,4.5,1.1,8.3c0.1,0.4,0.2,0.9,0.3,1.3
					C522,274.6,522,274.6,522,274.6z"/>
			</g>
			<g>
				<path class="st29" d="M521.5,279.3c0,0-7.1,4.3-10.7,5.7c-3.6,1.4-5.9-1.9-5.9-1.9l4.4-5.1c1.8,0.3,3.7,0.7,3.7,0.7l-2.1,3.6
					c0,0,11.5-5.2,11.3-7.1c0-0.3-0.1-0.5-0.1-0.7c0,0,0.1,0,0.1,0.1C522.6,277.6,521.5,279.3,521.5,279.3z"/>
			</g>
			<g>
				<g>
					<path d="M510.4,287.9c-2.2-0.2-14.4,0.2-14.4,0.2s0-0.1,0.1-0.3c-0.2,0.2-0.3,0.5-0.2,0.6c0.2,0.3,0.2,0.4,2.8,0.6
						c2.5,0.2,11.8,0.1,12.3-0.2c0.2-0.1,0.5-0.5,0.8-1C511.4,288,511,288,510.4,287.9z"/>
				</g>
				<g>
					<path d="M523.5,283c-0.1,0.2-0.2,0.4-0.3,0.5c-1,1-6,1.2-8.2,1.9l0.1,1.4l8.7-0.6C523.8,286.3,523.8,284.4,523.5,283z"/>
				</g>
				<g>
					<path class="st30" d="M523.5,283c-0.1,0.2-0.2,0.4-0.3,0.5c-1,1-6,1.2-8.2,1.9c-0.2,0.1-0.3,0.1-0.5,0.2
						c-1.3,0.7-1.7,1.8-2.8,2.2c-0.4,0.1-0.8,0.2-1.3,0.1c-2.2-0.2-14.4,0.2-14.4,0.2s0-0.1,0.1-0.3c0.1-0.7,0.5-2.2,1.4-2.5
						c0,0,2.9-2.2,4.1-3.4c1.2-1.2,3.2-3.8,4.1-4.1c0.4-0.1,1.9,0.1,3.4,0.3c1.8,0.3,3.7,0.7,3.7,0.7l-2.1,3.6
						c0,0,11.5-5.2,11.3-7.1c0-0.3-0.1-0.5-0.1-0.7c0,0,0.1,0,0.1,0.1c0.4,0.3,0.9,1,1.1,2.7C523.5,279.6,524.1,281.7,523.5,283z"/>
				</g>
			</g>
		</g>
		<g>
			<g>
				<path class="st28" d="M524.2,190.4c0,0,5.1,13.3,5.9,18.9c0.8,5.6,1.9,8.4,3.2,11.4c1.3,3,1.5,16.9,3.3,20.7
					c1.7,3.8,8.5,21.7,8.2,24.5c-0.3,2.9-0.2,1.8-0.1,3.3c0.2,1.4,1,2.3,0.5,4.8c-0.4,1.7,0.6,5.6,1.7,6.7c1.1,1.1,8.9-0.8,8.9-0.8
					s-4-7.8-3.5-9.1c0.5-1.3-0.7-1.9-0.8-2.3c-0.5-2.1,1.1-22.1-2.1-41.8c-1.2-7-3.5-14-3.5-14l-7.3-26.6l-14,4.1L524.2,190.4z"/>
			</g>
			<g>
				<g>
					<path class="st31" d="M559.4,285.4c-1.6,2-5.4,2.7-7,2.6c-1.7-0.2-5.5-0.2-6.1-1.3c-0.1-0.2-0.2-0.4-0.2-0.6
						c-0.2,0.7-0.4,1.5-0.1,1.6c0.6,0.2,4.9,1.7,6.9,1.4c2-0.2,7.1-1.4,6.8-2.5C559.6,286.1,559.5,285.8,559.4,285.4z"/>
				</g>
				<g>
					<path class="st30" d="M552.4,288c1.6,0.2,5.4-0.6,7-2.6c0,0,0,0,0,0c0.9-1.2-2.1-6-2.1-6s-5.4-3.5-7.3-4
						c-1.9-0.5-2.4,0.2-4.3,1.9c-1.9,1.7,0,4.4,0,4.4l0.3,0.9c0,0-0.3,2.1-0.1,3.4c0.1,0.2,0.1,0.5,0.2,0.6
						C546.9,287.8,550.6,287.8,552.4,288z"/>
				</g>
			</g>
		</g>
		<g>
			<path class="st32" d="M509.3,126.3c0,0-9.8,4.5-10.9,13.3c-1.2,8.8,0,68.3,0,68.3s16,1.7,23.8,1.4c7.8-0.2,25.4-1.9,25.4-1.9
				l-3.7-70C543.8,137.5,534.8,117.3,509.3,126.3z"/>
		</g>
		<g>
			<path class="st33" d="M533,61.2l15.5,6.4L543.3,90c0,0-4.7,12.9-4,20.1c0.6,7.1,3.8,13.7,4.2,16.8c0.4,3.1,1.2,12.3,1.2,12.3
				l-23.6-0.7l-1.8-36c0,0,9.6-25.9,10.2-29C530.1,70.3,533,61.2,533,61.2z"/>
		</g>
		<g>
			<path class="st34" d="M509.3,61.2l-15.5,6.4L499,90c0,0,4.7,12.9,4,20.1c-0.6,7.1-3.8,13.7-4.2,16.8c-0.4,3.1-1.2,12.3-1.2,12.3
				l23.6-0.7l1.8-36c0,0-9.6-25.9-10.2-29C512.2,70.3,509.3,61.2,509.3,61.2z"/>
		</g>
		<g>
			<circle class="st35" cx="520.6" cy="103.2" r="1.2"/>
		</g>
		<g>
			<circle class="st35" cx="520.7" cy="115.5" r="1.2"/>
		</g>
		<g>
			<g>
				<path class="st36" d="M521.1,66.6c-2.6,0-5.3-0.1-7.9-0.2c1.5,6.6,5.2,19.9,7.6,28.5c0.1-0.3,0.2-0.6,0.2-0.9V66.6z"/>
			</g>
			<g>
				<path class="st37" d="M513.2,66.4c2.6,0.1,5.3,0.2,7.9,0.2V47.5l-6.3-1.6c0,0,0.5,10.3-1.1,13.3c-0.3,0.5-0.7,1-1.3,1.5
					c0,0.7,0.1,1.7,0.3,2.8C512.7,64.2,512.9,65.2,513.2,66.4z"/>
			</g>
			<g>
				<path class="st37" d="M528.5,66.4c0.3-1.4,0.6-2.5,0.7-3.2c0.2-1.2,0.3-2.1,0.3-2.9c-0.4-0.4-0.7-0.8-0.9-1.2
					c-1.6-3-1.1-13.3-1.1-13.3l-6.3,1.6v19.2C523.5,66.6,526,66.6,528.5,66.4z"/>
			</g>
			<g>
				<path class="st36" d="M528.5,66.4c-2.5,0.1-4.9,0.2-7.4,0.2V94C523.4,85.6,526.9,73,528.5,66.4z"/>
			</g>
			<g>
				<path class="st38" d="M521.1,94c-0.1,0.3-0.2,0.6-0.2,0.9c0.1,0.3,0.2,0.6,0.2,0.9V94z"/>
			</g>
			<path class="st30" d="M532.4,68.2l3.6-0.3l-0.3-1.9l-0.3-2l-0.3-2.2c0,0-4.8-3.2-5.1-4.4c-0.3-1.3-1.9,0.2-1.9,0.2
				s1.4-0.4,1.4,2.9c0,0.8-0.1,1.7-0.3,2.9c-0.1,0.7-0.4,1.8-0.7,3.2c-1.5,6.5-5,19.2-7.4,27.6v1.7c0.3,1,0.5,1.8,0.8,2.6
				c0.1,0.2,0.1,0.4,0.2,0.6c2-2.3,4.5-5.4,6.3-9c3.4-6.8,7.7-19.4,7.7-19.4l-0.5-0.3L532.4,68.2z"/>
			<path class="st30" d="M522,99c-0.1-0.2-0.1-0.4-0.2-0.6c-0.2-0.8-0.5-1.7-0.8-2.6c-0.1-0.3-0.2-0.6-0.2-0.9
				c-2.4-8.6-6.1-21.9-7.6-28.5c-0.3-1.2-0.5-2.2-0.6-2.9c-0.2-1.2-0.3-2.1-0.3-2.8c0-3.3,1.4-2.9,1.4-2.9s-1.6-1.4-1.9-0.2
				c-0.3,1.3-5.1,4.4-5.1,4.4l-0.3,2.1l-0.3,1.8l-0.4,2.3l3.6,0.3l-2.6,1.8l-0.9,0.6c0,0,4.3,12.5,7.7,19.4c1.7,3.5,4.2,6.6,6.2,8.8
				c0.4,0.4,0.8,0.8,1.1,1.2c1.4,1.5,2.3,2.3,2.3,2.3S522.6,101.3,522,99z"/>
		</g>
		<g>
			<g>
				<path class="st39" d="M547.5,154l-2.6,5l-1.2,8.6l0.6,4.5c0,0,1.7-0.6,1.8-1.9c0.1-1.3,0.2-3.4,0.2-3.4l1.2-3l0.2,4.6l-1.3,3.3
					l-1.9,2c0,0-2.3,1.4-2.5,2.4c-0.2,1,0,1.5,0,1.5l1.5-0.8c0,0,0.1,1.2,0.7,1.2c0.6,0,6.2-3.7,6.2-3.7l0.6-1c0,0,0.4-0.1,1.1-0.8
					c0.7-0.7,0.7-0.7,0.7-0.7l2-5.8l-1-13L547.5,154z"/>
			</g>
			<g>
				<path class="st30" d="M548.3,67.6c1.9-0.2,2.7,7.1,2.9,13.4c0.1,6.3,2.1,30.6,3.7,35.6c1.5,5-0.1,32,0,35.5
					c0.1,3.5,0.5,5.5,0.5,5.5l-9.6-2.3c0,0-1.1-25.7-2.1-29.7c-1.1-4,0.2-12.8,0.2-12.8L541.3,96C541.3,96,545,67.9,548.3,67.6z"/>
			</g>
		</g>
		<g>
			<g>
				<path class="st39" d="M493.6,154l2.6,5l1.2,8.6l-0.6,4.5c0,0-1.7-0.6-1.8-1.9c-0.1-1.3-0.2-3.4-0.2-3.4l-1.2-3l-0.2,4.6l1.3,3.3
					l1.9,2c0,0,2.3,1.4,2.5,2.4c0.2,1,0,1.5,0,1.5l-1.5-0.8c0,0-0.1,1.2-0.7,1.2s-6.2-3.7-6.2-3.7l-0.6-1c0,0-0.4-0.1-1.1-0.8
					c-0.7-0.7-0.7-0.7-0.7-0.7l-2-5.8l1-13L493.6,154z"/>
			</g>
			<g>
				<path class="st30" d="M493.4,66.9c-1.9-0.2-2.7,7.1-2.9,13.4c-0.1,6.3-2.1,30.6-3.7,35.6c-1.5,5,0.1,32,0,35.5
					c-0.1,3.4-0.5,5.5-0.5,5.5l9.6-2.3c0,0,1.1-25.7,2.1-29.7c1.1-4-0.2-12.8-0.2-12.8l2.5-16.7C500.5,95.2,496.8,67.2,493.4,66.9z"
					/>
			</g>
		</g>
		<g>
			<g>
				<path class="st40" d="M532.8,34c0,6.5-2.2,18.7-11.3,18.7c-11,0-12.2-12.2-12.2-18.7c0-6.5,5.3-11.7,11.7-11.7
					C527.5,22.2,532.8,27.5,532.8,34z"/>
			</g>
			<g>
				<g>
					<path class="st40" d="M530,38.6l2.7,4.9c1.3,0.5,1.4-4.6,1.6-7.8C534.4,32.6,530,38.6,530,38.6z"/>
				</g>
				<g>
					<path class="st40" d="M507.9,35.7c0.2,3.2,0.3,8.2,1.6,7.8l2.7-4.9C512.1,38.6,507.7,32.6,507.9,35.7z"/>
				</g>
			</g>
		</g>
		<g>
			<path class="st41" d="M526.2,23c0,0,0.7,1.3-2.3,3.4c-3,2.1-2.4-1.3-9.5,7.1c-2.5,3-5.2,17-3,20.3c2.2,3.3,2.3-0.8,2.3-0.8
				s-1.2,6.6-4.6,6.2c-3.3-0.4-7.4-1.3-5.6-15.7c1.8-14.4,9.1-21.3,16.4-21.9C527.3,21,526.2,23,526.2,23z"/>
		</g>
		<g>
			<path class="st41" d="M524.8,23.8c0,0-1.8,1.9-0.6,4.1c1.3,2.2,5.2,11.9,5.2,14c0,2.1-0.3,14.6-0.3,14.6s6.4,5.6,8.2-1.7
				c1.7-7.3-0.8-34.9-12-30.9H524.8z"/>
		</g>
	</g>
	<g>
		<g>
			<g>
				<rect x="240.1" y="60.6" class="st42" width="27.8" height="50.4"/>
			</g>
			<g>
				<g>
					<polygon class="st32" points="247.2,92.2 250.5,64.7 252.3,65.3 252.3,111.3 					"/>
				</g>
				<g>
					<polygon class="st32" points="257.4,92.2 254.2,64.7 252.3,65.3 252.3,111.3 					"/>
				</g>
			</g>
			<g>
				<g>
					<path class="st43" d="M233.1,282.1c0,0-2.2,1.5-2,2.3c0.2,0.8,1.1,4,5.2,4.5s7.3-0.3,8.7-1.2c1.4-0.9,3.2-3.7,0.8-5.9
						L233.1,282.1z"/>
				</g>
				<g>
					<path class="st44" d="M246.8,281.2c0,1.5,1.2,5.1-4.1,5.7c-5.4,0.6-10.6-0.3-10.6-3.5c0-1.2,0.2-2.9,0.4-4.6
						c0.4-2.9,0.9-5.7,0.9-5.7l0.6-1.3l2.3-4.9l10,0.3l0.5,0.1c0,0,0.2,2.3,0.3,4.6c0,1.3,0,2.6-0.3,3.4c-0.3,1-0.3,1.9-0.2,2.8
						C246.5,279.3,246.8,280.4,246.8,281.2z"/>
				</g>
				<g>
					<path class="st43" d="M240.1,273.4L240.1,273.4c0,0.6-0.2,1.1-0.7,1.3c-1,0.4-4.9,3.4-7.1,4.1c0.4-2.9,0.9-5.7,0.9-5.7l0.6-1.3
						c1.9-0.5,5.3-1.3,5.6-0.7C239.7,271.5,240.1,272.5,240.1,273.4z"/>
				</g>
				<g>
					<path class="st43" d="M246.6,275.4c-0.3,1-0.3,1.9-0.2,2.8c-2.1-1.1-4.9-3.1-5.7-3.4c-0.5-0.2-0.7-0.7-0.7-1.3v0
						c0-0.9,0.4-1.9,0.7-2.4c0.4-0.6,4.5,0.4,6.2,0.9C246.9,273.2,246.9,274.6,246.6,275.4z"/>
				</g>
			</g>
			<g>
				<g>
					<path class="st43" d="M272.1,282.1c0,0,2.2,1.5,2,2.3c-0.2,0.8-1.1,4-5.2,4.5s-7.3-0.3-8.7-1.2c-1.4-0.9-3.2-3.7-0.8-5.9
						L272.1,282.1z"/>
				</g>
				<g>
					<path class="st44" d="M258.4,281.2c0,1.5-1.2,5.1,4.1,5.7c5.4,0.6,10.6-0.3,10.6-3.5c0-1.2-0.2-2.9-0.4-4.6
						c-0.4-2.9-0.9-5.7-0.9-5.7l-0.6-1.3l-2.3-4.9l-10,0.3l-0.5,0.1c0,0-0.3,2.3-0.3,4.6c0,1.3,0,2.6,0.3,3.4c0.3,1,0.3,1.9,0.2,2.8
						C258.6,279.3,258.4,280.4,258.4,281.2z"/>
				</g>
				<g>
					<path class="st43" d="M265.1,273.4L265.1,273.4c0,0.6,0.2,1.1,0.7,1.3c1,0.4,4.9,3.4,7.1,4.1c-0.4-2.9-0.9-5.7-0.9-5.7
						l-0.6-1.3c-1.9-0.5-5.3-1.3-5.6-0.7C265.4,271.5,265.1,272.5,265.1,273.4z"/>
				</g>
				<g>
					<path class="st43" d="M258.5,275.4c0.3,1,0.3,1.9,0.2,2.8c2.1-1.1,4.9-3.1,5.7-3.4c0.5-0.2,0.7-0.7,0.7-1.3v0
						c0-0.9-0.4-1.9-0.7-2.4c-0.4-0.6-4.5,0.4-6.2,0.9C258.2,273.2,258.3,274.6,258.5,275.4z"/>
				</g>
			</g>
			<g>
				<path class="st45" d="M245.7,46.8l-0.8,9.4c0,0,4.2,8.2,7.9,6.8c3.7-1.4,9.1-4.8,9.1-4.8l-2-11.7L245.7,46.8z"/>
			</g>
			<g>
				<g>
					<g>
						<path class="st33" d="M280.2,146.8c-0.5-4.5-8-16.2-8-16.2l-6.6,0.4c0.8,17.2,2.7,57.9,2.4,65.4c-0.2,7.6-2.4,57.4-3.3,77.6
							c2.1,0.1,6.3-3.1,6.3-3.1s6.8-109.2,8.2-115C280.6,150,280.7,151.2,280.2,146.8z"/>
					</g>
					<g>
						<path class="st32" d="M265.6,131l-13.6,0.8v37l3.9,102.2c0,0,6.6,2.6,8.6,2.9c0.1,0,0.1,0,0.2,0c0.9-20.2,3.1-70,3.3-77.6
							C268.3,188.9,266.5,148.2,265.6,131z"/>
					</g>
				</g>
				<g>
					<g>
						<path class="st33" d="M223.8,146.8c0.5-4.5,8-16.2,8-16.2l6.6,0.4c-0.8,17.2-2.7,57.9-2.4,65.4c0.2,7.6,2.4,57.4,3.3,77.6
							c-2.1,0.1-6.3-3.1-6.3-3.1s-6.8-109.2-8.2-115C223.5,150,223.3,151.2,223.8,146.8z"/>
					</g>
					<g>
						<path class="st32" d="M238.4,131l13.6,0.8v37L248.2,271c0,0-6.6,2.6-8.6,2.9c-0.1,0-0.1,0-0.2,0c-0.9-20.2-3.1-70-3.3-77.6
							C235.7,188.9,237.6,148.2,238.4,131z"/>
					</g>
				</g>
			</g>
			<g>
				<g>
					<g>
						<path class="st4" d="M242,44.2c0,0-2-1.1-2.6-2.3c-0.6-1.2-2-4.9-0.8-4.6c1.2,0.3,2.2,0.9,2.2,0.9L242,44.2z"/>
					</g>
					<g>
						<path class="st4" d="M262.6,45.1c0,0,2-1.1,2.6-2.3c0.6-1.2,2-4.9,0.8-4.6c-1.2,0.3-2.2,0.9-2.2,0.9L262.6,45.1z"/>
					</g>
				</g>
				<g>
					<path class="st4" d="M265.1,35.3c0,7.2-5.8,19.9-13,19.9c-7.2,0-13-12.7-13-19.9s5.8-13,13-13
						C259.3,22.3,265.1,28.1,265.1,35.3z"/>
				</g>
			</g>
			<g>
				<g>
					<polygon class="st46" points="247.9,60.9 250.6,66.3 252.3,66.3 252.3,60.7 					"/>
				</g>
				<g>
					<polygon class="st46" points="256.8,60.9 254,66.3 252.3,66.3 252.3,60.7 					"/>
				</g>
				<g>
					<path class="st47" d="M252,60.2c0,0-2-1.4-4,0c-2,1.4-3.6,6.5-3.6,6.5s2.5-4.6,6.7-4.5c4.2,0.2,3.8-0.3,4.7,0.2
						c0.9,0.5,4.2,4.5,4.2,4.5S260.9,58.3,252,60.2z"/>
				</g>
			</g>
			<g>
				<path class="st48" d="M240.2,57.2l-17.7,7.6c0,0,2.8,20.8,3.2,26.1c0.5,5.2,3.2,18.3,2.6,27.4c-0.6,9.1-2.8,20-2.8,20
					s11.9,24.8,16.4,22.4c4.5-2.5,12.2-20.7,12.8-33.6c0.6-13-1.7-17.7-1.7-17.7L240.2,57.2z"/>
			</g>
			<g>
				<path class="st49" d="M265.5,56.9l17.7,7.6c0,0-2.8,20.8-3.2,26.1c-0.5,5.2-3.2,18.3-2.6,27.4c0.6,9.1,2.6,20,2.6,20
					s-11,21.8-15.5,19.3c-4.5-2.5-12.8-17.6-13.4-30.6c-0.6-13,1.7-17.7,1.7-17.7L265.5,56.9z"/>
			</g>
			<g>
				<g>
					<rect x="252.9" y="111.7" class="st50" width="2.9" height="0.8"/>
				</g>
				<g>
					<circle class="st51" cx="253.4" cy="112.5" r="1.5"/>
				</g>
			</g>
			<g>
				<rect x="252.8" y="127.4" class="st50" width="3.6" height="0.9"/>
			</g>
			<g>
				<path class="st52" d="M252.9,60.7c0,0-2-0.3-4.2,1.4c-2.2,1.7-3.9,3.7-3.9,3.7s-2.6-7.9-2.5-9.1c0.2-1.2,1.9-5.6,1.9-5.6
					s0,3.2,3.7,5.7C251.7,59.3,252.9,60.7,252.9,60.7z"/>
			</g>
			<g>
				<path class="st52" d="M251.6,61.2c0,0,2-0.3,4.2,1.4c2.2,1.7,3.9,3.7,3.9,3.7s2.6-7.9,2.5-9.1c-0.2-1.2-1.9-5.6-1.9-5.6
					s0,3.2-3.7,5.7C252.8,59.8,251.6,61.2,251.6,61.2z"/>
			</g>
			<g>
				<path class="st46" d="M236.9,57.6l6.9-5.1c0,0-1.4,4.7-0.6,7.4c0.8,2.7,9.4,48.5,9.4,48.5s-5.5-7-10.1-18.6
					c-4.6-11.6-8.8-25.1-8.8-25.1l4.2-1.5l-2.3-1.2L236.9,57.6z"/>
			</g>
			<g>
				<path class="st46" d="M267.1,57.6l-6.5-5.2c0,0,1.1,4.9,0.3,7.6c-0.8,2.7-8.7,50.3-8.7,50.3s4.7-8.9,9.3-20.4s8.8-25.1,8.8-25.1
					l-4.2-1.5l2.3-1.2L267.1,57.6z"/>
			</g>
			<g>
				<g>
					<path class="st45" d="M279.1,140.2l-1.8,3.6l0.8,8.8c0,0,5.7-6.2,5.7-7.9C283.8,143.1,279.1,140.2,279.1,140.2z"/>
				</g>
				<g>
					<path class="st52" d="M279.6,138.9l-0.9,2.3c0,0,3.5,0.5,4.5,3.4c1,2.9,0.4,3.7,0.4,3.7l1.5-2.3
						C285.2,146,284.4,138.1,279.6,138.9z"/>
				</g>
				<g>
					<path class="st48" d="M284.9,65.6c0,0-0.5-2.3-1.6-1.2c-1.1,1.1-7.8,23.9-5.1,33.8c2.6,9.9,4.6,12.3,4.5,19.6
						c-0.2,7.2-4.6,22.4-4.6,22.4s5.6,1.2,5.9,3.7c0.3,2.5,0.6,5.7,0.6,5.7s14.8-22.5,12.8-36.9C295.2,98.3,284.9,65.6,284.9,65.6z"
						/>
				</g>
			</g>
			<g>
				<g>
					<path class="st45" d="M226.6,140.2l1.8,3.6l-0.8,8.8c0,0-5.7-6.2-5.7-7.9C221.9,143.1,226.6,140.2,226.6,140.2z"/>
				</g>
				<g>
					<path class="st52" d="M226.1,138.9l0.9,2.3c0,0-3.5,0.5-4.5,3.4c-1,2.9-0.4,3.7-0.4,3.7l-1.5-2.3
						C220.6,146,221.3,138.1,226.1,138.9z"/>
				</g>
			</g>
			<g>
				<path class="st49" d="M220.9,65.6c0,0,0.5-2.3,1.6-1.2c1.1,1.1,7.8,23.9,5.1,33.8c-2.6,9.9-4.6,12.3-4.5,19.6
					c0.2,7.2,4.6,22.4,4.6,22.4s-5.6,1.2-5.9,3.7c-0.3,2.5-0.6,5.7-0.6,5.7s-14.8-22.5-12.8-36.9C210.5,98.3,220.9,65.6,220.9,65.6z
					"/>
			</g>
		</g>
		<g>
			<path class="st53" d="M259.8,27.2c0,0-2.2,0.5-6.9,0.6c-4.6,0.1-8.1-1.7-8.8,0.5c-0.7,2.2-2.3,8.2-2,9.7c0.3,1.5,1.7,5.1,0.4,4.3
				c-1.2-0.8-2.8-5.2-2.8-5.2s-1.9-13,3.5-15c5.4-2.1,18.3-2.7,20.8,1.5c2.5,4.2,2.4,12.4,1.2,15.7c-1.3,3.4-2.1,7-2.3,4.7
				c-0.2-2.3,1-6.6,0.5-10.7C262.9,29.2,261.2,26.4,259.8,27.2z"/>
		</g>
	</g>
</g>
</svg>
