<?xml version="1.0" encoding="utf-8"?>
<!-- Generator: Adobe Illustrator 21.0.0, SVG Export Plug-In . SVG Version: 6.00 Build 0)  -->
<svg version="1.1" id="Layer_1" xmlns="http://www.w3.org/2000/svg" xmlns:xlink="http://www.w3.org/1999/xlink" x="0px" y="0px"
	 viewBox="0 0 768 300" style="enable-background:new 0 0 768 300;" xml:space="preserve">
<style type="text/css">
	.st0{fill:#E6E7E8;}
	.st1{fill:#242333;}
	.st2{fill:#FFB888;}
	.st3{fill:#150C0F;}
	.st4{fill:#FFC197;}
	.st5{fill:#E6E6FF;}
	.st6{fill:#335572;}
	.st7{fill:#1B1D23;}
	.st8{fill:#6A402E;}
	.st9{fill:#454563;}
	.st10{fill:#598253;}
	.st11{fill:#D3A192;}
	.st12{fill:#DDB2A2;}
	.st13{fill:#51915E;}
	.st14{fill:#5E8658;}
	.st15{fill:#364163;}
	.st16{fill:#202C52;}
	.st17{fill:#688D63;}
	.st18{fill:#121119;}
	.st19{fill:#FFE7D7;}
	.st20{fill:#7DAD86;}
	.st21{fill:#1D3322;}
	.st22{fill:#0C2412;}
	.st23{fill:#C18B87;}
	.st24{fill:#7D9E79;}
	.st25{fill:#35756C;}
	.st26{fill:#4B807A;}
	.st27{fill:#3A1A39;}
	.st28{fill:#F7CDAF;}
	.st29{fill:#BF8D84;}
	.st30{fill:#796F89;}
	.st31{fill:#100D14;}
	.st32{fill:#564966;}
	.st33{fill:#625475;}
	.st34{fill:#695C7C;}
	.st35{fill:#2B082A;}
	.st36{fill:#DCFFF3;}
	.st37{fill:#F4B990;}
	.st38{fill:#432342;}
	.st39{fill:#F3CFC1;}
	.st40{fill:#F7CAAB;}
	.st41{fill:#873A00;}
	.st42{fill:#D3F6EA;}
	.st43{fill:#6B5569;}
	.st44{fill:#745F72;}
	.st45{fill:#F2AD86;}
	.st46{fill:#918397;}
	.st47{fill:#C4F3E3;}
	.st48{fill:#7D697B;}
	.st49{fill:#837081;}
	.st50{fill:#6D566A;}
	.st51{fill:#927AA9;}
	.st52{fill:#E2F9F1;}
	.st53{fill:#5C3113;}
	.st54{enable-background:new    ;}
	.st55{fill:#54BDBF;}
	.st56{fill:#740B03;}
	.st57{fill:#94EDEA;}
	.st58{fill:#77D8D8;}
	.st59{fill:#68598E;}
	.st60{fill:#FFCBA1;}
	.st61{fill:#EABA24;}
	.st62{fill:#DEC3F4;}
	.st63{fill:#E8D5F7;}
	.st64{fill:#5E4E87;}
	.st65{fill:#F8F2FD;}
	.st66{fill:#25154A;}
	.st67{fill:#322355;}
	.st68{fill:#40355C;}
	.st69{fill:#756798;}
	.st70{fill:#7B6E9D;}
	.st71{fill:#428F65;}
	.st72{fill:#C0F0FF;}
	.st73{fill:#4B956C;}
	.st74{fill:#469168;}
	.st75{fill:#257749;}
	.st76{fill:#365042;}
	.st77{fill:#3D5648;}
	.st78{fill:#223F2F;}
	.st79{fill:#6AA785;}
	.st80{fill:#D9F6FF;}
	.st81{fill:#4A6254;}
	.st82{fill:#2F4B3C;}
	.st83{fill:#FFC6A9;}
	.st84{fill:#FFDBC9;}
	.st85{fill:#27362D;}
	.st86{fill:#100B0F;}
	.st87{fill:#FFD0B0;}
	.st88{fill:#5D6862;}
	.st89{fill:#C0EDED;}
	.st90{fill:#A0E4E4;}
	.st91{fill:#D7F7FF;}
	.st92{fill:#707BA1;}
	.st93{fill:#6A759D;}
	.st94{fill:#606C96;}
	.st95{fill:#7D87A9;}
	.st96{fill:#45455C;}
	.st97{fill:#3C4357;}
	.st98{fill:#47475D;}
	.st99{fill:#FFCEB5;}
	.st100{fill:#42495C;}
	.st101{fill:#FFDBC8;}
	.st102{fill:#636F99;}
	.st103{fill:#8D95B4;}
	.st104{fill:#CFE8E5;}
	.st105{fill:#F5F6F7;}
	.st106{fill:#FFBF94;}
	.st107{fill:#521C59;}
	.st108{fill:#DFB0A1;}
	.st109{fill:#D69985;}
	.st110{fill:#411249;}
	.st111{fill:#F2BF9C;}
	.st112{fill:#FFE394;}
	.st113{fill:#56205D;}
	.st114{fill:#683870;}
	.st115{fill:#F6D3BB;}
	.st116{fill:#A32914;}
	.st117{fill:#E6FFFC;}
	.st118{fill:#772F2F;}
	.st119{fill:#E8DFDF;}
	.st120{fill:#722828;}
	.st121{fill:#6C6F7A;}
	.st122{fill:#350000;}
	.st123{fill:#593126;}
	.st124{fill:#230000;}
	.st125{fill:#5D81A6;}
	.st126{fill:#34537C;}
	.st127{fill:#EFB68F;}
	.st128{fill:#2A4B6B;}
	.st129{fill:#C7D6E2;}
	.st130{fill:#F3F3F3;}
	.st131{fill:#99C9D6;}
	.st132{fill:#475B73;}
	.st133{fill:#32517A;}
	.st134{fill:#536D90;}
	.st135{fill:#526F9B;}
	.st136{fill:#0F0F11;}
	.st137{fill:#5C8D8B;}
	.st138{fill:#385473;}
	.st139{fill:#AFE3EF;}
	.st140{fill:#7D4534;}
	.st141{fill:#F2AF81;}
	.st142{fill:#BA3900;}
	.st143{fill:#3E5C82;}
	.st144{fill:#3D0606;}
	.st145{fill:#2D0000;}
	.st146{fill:#6A83A9;}
	.st147{fill:#101319;}
	.st148{fill:#151A21;}
	.st149{fill:#4B668A;}
	.st150{fill:#B0E3FF;}
	.st151{fill:#A50C00;}
	.st152{fill:#25601E;}
	.st153{fill:#245E1E;}
	.st154{fill:#C7EEFF;}
	.st155{fill:#F9B28F;}
	.st156{fill:#9FC3CF;}
	.st157{fill:#608F9E;}
	.st158{fill:#E9FFFD;}
	.st159{fill:#F8FFFF;}
	.st160{fill:#FFFFFF;}
	.st161{fill:#421000;}
	.st162{fill:#D1D7E5;}
	.st163{fill:#EAEDF4;}
	.st164{fill:#F3F6FF;}
	.st165{fill:#E2EDED;}
	.st166{fill:#232877;}
	.st167{fill:#E83A28;}
	.st168{fill:#FF7364;}
	.st169{fill:#DCF5F9;}
	.st170{fill:#FF5027;}
	.st171{fill:#232865;}
	.st172{fill:#7A4039;}
	.st173{fill:#232835;}
	.st174{fill:#141926;}
	.st175{fill:#263349;}
	.st176{fill:#30242E;}
	.st177{fill:#EAE4DF;}
	.st178{fill:#22474D;}
	.st179{fill:#316D63;}
	.st180{fill:#49737A;}
	.st181{fill:#151515;}
	.st182{fill:#E9B7A0;}
	.st183{fill:#FBCCBA;}
	.st184{fill:#2F353F;}
	.st185{fill:#290E3A;}
	.st186{fill:#4B3B54;}
	.st187{fill:#BAC6DB;}
	.st188{fill:#3E221A;}
	.st189{fill:#66668A;}
	.st190{fill:#000103;}
	.st191{fill:#3F3E83;}
	.st192{fill:#CED1E0;}
	.st193{fill:#DDDFEC;}
	.st194{fill:#540D0D;}
	.st195{fill:#3D3C82;}
	.st196{fill:#291B1D;}
	.st197{fill:#FFAF78;}
	.st198{fill:#FFDED4;}
	.st199{fill:#F4D2AB;}
	.st200{fill:#300600;}
	.st201{fill:#EFD7B9;}
	.st202{fill:#222327;}
	.st203{fill:#2E0000;}
	.st204{fill:#4F2C22;}
	.st205{fill:#3D0B0B;}
	.st206{fill:#440C0C;}
	.st207{fill:#425E4E;}
	.st208{fill:#EFE8DF;}
	.st209{fill:#3E3E3E;}
	.st210{fill:#05162D;}
	.st211{fill:#2A2A2C;}
	.st212{fill:#B6B19E;}
	.st213{fill:#8DA9B0;}
	.st214{fill:#5F665F;}
	.st215{fill:#BF897B;}
	.st216{fill:#AD7866;}
	.st217{fill:#FFCAB3;}
	.st218{fill:#2C57A5;}
	.st219{opacity:0.14;fill:url(#SVGID_1_);}
	.st220{opacity:0.5;}
	.st221{fill:url(#SVGID_2_);}
	.st222{fill:#306CC4;}
	.st223{fill:#5D5D5D;}
	.st224{fill:#C2C8D3;}
	.st225{opacity:0.3;fill:#C2C8D3;}
	.st226{fill:none;stroke:#FFFFFF;stroke-width:1.584;stroke-linecap:square;stroke-miterlimit:10;}
	.st227{fill:url(#SVGID_3_);}
	.st228{fill:#F2F2F2;}
	.st229{fill:#E6E6E6;}
	.st230{fill:#4D4D4D;}
	.st231{fill:#666666;}
</style>
<rect class="st0" width="768" height="300"/>
<g>
	<g>
		<polygon class="st4" points="498.7,58 498.7,58.3 499.3,63.2 503.4,68 507.5,69.3 		"/>
	</g>
	<g>
		<g>
			<g>
				<path class="st131" d="M364.1,253.4c-1.5,0-2.9-0.7-3.8-2l-4-5.6c-0.4-0.5-0.6-1.2-0.8-1.8l-12.8-66.4
					c-3.9-3.4-8.7-5.2-13.7-5.2h-38.4c-5,0-9.8,1.9-13.7,5.2L264.2,244c-0.1,0.7-0.4,1.3-0.8,1.8l-3.9,5.6c-1.8,2.5-5.7,2.5-7.6,0.2
					c-0.9-1.1-1.2-2.6-0.8-4l14-58.1c1.3-5.5,4.1-10.4,7.9-14.2l0.5-2.4c2.5-12.8,11.1-21.7,21.1-21.7h30.9
					c9.9,0,18.6,8.9,21.1,21.7l0.5,2.4c3.9,3.8,6.6,8.7,7.9,14.2l14,58.1c0.3,1.4,0,2.9-0.8,4C367,252.8,365.6,253.4,364.1,253.4z
					 M348.9,185.9l11.1,57.3l4.2,5.9c0.1,0,0.2-0.1,0.3-0.1l-14-58.3C350.1,188.9,349.6,187.4,348.9,185.9z M270.9,185.9
					c-0.7,1.5-1.2,3-1.6,4.7l-14,58.1l0.3,0.4c0,0,0.1,0,0.2-0.1l4-5.6L270.9,185.9z M290.7,168h38.4c4.3,0,8.6,1.2,12.3,3.3
					c-2.6-9.3-9-15.6-16.1-15.6h-30.9c-7.2,0-13.5,6.3-16.1,15.6C282.1,169.1,286.4,168,290.7,168z"/>
			</g>
			<g>
				<path class="st55" d="M344.3,96.4c-1.1-7.5-7.6-13.1-15.2-12.9l-19.2,0.5l-19.2-0.5c-7.6-0.2-14.2,5.3-15.2,12.9l-9.2,65.4
					l43.6,7.3l43.6-7.3L344.3,96.4z"/>
			</g>
			<g>
				<path class="st55" d="M355,165.9c-29.8,6.2-60.5,6.2-90.2,0c-1.7-0.4-2.8-2-2.4-3.7c0,0,0,0,0-0.1c0.4-1.6,2-2.7,3.7-2.3
					c28.9,6,58.8,6,87.7,0c1.7-0.3,3.3,0.7,3.7,2.3c0,0,0,0,0,0.1C357.8,163.9,356.7,165.6,355,165.9z"/>
			</g>
		</g>
	</g>
	<g>
		<g>
			<g>
				<path class="st131" d="M481.2,252.3c-1.5,0-2.9-0.7-3.8-2l-4-5.6c-0.4-0.6-0.6-1.2-0.8-1.8l-12.8-66.4
					c-3.9-3.4-8.7-5.2-13.7-5.2h-38.4c-5,0-9.8,1.9-13.7,5.2l-12.8,66.4c-0.1,0.7-0.4,1.3-0.8,1.8l-4,5.6c-1.8,2.5-5.7,2.5-7.6,0.2
					c-0.9-1.1-1.2-2.6-0.8-4l14-58.1c1.3-5.5,4.1-10.4,7.9-14.2l0.5-2.4c2.5-12.8,11.1-21.7,21.1-21.7h30.9c9.9,0,18.6,8.9,21,21.7
					l0.5,2.4c3.9,3.8,6.6,8.7,7.9,14.2l14,58.1c0.3,1.4,0,2.9-0.8,4C484.1,251.6,482.7,252.3,481.2,252.3z M466,184.7L477,242
					l4.2,5.9c0.1,0,0.2-0.1,0.3-0.1l-14-58.3C467.2,187.7,466.7,186.2,466,184.7z M388,184.7c-0.7,1.5-1.2,3-1.6,4.7l-14,58.1
					l0.3,0.4c0,0,0.1,0,0.2-0.1l4-5.6L388,184.7z M411.6,154.5c-7.2,0-13.5,6.3-16.1,15.6c3.8-2.2,8-3.3,12.3-3.3h38.4
					c4.3,0,8.6,1.2,12.3,3.3c-2.6-9.3-9-15.6-16.1-15.6H411.6z"/>
			</g>
			<g>
				<path class="st55" d="M461.4,95.2c-1.1-7.5-7.6-13.1-15.2-12.9L427,82.9l-19.2-0.5c-7.6-0.2-14.2,5.3-15.2,12.9l-9.2,65.4
					l43.6,7.3l43.6-7.3L461.4,95.2z"/>
			</g>
			<g>
				<path class="st55" d="M472.1,164.7c-29.8,6.2-60.5,6.2-90.2,0c-1.7-0.4-2.8-2-2.4-3.7c0,0,0,0,0-0.1c0.4-1.6,2-2.7,3.7-2.3
					c28.9,6,58.8,6,87.7,0c1.7-0.3,3.3,0.7,3.7,2.3c0,0,0,0,0,0.1C474.9,162.7,473.8,164.4,472.1,164.7z"/>
			</g>
		</g>
	</g>
	<g>
		<g>
			<g>
				<g>
					<path class="st189" d="M331.7,102.8l6.7,20.2l16.1,2.8c0,0-1.5,0.2-2,3.7c-0.5,3.5-0.5,5.1-0.5,5.1l-25.7-4.1l-4.5-18.8
						L331.7,102.8z"/>
				</g>
				<g>
					<g>
						<g>
							<path class="st6" d="M355.2,222.7c0,0-4,9.7-3.4,13.1c0.7,3.4,6.6,10.2,7.2,9.4c0.5-0.8,5.2-20.4,5.2-20.4L355.2,222.7z"/>
						</g>
						<g>
							<g>
								<path class="st7" d="M367.5,249.6c-3-0.1-6.4-1.9-6.8-1.9c-0.4,0-2.9-1.1-5.2-0.9c-1.6,0.2-4.1-0.4-5.4-0.9
									c0.1,1.7,0.2,3.2,0.5,3.3c0.6,0.3,8,0.3,9.9,0.9c1.9,0.6,5.7,2.4,7.9,2.3c2.3-0.1,17.9,0,17.9,0s0.2-1.6,0.3-2.9
									C382.4,249.6,370,249.7,367.5,249.6z"/>
							</g>
							<g>
								<path class="st147" d="M355.6,246.8c2.3-0.3,4.8,0.9,5.2,0.9c0.4,0,3.8,1.8,6.8,1.9c2.5,0.1,14.9,0,19.2,0
									c0.1-0.7,0.1-1.3,0.1-1.5c-0.1-0.6-9.3-4.4-10.6-5.5c-1.3-1.1-8.3-11.4-8.3-11.4l-5.3,0.4c0,0-8.2,7.7-8.6,7.3
									c-0.4-0.4-1.4-5.5-1.4-5.5s-2.6,6.2-2.6,7.9c0,0.9,0,3,0.1,4.8C351.5,246.5,353.9,247,355.6,246.8z"/>
							</g>
						</g>
					</g>
					<g>
						<g>
							<path class="st6" d="M333.6,225.6c0,0-4,9.7-3.4,13.1c0.7,3.4,9,4.3,9.5,3.5c0.5-0.8,2.9-14.5,2.9-14.5L333.6,225.6z"/>
						</g>
						<g>
							<g>
								<path class="st7" d="M346,252.4c-3-0.1-6.4,0.1-6.8,0.1s-2.9-3.1-5.2-2.9c-1.6,0.2-4.1-0.4-5.4-0.9c0.1,1.7,0.2,3.2,0.5,3.3
									c0.6,0.3,8,2.3,9.9,3c1.9,0.6,5.7,0.4,7.9,0.3c2.3-0.1,17.9,0,17.9,0s0.2-1.6,0.3-2.9C360.9,252.5,348.4,252.6,346,252.4z"
									/>
							</g>
							<g>
								<path class="st148" d="M334,249.7c2.3-0.3,4.8,2.9,5.2,2.9s3.8-0.3,6.8-0.1c2.5,0.1,14.9,0,19.2,0c0.1-0.7,0.1-1.3,0.1-1.5
									c-0.1-0.6-9.3-4.4-10.6-5.5c-1.3-1.1-8.3-11.4-8.3-11.4l-5.3,0.4c0,0-8.2,7.7-8.6,7.3c-0.4-0.4-1.4-5.5-1.4-5.5
									s-2.6,6.2-2.6,7.9c0,0.9,0,3,0.1,4.8C329.9,249.3,332.4,249.9,334,249.7z"/>
							</g>
						</g>
					</g>
				</g>
				<g>
					<g>
						<g>
							<g>
								<g>
									<path class="st150" d="M309.6,125.4C309.6,125.4,309.6,125.4,309.6,125.4C309.5,125.4,309.5,125.4,309.6,125.4
										C309.5,125.3,309.5,125.3,309.6,125.4c-1.3-1.6-20.8-26.4-22.5-34c-1-4.7-3-11.6-4.4-16.4l3.6-3.6l18.1,0.4l3.2,3.2
										c1.2,5.4,2.7,12.5,2.8,16.7C310.7,98.9,309.6,125.4,309.6,125.4z"/>
								</g>
								<g>
									<path class="st189" d="M334.5,112c-0.2-0.1-0.4-0.1-0.6-0.2c-3.6-0.9-9.5,1.2-11.9,2.4l-2.6-13.3l8.2,38.9
										c0,0-17.7,12.9-32.8,13.5C279.7,153.8,270,142,270,142l-0.5-3.3l2.4-40.1l-5,13c-1.9-2.3-9.9-1.7-13.7,0.1
										c3.9-11.7,6.2-34.2,9.2-39.1c3.5-5.9,7-2.1,11.7-2.1h0.1l1,5L279,75l-2,3.3c0,0,2.7,13.7,9.7,22.2
										c6.8,8.2,21.6,23.7,22.7,24.9c0,0,0,0,0,0c0,0,0,0,0,0c0,0,0,0,0,0s2.2-32.6,1-42.5c-0.6-5.2-3.4-13.5,1.6-12.5
										c0,0,10.1,4.4,13.9,13.3L334.5,112z"/>
								</g>
							</g>
							<g>
								<g>
									<polygon class="st151" points="304,71.8 304.3,71.8 304,71.5 									"/>
								</g>
							</g>
							<g>
								<g>
									<path class="st45" d="M300.4,73.6c1.8-1.6,2.6-3,3-4.3L300.8,58l-14.1,2.2c0,0,0.9,4.6-0.3,8c0.3,1.4,0.9,3.3,3.4,5.4
										C292.6,76.1,297.5,76.1,300.4,73.6z"/>
								</g>
							</g>
							<g>
								<path class="st190" d="M312.1,119.2c0,0-6-26.5-8.6-32.7c-2.6-6.2-3.6-7.5-3.6-7.5s-3.2,3-3,4.4c0,0.1,0,0.2,0.1,0.4
									c0.7,3.9,6.6,35.7,6.6,35.7L312.1,119.2z"/>
							</g>
							<g>
								<path class="st190" d="M292.7,73.2c0,0,2.4-1.3,4.9-1.5c2.5-0.2,4.3,0.7,4.3,0.7l-0.6,10l-3.7,0.8c0,0-2.1-2.6-3.6-5.6
									C292.6,74.7,292.7,73.2,292.7,73.2z"/>
							</g>
							<g>
								<g>
									<path class="st154" d="M297.8,71.6c0,0,2,0,3.7-2.8c1.7-2.8,1.7-2.8,1.7-2.8l6.9,5.9l-4.5,6.2L297.8,71.6z"/>
								</g>
								<g>
									<path class="st154" d="M282.8,67.8l4-2.5c0,0-0.1,3.2,3.2,4.9c3.4,1.7,7.7,1.5,7.7,1.5l-9.4,7.8c0,0-7.1-3.3-8.7-6
										C278,70.8,282.8,67.8,282.8,67.8z"/>
								</g>
							</g>
						</g>
						<g>
							<path class="st146" d="M309.5,125.3c-1.1-1.2-16-16.7-22.7-24.9c-7-8.6-9.7-22.2-9.7-22.2l2-3.3l-3.9,0.5l-1-5
								c0.6,0,9.4-3.1,9.4-3.1s-1.8,4.5-0.9,7.7c1.4,4.8,3.4,11.7,4.4,16.4C288.7,99,308.3,123.8,309.5,125.3z"/>
						</g>
						<g>
							<path class="st146" d="M309.6,125.4c0,0,1.2-26.5,0.8-33.7c-0.2-4.1-1.6-11.3-2.8-16.7c-0.9-4-1.7-7.1-1.7-7.1l6.3,2.5
								l1.2,2.6l-3,0.3c0,0,3,1.6,3,2.1c0.1,1.9,0.1,6,0.4,9C315,94.4,309.6,125.4,309.6,125.4z"/>
						</g>
					</g>
				</g>
				<g>
					<g>
						<path class="st191" d="M323.8,162.3c0,0,9.2,3.9,17.1,2.6c7.9-1.4,17.1-4.5,17.1-4.5s-4,21.8-4.1,27.6c-0.2,5.8-4,40.1-4,40.1
							s10.8,5.7,14.1,4.7c3.2-1,6.3-5.9,6.3-5.9s9-50.6,9.4-55.5c0.4-4.9,3.1-26.8,0.9-30.6c-2.2-3.7-7.6-9.9-17.3-9.3
							c-9.7,0.6-42.9,0.8-42.9,0.8L323.8,162.3z"/>
					</g>
				</g>
				<g>
					<g>
						<g>
							<polygon class="st192" points="304.7,104.8 318.4,105.8 319.1,106.5 297,120.7 							"/>
						</g>
						<g>
							<polygon class="st193" points="305.3,105.5 319.1,106.5 308.7,123.9 298.3,122 							"/>
						</g>
					</g>
					<g>
						<path class="st4" d="M296,122.1l-2-7.1c0,0,4-2.5,6-3.2c2-0.7,5.1-0.7,6.1-1c0.9-0.3,4.9-2,4.9-0.6c0,1.4-2.3,3.7-4.8,3.3
							c-2.5-0.4-2.3,0.9-2.3,0.9l4.6,0.6l4.4-1l1.6-1.2c0,0,1-1.9,2.2-2.3c1.2-0.3,1.6,0.3,1.6,0.3l-1.8,2.9l-3.6,3.3l-6.1,4.2
							L296,122.1z"/>
					</g>
					<g>
						<path class="st189" d="M253.6,109.9c0,0,0.8-4.4,8.6-3.2c7.7,1.2,29.3,6,29.3,6l0.6,13.1c0,0-33.7,1-37.1-2.3
							c-4.4-4.2-1.6-12.6-1.6-12.6L253.6,109.9z"/>
					</g>
				</g>
				<g>
					<path class="st4" d="M352.2,131.5l6.2,1.7c0,0,2.7,0,4.4,0.2c1.7,0.2,7.8,1.7,7.8,1.7s2.3-0.3,1.5-1.8
						c-0.8-1.4-6.4-3.5-6.4-3.5l6,1.2l4,2.5c0,0,1.9,3.8,3.3,3.5c1.4-0.3,1.4-1.8,1.4-1.8l-4-5.4l-3.9-2.8l-7.1-2.8l-12.2,1.7
						L352.2,131.5z"/>
				</g>
			</g>
			<g>
				<g>
					<path class="st194" d="M301.4,40.1c0,0,2.7-0.7,1.3-5.2s-1.5-14.7-15.6-11.5c-14.6,3.3-12.4,8.8-12.8,12.4
						c-0.3,3.6,2.6,11.1,4.8,12.9c2.2,1.8,6.7,2.5,7.2,1.5L301.4,40.1z"/>
				</g>
				<g>
					<path class="st4" d="M299.3,30.1l4.5,15.2c0,0,0.8,10.1,0,12.2c-0.8,2.1-3.4,5.4-3.9,5.6c-0.5,0.2-4.5,1.1-5.2,0.9
						c-0.7-0.2-8.2-2.9-8.8-3.8c-0.6-0.9-2.9-6.1-2.9-6.1s-0.3,0.9-2,0.1c-1.7-0.9-3.8-6.7-3.6-8c0.2-1.3,3.8,1.9,3.8,1.9l0-13.5
						c0,0,8,1.5,11.6,0.3S299.3,30.1,299.3,30.1z"/>
				</g>
				<g>
					<path class="st4" d="M301.6,42.1c0,0,0.4-3.3,1.7-3.2c1.4,0.1,1.3,2.3,1.3,3.2c0,0.8,0.9,4.6,0.3,5.2c-0.7,0.5-2.4-1.3-2.4-1.3
						l-0.9-3.4L301.6,42.1z"/>
				</g>
			</g>
			<g>
				<polygon class="st141" points="293.2,125.5 305.7,126 311.5,121.2 313.8,116.6 299.8,118 				"/>
			</g>
		</g>
		<g>
			<path class="st72" d="M292.2,113.7l-0.4,0.4l0.3,11.7l6,0.1c0,0-0.8-5.5-2-7.1c-1.2-1.5-0.3-4.9-0.3-4.9L292.2,113.7z"/>
		</g>
		<g>
			<g>
				<path class="st195" d="M323.2,130.6c-5.8-1.2-33.5,6-46.5,9.5c-4.1,1.1-6.7,1.9-6.7,1.9s-2.9,11.3,9,21.5
					c11.9,10.3,33.5,2.2,33.5,2.2s-2.1,21.3,1.1,29.8c0,0.2,0.1,0.3,0.2,0.5c3.4,8.5,14,37,14,37s12.7,3.8,18.5,2.3
					c-3-14.9-18.2-91-23-104.7C323.3,130.6,323.2,130.6,323.2,130.6z"/>
			</g>
			<g>
				<path class="st189" d="M332.9,139.2c0,0-2-6.9-9.5-8.6c4.7,13.6,20,89.8,23,104.7c1-0.3,1.9-0.7,2.4-1.3
					C351.9,229.9,332.9,139.2,332.9,139.2z"/>
			</g>
		</g>
	</g>
	<g>
		<g>
			<path class="st4" d="M547.5,113.6c0,0-6.9-9.9-11.3-16.5c-4.4-6.6-10.9-24.5-10.9-24.5v-9.5c0,0-1.4-5.3-1.6-6.6
				c-0.2-1.2-3.7-4.9-4.4-6.6c-0.7-1.7-1.6,1.7,0,4.9c1.6,3.2,0.9,5.8,0.9,5.8l-6-3.6c0,0-5.8-10.9-8.1-11.4c-2.3-0.5-2.8-1-1.4,1.7
				c1.4,2.7,6.9,11.6,6.9,11.6l-5.3-4.4c0,0-1.2-3.2-3.9-5.8c-2.8-2.7-4.4-1.2-4.4-1.2l5.3,10.7l5.5,5.1l-5.3-2.7
				c0,0-1.8-3.4-3.7-4.9c-1.8-1.5-3.5-2.2-3.5-2.2l-0.2,1.9l6.9,8.5c0,0-0.9,2.2,0.2,3.9c1.2,1.7,4.9,4.6,4.9,4.6s4.9,7.5,7.6,7.8
				c2.8,0.2,5.1,23.5,7.4,30.1c2.3,6.6,7.9,19.9,13.4,19.4s14.1-9.2,14.1-9.2L547.5,113.6z"/>
		</g>
		<g>
			<g>
				<path class="st196" d="M542,46.4l-5.5-16c0,0-0.5-5,12.1-8.9c12.6-3.9,17.6,1.1,17.6,1.1s5.8,0.3,8.5,5.8
					c2.6,5.5,0.8,21.6,1.3,25c0.5,3.4,2.6,7.4,2.6,7.4l-7.1,1.3c0,0-7.1-7.4-7.1-8.7L542,46.4z"/>
			</g>
			<g>
				<polygon class="st197" points="552,63 560.7,79.1 576,61.1 566.5,49.7 				"/>
			</g>
			<g>
				<path class="st4" d="M540.7,32.2l-6.1,11.1l1.8,3.4c0,0-3.9,8.9-2.4,9.2c1.6,0.3,3.9,2.1,3.9,2.1l-0.3,2.4l3.9,1.8l-2.4,1.3
					l1.3,2.4l-0.8,4.7c0,0,19.2-3.9,19.7-5.8c0.5-1.8,5.3-10.3,5.3-10.3s1.3,4.7,2.9-0.8c1.6-5.5,3.9-16.3-2.1-13.7
					c-6.1,2.6-6.8,5-6.8,5s-11.3-4.5-11.8-12.6C546.5,24.3,540.7,32.2,540.7,32.2z"/>
			</g>
		</g>
	</g>
	<g>
		<path class="st130" d="M557.4,77.6c0,0,4.7-3.3,7.4-7.8c2.7-4.5,8.3-13.7,8.3-13.7L577,60c0,0-1.8,11.6-6.6,14.9
			c-4.8,3.3-13.6,11-13.6,11L557.4,77.6z"/>
	</g>
	<g>
		<path class="st81" d="M570.8,62.4c0.5-0.7,4.6-4.5,4.6-4.5l6.2,5.4c0,0-5,5.2-9.8,8.7c-12.1,8.6-6.8,54.4-6.8,54.4s-2.1-2.1-3.7-7
			C557.7,108.4,553.6,84.3,570.8,62.4z"/>
	</g>
	<g>
		<path class="st198" d="M186.7,63.7l6.4-3.6c0,0,6,10.8,6,14s3,31.4,3,31.4l-12.9-32.2l0.4-5.2l-3-0.3v-3L186.7,63.7z"/>
	</g>
	<g>
		<g>
			<g>
				<path class="st141" d="M256.2,119.9l7.6-5.7l9.3,1.7l6.6,4l4,4.1c0,0,0.1,1.5-1.6,1.5c-1.7,0-25.6,0-25.6,0L256.2,119.9z"/>
			</g>
			<g>
				<path class="st199" d="M254.7,120.3l8.8-6.8l11,2.1l6.1,4c0,0,3.7,4.6,4.2,4.6c0.5,0-0.1,1.1-2.2,1c-2.1-0.1-4.8-3.4-4.8-3.4
					l-5.3-2.5c0,0-5.2-1-6.2-0.4c-1.1,0.5,1.5,3.7,1.5,3.7l4.6-0.3c0,0,3.2-1,4.5-0.5c1.4,0.5,0.8,2.7,0.8,2.7l-2,1l-20.4-0.2
					L254.7,120.3z"/>
			</g>
		</g>
		<g>
			<path class="st200" d="M205.2,24.7c0,0,1.5-1.8-0.2-3.7c-1.7-1.9-9.2-9.6-18.7-7.6c-9.4,2.1-14.7,9.5-15.1,15.2
				c-0.4,5.7,4.6,13.8,4.6,13.8s-2,0.9-4.6,3.8c-2.6,2.9-1.7,9.5-1.2,10.8c0.5,1.3-2.6,8.2-2.6,8.2s10.3-0.1,10.9-0.6
				c0.6-0.5,9.4-19.6,9.4-19.9L205.2,24.7z"/>
		</g>
		<g>
			<path class="st120" d="M207.3,77.2l15.5,29.3c0,0,34.5,11.4,34.8,10.6c0.3-0.8,0.1,8.4,0.1,8.4s-35.1,0-37-0.8
				c-1.9-0.8-36.1-29.2-36.1-29.2L207.3,77.2z"/>
		</g>
		<g>
			<path class="st120" d="M188.6,56.8c0,0,6,20.3,6.2,27.7c0.2,7.5-11.1,65.2-12.2,66.6c-1.1,1.5,16.5,1.2,16.5,1.2
				s11.8-37.2,12.8-42.1c0.9-4.9-3.3-31.9-3.3-31.9l-14.7-19.9L188.6,56.8z"/>
		</g>
		<g>
			<path class="st118" d="M191.6,64.1l3-3.8c0,0,3.6,4.9,4,8.1c0.4,3.3,5.1,39.7,5.1,39.7s-3.3-4.2-3.9-7.7
				C199.2,97,191.6,64.1,191.6,64.1z"/>
		</g>
		<g>
			<path class="st120" d="M165,145.4c0,0-9.7,21.5,1.6,28.6c11.4,7.2,55.9,8.7,55.9,8.7l8.3,55.6l28.2-10.7l-18.6-57.3
				c-1-3.2-3.6-5.7-6.8-6.7l-42.6-13.5l-27-6L165,145.4z"/>
		</g>
		<g>
			<path class="st199" d="M178.8,60l6.8-14.3l11.5,3.2l2.9,4.6c0,0-7.7,16.6-7.8,20.5c-0.1,3.9,1,12.6,1,12.6L178.8,60z"/>
		</g>
		<g>
			<path class="st201" d="M205.4,21.5c0,0,0,0.1,0.1,0.3c0.8,1.9,4.7,11.5,4.8,12.6c0.1,1.2,1.3,4,0.2,5.5
				c-1.1,1.5-2.9,8.8-2.6,10.3c0.3,1.5,0.4,5.3-3.2,4.7c-3.6-0.6-13.3-0.1-16.1-2.7c-2.8-2.6-3.2-7.2-3.2-7.2s-0.9-0.4-3-2.4
				c-2.1-2-4-7.7-2.1-8.7c1.8-1,7.1,5.3,7.1,5.3s-1.1-2.2-0.1-4.2c1-2,3.7-2.7,4.5-4.5c0.8-1.8,0-6.3,2.1-6.8L205.4,21.5z"/>
		</g>
		<g>
			<g>
				<path class="st144" d="M253.4,281.8c-5.8-0.2-17-0.6-18-0.5c-1.4,0.2-4.2-8.5-7.2-10.3c-1.7-1-5.7-0.6-8.9,0
					c-0.5-3.9-0.1-7.4,0.6-10.8c12.9,2.1,14.1,6.3,15.8,9c0.9,1.4,2.6,1.7,4.1,1.7c0.7,1.5,1.4,2.8,1.9,3.4c2.4,3.2,6.6,2.8,9.3,3.6
					C252.6,278.4,253.2,280.3,253.4,281.8z"/>
			</g>
			<g>
				<path class="st145" d="M235.4,281.4c-1.4,0.2-4.2-8.5-7.2-10.3c-1.7-1-5.6-0.6-8.9,0c0.1,1.2,0.4,2.5,0.7,3.8
					c2,7.6,2.4,9.1,2.4,9.1h3.6l-0.8-10.3c0,0,4-3.2,6,3.6c2,6.8-0.8,6.4,4.4,6.4c5.2,0,17.9,0.4,17.9,0.4s0.1-1-0.1-2.1
					C247.6,281.6,236.4,281.2,235.4,281.4z"/>
			</g>
			<g>
				<path class="st199" d="M235.8,269.2c0.9,1.4,2.6,1.7,4.1,1.7c-2.7-5.7-6.3-15.7-6.3-15.7l1.6-25.4l-15.9,6c0,0,0.1,0.2,0.1,0.6
					c0.7,2.6,3.2,13.3,1.8,18.5c-0.5,1.7-0.9,3.5-1.3,5.3C232.8,262.3,234,266.5,235.8,269.2z"/>
			</g>
		</g>
		<g>
			<g>
				<path class="st144" d="M279.4,281.8c-5.8-0.2-17-0.6-18-0.5c-1.4,0.2-4.2-8.5-7.2-10.3c-1.7-1-5.7-0.6-8.9,0
					c-0.5-3.9-0.1-7.4,0.6-10.8c12.9,2.1,14.1,6.3,15.8,9c0.9,1.4,2.6,1.7,4.1,1.7c0.7,1.5,1.4,2.8,1.9,3.4c2.4,3.2,6.6,2.8,9.3,3.6
					C278.7,278.4,279.2,280.3,279.4,281.8z"/>
			</g>
			<g>
				<path class="st145" d="M261.4,281.4c-1.4,0.2-4.2-8.5-7.2-10.3c-1.7-1-5.6-0.6-8.9,0c0.1,1.2,0.4,2.5,0.7,3.8
					c2,7.6,2.4,9.1,2.4,9.1h3.6l-0.8-10.3c0,0,4-3.2,6,3.6c2,6.8-0.8,6.4,4.4,6.4c5.2,0,17.9,0.4,17.9,0.4s0.1-1-0.1-2.1
					C273.6,281.6,262.4,281.2,261.4,281.4z"/>
			</g>
			<g>
				<path class="st199" d="M261.8,269.2c0.9,1.4,2.6,1.7,4.1,1.7c-2.7-5.7-6.3-15.7-6.3-15.7l-5.4-27.4l-15.9,6c0,0,0.1,0.2,0.1,0.6
					c0.7,2.6,10.2,15.3,8.8,20.5c-0.5,1.7-0.9,3.5-1.3,5.3C258.9,262.3,260.1,266.5,261.8,269.2z"/>
			</g>
		</g>
		<g>
			<path class="st118" d="M149.4,152.4c0,0-9.7,21.5,1.6,28.6c11.4,7.2,55.9,8.7,55.9,8.7l8.3,55.6l28.2-10.7l-11.9-62.4
				c0,0,0-8.3-13.9-7.6c-13.9,0.8-42.1-7.6-42.1-7.6l-27-6L149.4,152.4z"/>
		</g>
		<g>
			<path class="st120" d="M169.5,58.6l11-2.7c0,0,24.8,50.6,24.1,54.8c-0.7,4.2-4.6,44.3-19.7,48.2c-7.5,1.9-6.6,14.1-6.6,14.1
				l-34.9-15.8c0,0,15.6-26.7,18.8-34.3c3.2-7.6,0.9-37.4,0.9-37.4L169.5,58.6z"/>
		</g>
		<g>
			<path class="st118" d="M181.9,53.3c0,0,5.1,18.9,7.7,23.4c2.6,4.5,12,23.6,13.3,28.2c1.3,4.7,1.8,6.9,1.8,6.9
				s-10.2-19.9-14.6-23.8c-4.4-4-9.9-16.7-9.9-16.7s0.9-4.7,1.3-4.9c0.4-0.2-1.5-0.9-1.5-0.9l-2.5-8.8L181.9,53.3z"/>
		</g>
		<g>
			<path class="st199" d="M191.6,158.9c0,0,3.8,6.8,8.7,6.4c5-0.4,9.2,0.4,9.2,0.4s2.2,0.5,2.9,0c0.7-0.5,0.3-1.1,0.3-1.1
				s2.9,0.5,3.4,0.9c0.5,0.4,2.1,0.6,3,0c0.9-0.6,0.9-0.6,0.9-0.6s1.2,0.2,1.6-0.6c0.4-0.8-7.3-4.7-8.4-5.4
				c-1.2-0.7-9.2-2.2-9.2-2.2l-7.2-0.5L191.6,158.9z"/>
		</g>
		<g>
			<path class="st118" d="M177.8,67.5c0,0-4.4,52.4-2.5,56.4c5.2,11.2,29.3,29.9,29.3,29.9l-15.2,9.6c0,0-32.3-30.6-31.6-40.2
				c0.7-9.5,0.1-54,4.2-60.1C165.2,58.2,179,54.1,177.8,67.5z"/>
		</g>
	</g>
	<g>
		<path class="st202" d="M565.1,252.2c0,0,8.3,13.9,6.6,15.9c-1.8,2-5.1,7.3-13,4.4c-7.9-3-4.3-19.1-4.3-19.1L565.1,252.2z"/>
	</g>
	<g>
		<g>
			<path class="st203" d="M517.3,279.7L517.3,279.7C517.3,279.8,517.3,279.7,517.3,279.7z"/>
		</g>
		<g>
			<path class="st204" d="M482.5,274c0,0,5.2,2.5,12.3,3.5c1.8,0.3,3.8,0.4,5.8,0.4c5.3,0,13.5-2.2,15.6-2.8c0.1,0,0.2-0.1,0.4-0.1
				c2.5-0.4,10.5-1,12.5-1.1c1.1,0.1,0.9,0.2,0.9,0.2l-0.3,5.5h-12.4c0.1-0.1,0.1-0.7-0.2-2.1c-6.8,0.3-7.3,2.1-17.2,2.1
				c-10.3,0-16.5-3-17.3-3.1C482,276.5,482.4,274.6,482.5,274z"/>
		</g>
		<g>
			<path class="st205" d="M495.4,274.2c-0.3,0.7-0.5,2.1-0.5,3.4c-7.2-1-12.3-3.5-12.3-3.5c0,0,0,0,0,0c0.1-0.3,1.7-3.3,3.6-3.7
				c1.4-0.3,6.1-0.5,9.1-0.8C495.5,271,495.7,273.4,495.4,274.2z"/>
		</g>
		<g>
			<path class="st203" d="M502.6,271.8c0,0,9.7-0.9,10.9-0.1c1,0.6,2.3,1.3,3,3.2c0,0.1,0.1,0.2,0.1,0.3c-0.1,0-0.3,0.1-0.4,0.1
				c-2.1,0.5-10.3,2.8-15.6,2.8c-2,0-4-0.2-5.8-0.4c0-1.3,0.2-2.7,0.5-3.4c0.4-0.8,0.1-3.2-0.1-4.7c1.3-0.1,2.3-0.3,2.6-0.4
				c0.4-0.2,2.6-1.6,5.1-3.1c-0.5,0.9-1,1.7-1,2.1C502,269.1,502.6,271.8,502.6,271.8z"/>
		</g>
		<g>
			<path class="st124" d="M516.5,274.9c-0.8-1.9-2.1-2.6-3-3.2c-1.2-0.8-10.9,0.1-10.9,0.1s-0.6-2.7-0.6-3.7c0-0.4,0.5-1.3,1-2.1
				c3.3-2,6.9-4.3,6.9-4.3s5.8,4.7,8.3,4.9c2.5,0.2,10.9-3,10.9-3s1.5,5.5,1.5,6.8c-0.1,1.3-0.8,3.7-0.8,3.7s-0.2,0-0.5,0
				c-2.1,0.1-10.1,0.6-12.5,1.1C516.6,275,516.6,274.9,516.5,274.9z"/>
		</g>
	</g>
	<g>
		<g>
			<path class="st122" d="M560.3,282L560.3,282C560.4,282.1,560.3,282,560.3,282z"/>
		</g>
		<g>
			<path class="st123" d="M525.6,276.3c0,0,5.2,2.5,12.3,3.5c1.8,0.3,3.8,0.4,5.8,0.4c5.3,0,13.5-2.2,15.6-2.8
				c0.1,0,0.2-0.1,0.4-0.1c2.5-0.4,10.5-1,12.5-1.1c1.1,0.1,0.9,0.2,0.9,0.2l-0.3,5.5h-12.4c0.1-0.1,0.1-0.7-0.2-2.1
				c-6.8,0.3-7.3,2.1-17.2,2.1c-10.3,0-16.5-3-17.3-3.1C525,278.8,525.5,276.9,525.6,276.3z"/>
		</g>
		<g>
			<path class="st206" d="M538.5,276.5c-0.3,0.7-0.5,2.1-0.5,3.4c-7.2-1-12.3-3.5-12.3-3.5c0,0,0,0,0,0c0.1-0.3,1.7-3.3,3.6-3.7
				c1.4-0.3,6.1-0.5,9.1-0.8C538.6,273.3,538.8,275.7,538.5,276.5z"/>
		</g>
		<g>
			<path class="st122" d="M545.7,274.1c0,0,9.7-0.9,10.9-0.1c1,0.6,2.3,1.3,3,3.2c0,0.1,0.1,0.2,0.1,0.3c-0.1,0-0.3,0.1-0.4,0.1
				c-2.1,0.5-10.3,2.8-15.6,2.8c-2,0-4-0.2-5.8-0.4c0-1.3,0.2-2.7,0.5-3.4c0.4-0.8,0.1-3.2-0.1-4.7c1.3-0.1,2.3-0.3,2.6-0.4
				c0.4-0.2,2.6-1.6,5.1-3.1c-0.5,0.9-1,1.7-1,2.1C545.1,271.4,545.7,274.1,545.7,274.1z"/>
		</g>
		<g>
			<path class="st124" d="M559.6,277.2c-0.8-1.9-2.1-2.6-3-3.2c-1.2-0.8-10.9,0.1-10.9,0.1s-0.6-2.7-0.6-3.7c0-0.4,0.5-1.3,1-2.1
				c3.3-2,6.9-4.3,6.9-4.3s5.8,4.7,8.3,4.9c2.5,0.2,10.9-3,10.9-3s1.5,5.5,1.5,6.8c-0.1,1.3-0.8,3.7-0.8,3.7s-0.2,0-0.5,0
				c-2.1,0.1-10.1,0.6-12.5,1.1C559.7,277.3,559.7,277.3,559.6,277.2z"/>
		</g>
	</g>
	<g>
		<path class="st82" d="M557.5,88.3c0,0,6.1-10.4,10.2-13c4.1-2.6,8.3-14.2,8.3-14.2s21.6,8.1,33.3,38.5
			c3.4,8.9,26.1,39.7,28.2,52.2c3.9,22.5-1.3,40-4.4,40.7c-4.8,1.2-46.6-15.7-55.9-24.9c-5.7-5.6-17.4-51.8-17.4-51.8
			s16.2-5.8,10.8-18.5C565,84.7,557.5,88.3,557.5,88.3z"/>
	</g>
	<g>
		<path class="st130" d="M517.1,88.5c0-0.5-0.3-5.5-0.3-5.5s2,1.2,5.4-1.5c3.4-2.7,4.7-6,4.7-6l1.9,6c0,0-5.4,6-7.2,5.9
			C519.8,87.3,517.1,88.5,517.1,88.5z"/>
	</g>
	<g>
		<g>
			<g>
				<g>
					<g>
						<g>
							<path class="st82" d="M619.2,191.8c-22.4,7.5-67.5-1.3-67.5-1.3s-19.8,72.8-21.4,74.5c-1.6,1.7-18,6.5-23.4,5.4
								c-5.5-1.1,0-9.9,0-9.9s8.1-15.8,8.1-20.9c0-3.8,11-41.1,16.5-60.6c1.9-6.6,7-11.4,13.3-12.5l67.4,2.5
								C612.1,169,625.2,189.8,619.2,191.8z"/>
						</g>
					</g>
					<g>
						<g>
							<path class="st207" d="M622.5,194.3c-3.2,0.3-59-4-59-4s10.7,69.5,9.1,71.2s-18,6.2-23.4,5.1c-5.5-1.1,0-9.5,0-9.5
								s-7.8-3.8-7.8-6.8s1.8-8.4,1.8-13.2c0-4.9-7-47.1-7-47.1s-1-8.1,0-10.5c1.4-3.4,10.1-10.5,10.1-10.5l89.4-13.9
								C635.8,155,652.2,191.2,622.5,194.3z"/>
						</g>
					</g>
				</g>
			</g>
		</g>
	</g>
	<g>
		<path class="st207" d="M561.8,80.1c-5.5,7.1-19.5,24.5-19.5,24.5l-12.6-27c0,0-7.3,8.4-10.9,9.1c-0.9,0.2-2.8,0-2.8,0
			s5.9,41.7,17.8,43.6c7.4,1.2,40.1-18.5,44.3-22.3c6.6-6.1,17.9-25.5,10.8-36.8C581.8,59.8,567.3,73,561.8,80.1z"/>
	</g>
	<g>
		<g>
			<polygon class="st6" points="467.8,217.2 464.7,227.9 471.6,233 476.4,229.7 			"/>
		</g>
		<g>
			<g>
				<path class="st6" d="M444.9,233.6c0,0-4.1,9.9-3.4,13.3c0.7,3.4,9.1,4.3,9.6,3.5c0.6-0.8,2.9-14.8,2.9-14.8L444.9,233.6z"/>
			</g>
			<g>
				<g>
					<path class="st86" d="M457.4,260.8c-3.1-0.1-6.5,0.1-6.9,0.1c-0.4,0-2.9-3.2-5.2-2.9c-1.7,0.2-4.1-0.4-5.5-0.9
						c0.1,1.7,0.2,3.2,0.5,3.4c0.6,0.3,8.2,2.4,10.1,3c1.9,0.6,5.7,0.4,8,0.3c2.3-0.1,18.1,0,18.1,0s0.2-1.6,0.3-2.9
						C472.5,260.9,459.9,260.9,457.4,260.8z"/>
				</g>
				<g>
					<path class="st148" d="M445.2,258c2.3-0.3,4.8,2.9,5.2,2.9c0.4,0,3.8-0.3,6.9-0.1c2.5,0.1,15.1,0,19.5,0
						c0.1-0.7,0.1-1.3,0.1-1.5c-0.1-0.6-9.4-4.5-10.7-5.6c-1.3-1.1-8.4-11.6-8.4-11.6l-5.4,0.4c0,0-8.3,7.8-8.7,7.4
						c-0.4-0.4-1.4-5.6-1.4-5.6s-2.7,6.2-2.7,8c0,0.9,0,3,0.1,4.9C441.1,257.7,443.6,258.2,445.2,258z"/>
				</g>
			</g>
		</g>
		<g>
			<g>
				<g>
					<g>
						<path class="st149" d="M450.7,75.7c0,0,0.1-3.9,3.2-2.2c3.2,1.6,9.4,51.5,9.4,51.5l-19.2,4.4L450.7,75.7z"/>
					</g>
					<g>
						<rect x="409.8" y="69.8" class="st208" width="30.6" height="36.5"/>
					</g>
					<g>
						<path class="st194" d="M426,75.2c0,0-1.4,7.7-0.6,15.4c0.7,7.7,0.7,36.3,0.7,36.3l1.9,9.4c0,0,4.6,3.9,4.7,4.4
							c0.1,0.5,6.1-4.9,6.1-4.9s-1.6-33-2.7-35.9c-1.1-3-7.1-24.6-7.1-24.6H426z"/>
					</g>
					<g>
						<path class="st194" d="M421.2,69.8l4.2,7.6c0,0,2-1.2,3.2-0.9c1.2,0.4,1.4,0.7,1.4,0.7l0.9-6.4c0,0-1.7-2-3.8-1.7
							C424.9,69.2,421.2,69.8,421.2,69.8z"/>
					</g>
					<g>
						<path class="st209" d="M435.7,37.2c0,0,2.9-0.1,2.5-4.8c-0.4-4.7,1.7-14.9-12.9-14.9c-15.1,0-14.3,6-15.4,9.4
							c-1.1,3.5,0.1,11.5,1.9,13.8c1.7,2.2,6.1,4,6.8,3.1L435.7,37.2z"/>
					</g>
					<g>
						<path class="st45" d="M415.2,50.9l-1.6,9.2c0,0,8.6,10.2,11.5,9.7c3-0.5,6-4.7,6-4.7l0.4-13.4L415.2,50.9z"/>
					</g>
					<g>
						<path class="st4" d="M435.8,26.9l1.1,16c0,0-1.5,10.2-2.7,12c-1.2,1.9-4.6,4.6-5.1,4.7c-0.5,0.1-4.7,0.1-5.3-0.2
							c-0.6-0.4-7.4-4.7-7.8-5.7c-0.4-1-1.5-6.7-1.5-6.7s-0.5,0.9-2-0.4c-1.5-1.2-2.2-7.4-1.7-8.7c0.5-1.2,3.4,2.7,3.4,2.7l3-13.4
							c0,0,7.6,3.2,11.4,2.9C432.3,29.8,435.8,26.9,435.8,26.9z"/>
					</g>
					<g>
						<path class="st4" d="M435.4,39.3c0,0,1.1-3.2,2.4-2.8c1.3,0.4,0.8,2.6,0.6,3.4c-0.2,0.8-0.1,4.8-0.9,5.2
							c-0.8,0.4-2.1-1.8-2.1-1.8l-0.1-3.5L435.4,39.3z"/>
					</g>
					<g>
						<path class="st130" d="M413.1,56.5c0,0,2.1,6.3,4.8,7.9c2.7,1.6,7.8,4.8,7.8,4.8l-10.7,6.2l-6-13.2L413.1,56.5z"/>
					</g>
					<g>
						<path class="st130" d="M431,59.8l3.1,4.8l0.6,9.7L427,69c0,0,3.5-4,3.5-5c0-1,0.4-4,0.4-4L431,59.8z"/>
					</g>
					<g>
						<path class="st135" d="M434.7,126.1l-0.1,0.8l-4,18.5c0,0-11.4,6.7-14.8,9c-3.3,2.4-24.5,2.7-24.5,2.7s4.1-15.5,6.1-23.6
							c2-8.1-1.9-17.4-1.9-17.4l-5.5-43.2l14.5-9.2l7-4.4c0,0,8.3,23.6,10.4,26.4C424.1,88.5,434.7,126.1,434.7,126.1z"/>
					</g>
					<g>
						<path class="st146" d="M434.7,126.1l-0.1,0.8c-3.9-10-30.1-57.2-30.1-57.2l3.9-2.6l-4.8-0.8l1.1-2.5l7-4.4
							c0,0,8.3,23.6,10.4,26.4C424.1,88.5,434.7,126.1,434.7,126.1z"/>
					</g>
					<g>
						<ellipse class="st121" cx="431.7" cy="127.2" rx="1.2" ry="2"/>
					</g>
					<g>
						<ellipse class="st121" cx="428" cy="132.6" rx="1.5" ry="2.4"/>
					</g>
					<g>
						<path class="st134" d="M460.9,162.7c0,0-6.3,7.6-10.3,5c-4-2.6-20.5-40-20.5-40l0.6-4.7l5-38.5l-2.9-21.2l7.3,3.4l13.9,6.6
							c0,0-1.4,19.3-4.6,32.8c-3.2,13.5-1.5,20.1-1.2,20.7C448.3,127.3,460.9,162.7,460.9,162.7z"/>
					</g>
					<g>
						<path class="st146" d="M430.7,122.9l5-38.5l-2.9-21.2l7.3,3.4l2.8,6.9l-3.2-1.1l5.2,5.3C444.9,77.7,435.1,108.6,430.7,122.9z"
							/>
					</g>
					<g>
						<g>
							<g>
								<path class="st141" d="M429.2,115.4l9.1-1.8c1.3-0.2,2.6-0.2,3.8,0.1l5.2,1.3c1.7,0.4,3.2,1.4,4.4,2.7l6.1,7l-21.7-3.5
									L429.2,115.4z"/>
							</g>
							<g>
								<path class="st4" d="M430,116.4l-1,7.4c0,0,7.5-0.4,10-0.8c1.2-0.2,4.5-1.3,4.5-1.3l4.6,0.3l1.8,1c0,0,1.3,1.8,2.5,1.9
									c1.2,0.2,1.6-0.5,1.6-0.5l-2.2-2.7l-4.1-2.8l-6.8-3.3L430,116.4z"/>
							</g>
						</g>
						<g>
							<path class="st72" d="M427.4,115.4l-0.3,0.5l1.4,8.5l6.4-0.8c0,0-0.9-2.8-2.5-4c-1.6-1.2-1.5-4.7-1.5-4.7L427.4,115.4z"/>
						</g>
						<g>
							<path class="st146" d="M394,75.8c0,0-1.1-3.6-3.8-3c-2.7,0.6-6.5,1-8.3,30.7c-1.1,17.6,5.1,22.2,13.3,23.4
								c15.7,2.3,38.7-2.4,38.7-2.4s-1.2-0.5-3-3.3c-1.8-2.8-2.3-7.8-2.3-7.8s-27.7,4.2-27.2-2c0.5-6.2,0.5-10.3-1.1-16.4
								C398.4,88.9,394,75.8,394,75.8z"/>
						</g>
					</g>
				</g>
			</g>
		</g>
		<g>
			<g>
				<polygon class="st210" points="465.4,124.5 473.2,90.2 514,90.2 506.9,121.5 503.8,128.6 464.4,128.6 440.6,126.6 440.9,123.2 
									"/>
			</g>
			<g>
				<g>
					<path class="st134" d="M398.5,134.1c0,0,53.1-4.2,56.1,1.3c3.1,5.4,26.5,86.7,26.5,86.7l-17.5,7.1l-25.8-70.6
						c0,0-11.7,9.3-28.4,8.7c-5.4-0.2-12.7-4.6-16.1-15.8C389.9,140.3,398.5,134.1,398.5,134.1z"/>
				</g>
			</g>
		</g>
		<g>
			<g>
				<path class="st211" d="M478.4,240c1.8,0.5,6.4,2.3,10.4-0.2c2.5-1.5,7.4-5.2,10.9-7.8c-0.6-0.6-2.6-2.5-4.8-3.1
					c-2.6-0.7-9.6-1.8-13.4-5.1c-3.8-3.3-1.3-2.3-5.5-1.9c-4.2,0.4-5.5,7.7-8.1,9c-0.7,0.3-1.1,0.3-1.4,0.1c0.2,1.4,0.4,3.1,0.7,4.2
					c0.5,1.8,2.9,4.6,4,5.7c1.5,0.3,3.3,0.3,4.4-0.4C477.7,239.1,476.6,239.5,478.4,240z"/>
			</g>
			<g>
				<path class="st86" d="M499.7,232c-3.5,2.6-8.4,6.3-10.9,7.8c-4.1,2.5-8.6,0.7-10.4,0.2s-0.7-0.9-2.8,0.5c-1,0.7-2.8,0.6-4.4,0.4
					c0.3,0.3,0.5,0.5,0.5,0.5l1.2,2.2l6.3-0.9c0,0-1.9-1.1-0.9-1.7c1-0.6,3.2,1.7,5.1,1.7c2,0,6.6-1.1,12.6-5.2
					c6-4.1,3.8-5.2,3.8-5.2S499.8,232.2,499.7,232z"/>
			</g>
		</g>
		<g>
			<g>
				<path class="st133" d="M456.8,246.8c0.7-1.2,1.1-2.6,0.9-4.2c-2.9-19.6-9.4-72.6-11.4-79.8c-1-3.6-3.9-5.5-7.1-6.2
					c2.7,12.4,6.3,41.1,6.9,49.9C446.8,216.3,453,235.6,456.8,246.8z"/>
			</g>
			<g>
				<path class="st133" d="M446.1,206.5c-0.6-8.8-4.2-37.4-6.9-49.9c-5.3-1.1-11.7,0.9-13.6,3.4c-4.8,6.4-3.2,34.8-2.1,42.7
					c1.8,13.4,15.9,43.5,15.9,43.5l10.3,3.3c2.9,0.9,5.8-0.4,7.2-2.7C453,235.6,446.8,216.3,446.1,206.5z"/>
			</g>
		</g>
	</g>
	<g>
		<rect x="212" y="125.5" class="st156" width="355" height="10.1"/>
	</g>
	<g>
		<g>
			<rect x="269.9" y="149.2" class="st157" width="14.6" height="137.7"/>
		</g>
		<g>
			<rect x="498.8" y="149.2" class="st157" width="14.6" height="137.7"/>
		</g>
	</g>
	<g>
		<rect x="236.3" y="135.7" class="st156" width="307.3" height="21.3"/>
	</g>
	<g>
		<rect x="236.3" y="135.7" class="st157" width="307.3" height="5.8"/>
	</g>
	<g>
		<g>
			<g>
				<path class="st131" d="M214.7,285.3l-13.1-66.5c-2.4-12.4-10.6-21-19.8-21H146c-9.2,0-17.4,8.6-19.8,21l-13,66.5l-4.3-0.9
					l13-66.5c2.8-14.5,12.8-24.5,24.1-24.5h35.9c11.4,0,21.3,10.1,24.1,24.5l13.1,66.5L214.7,285.3z"/>
			</g>
		</g>
		<g>
			<path class="st55" d="M109.9,135.9c0,0,56.8-4,61.6,4.4s10.5,47.1,18.1,51.2c7.7,4,10.1,3.6,10.1,3.6l-67.7-2l-8.1-10.9l30.8-1.6
				c0,0,1.4-7.7-16.7-13.3c-18.1-5.6-23-5.2-23-5.2L109.9,135.9z"/>
		</g>
	</g>
	<g>
		<g>
			<g>
				<path class="st131" d="M654.9,285.3l-13-66.5c-2.4-12.4-10.6-21-19.8-21h-35.9c-9.2,0-17.4,8.6-19.8,21l-13,66.5l-4.3-0.9
					l13-66.5c2.8-14.5,12.8-24.5,24.1-24.5H622c11.4,0,21.3,10.1,24.1,24.5l13,66.5L654.9,285.3z"/>
			</g>
		</g>
		<g>
			<path class="st55" d="M658.1,135.9c0,0-56.8-4-61.6,4.4s-10.5,47.1-18.1,51.2c-7.7,4-10.1,3.6-10.1,3.6l67.7-2l8.1-10.9
				l-30.8-1.6c0,0-1.4-7.7,16.7-13.3c18.1-5.6,23-5.2,23-5.2L658.1,135.9z"/>
		</g>
	</g>
</g>
</svg>
