<?xml version="1.0" encoding="utf-8"?>
<!-- Generator: Adobe Illustrator 21.0.0, SVG Export Plug-In . SVG Version: 6.00 Build 0)  -->
<svg version="1.1" id="Layer_1" xmlns="http://www.w3.org/2000/svg" xmlns:xlink="http://www.w3.org/1999/xlink" x="0px" y="0px"
	 viewBox="0 0 768 300" style="enable-background:new 0 0 768 300;" xml:space="preserve">
<style type="text/css">
	.st0{fill:#E6E7E8;}
	.st1{fill:#242333;}
	.st2{fill:#FFB888;}
	.st3{fill:#150C0F;}
	.st4{fill:#FFC197;}
	.st5{fill:#E6E6FF;}
	.st6{fill:#335572;}
	.st7{fill:#1B1D23;}
	.st8{fill:#6A402E;}
	.st9{fill:#454563;}
	.st10{fill:#598253;}
	.st11{fill:#D3A192;}
	.st12{fill:#DDB2A2;}
	.st13{fill:#51915E;}
	.st14{fill:#5E8658;}
	.st15{fill:#364163;}
	.st16{fill:#202C52;}
	.st17{fill:#688D63;}
	.st18{fill:#121119;}
	.st19{fill:#FFE7D7;}
	.st20{fill:#7DAD86;}
	.st21{fill:#1D3322;}
	.st22{fill:#0C2412;}
	.st23{fill:#C18B87;}
	.st24{fill:#7D9E79;}
	.st25{fill:#35756C;}
	.st26{fill:#4B807A;}
	.st27{fill:#3A1A39;}
	.st28{fill:#F7CDAF;}
	.st29{fill:#BF8D84;}
	.st30{fill:#796F89;}
	.st31{fill:#100D14;}
	.st32{fill:#564966;}
	.st33{fill:#625475;}
	.st34{fill:#695C7C;}
	.st35{fill:#2B082A;}
	.st36{fill:#DCFFF3;}
	.st37{fill:#F4B990;}
	.st38{fill:#432342;}
	.st39{fill:#F3CFC1;}
	.st40{fill:#F7CAAB;}
	.st41{fill:#873A00;}
	.st42{fill:#D3F6EA;}
	.st43{fill:#6B5569;}
	.st44{fill:#745F72;}
	.st45{fill:#F2AD86;}
	.st46{fill:#918397;}
	.st47{fill:#C4F3E3;}
	.st48{fill:#7D697B;}
	.st49{fill:#837081;}
	.st50{fill:#6D566A;}
	.st51{fill:#927AA9;}
	.st52{fill:#E2F9F1;}
	.st53{fill:#5C3113;}
	.st54{enable-background:new    ;}
	.st55{fill:#54BDBF;}
	.st56{fill:#740B03;}
	.st57{fill:#94EDEA;}
	.st58{fill:#77D8D8;}
	.st59{fill:#68598E;}
	.st60{fill:#FFCBA1;}
	.st61{fill:#EABA24;}
	.st62{fill:#DEC3F4;}
	.st63{fill:#E8D5F7;}
	.st64{fill:#5E4E87;}
	.st65{fill:#F8F2FD;}
	.st66{fill:#25154A;}
	.st67{fill:#322355;}
	.st68{fill:#40355C;}
	.st69{fill:#756798;}
	.st70{fill:#7B6E9D;}
	.st71{fill:#428F65;}
	.st72{fill:#C0F0FF;}
	.st73{fill:#4B956C;}
	.st74{fill:#469168;}
	.st75{fill:#257749;}
	.st76{fill:#365042;}
	.st77{fill:#3D5648;}
	.st78{fill:#223F2F;}
	.st79{fill:#6AA785;}
	.st80{fill:#D9F6FF;}
	.st81{fill:#4A6254;}
	.st82{fill:#2F4B3C;}
	.st83{fill:#FFC6A9;}
	.st84{fill:#FFDBC9;}
	.st85{fill:#27362D;}
	.st86{fill:#100B0F;}
	.st87{fill:#FFD0B0;}
	.st88{fill:#5D6862;}
	.st89{fill:#C0EDED;}
	.st90{fill:#A0E4E4;}
	.st91{fill:#D7F7FF;}
	.st92{fill:#707BA1;}
	.st93{fill:#6A759D;}
	.st94{fill:#606C96;}
	.st95{fill:#7D87A9;}
	.st96{fill:#45455C;}
	.st97{fill:#3C4357;}
	.st98{fill:#47475D;}
	.st99{fill:#FFCEB5;}
	.st100{fill:#42495C;}
	.st101{fill:#FFDBC8;}
	.st102{fill:#636F99;}
	.st103{fill:#8D95B4;}
	.st104{fill:#CFE8E5;}
	.st105{fill:#F5F6F7;}
	.st106{fill:#FFBF94;}
	.st107{fill:#521C59;}
	.st108{fill:#DFB0A1;}
	.st109{fill:#D69985;}
	.st110{fill:#411249;}
	.st111{fill:#F2BF9C;}
	.st112{fill:#FFE394;}
	.st113{fill:#56205D;}
	.st114{fill:#683870;}
	.st115{fill:#F6D3BB;}
	.st116{fill:#A32914;}
	.st117{fill:#E6FFFC;}
	.st118{fill:#772F2F;}
	.st119{fill:#E8DFDF;}
	.st120{fill:#722828;}
	.st121{fill:#6C6F7A;}
	.st122{fill:#350000;}
	.st123{fill:#593126;}
	.st124{fill:#230000;}
	.st125{fill:#5D81A6;}
	.st126{fill:#34537C;}
	.st127{fill:#EFB68F;}
	.st128{fill:#2A4B6B;}
	.st129{fill:#C7D6E2;}
	.st130{fill:#F3F3F3;}
	.st131{fill:#99C9D6;}
	.st132{fill:#475B73;}
	.st133{fill:#32517A;}
	.st134{fill:#536D90;}
	.st135{fill:#526F9B;}
	.st136{fill:#0F0F11;}
	.st137{fill:#5C8D8B;}
	.st138{fill:#385473;}
	.st139{fill:#AFE3EF;}
	.st140{fill:#7D4534;}
	.st141{fill:#F2AF81;}
	.st142{fill:#BA3900;}
	.st143{fill:#3E5C82;}
	.st144{fill:#3D0606;}
	.st145{fill:#2D0000;}
	.st146{fill:#6A83A9;}
	.st147{fill:#101319;}
	.st148{fill:#151A21;}
	.st149{fill:#4B668A;}
	.st150{fill:#B0E3FF;}
	.st151{fill:#A50C00;}
	.st152{fill:#25601E;}
	.st153{fill:#245E1E;}
	.st154{fill:#C7EEFF;}
	.st155{fill:#F9B28F;}
	.st156{fill:#9FC3CF;}
	.st157{fill:#608F9E;}
	.st158{fill:#E9FFFD;}
	.st159{fill:#F8FFFF;}
	.st160{fill:#FFFFFF;}
	.st161{fill:#421000;}
	.st162{fill:#D1D7E5;}
	.st163{fill:#EAEDF4;}
	.st164{fill:#F3F6FF;}
	.st165{fill:#E2EDED;}
	.st166{fill:#232877;}
	.st167{fill:#E83A28;}
	.st168{fill:#FF7364;}
	.st169{fill:#DCF5F9;}
	.st170{fill:#FF5027;}
	.st171{fill:#232865;}
	.st172{fill:#7A4039;}
	.st173{fill:#232835;}
	.st174{fill:#141926;}
	.st175{fill:#263349;}
	.st176{fill:#30242E;}
	.st177{fill:#EAE4DF;}
	.st178{fill:#22474D;}
	.st179{fill:#316D63;}
	.st180{fill:#49737A;}
	.st181{fill:#151515;}
	.st182{fill:#E9B7A0;}
	.st183{fill:#FBCCBA;}
	.st184{fill:#2F353F;}
	.st185{fill:#290E3A;}
	.st186{fill:#4B3B54;}
	.st187{fill:#BAC6DB;}
	.st188{fill:#3E221A;}
	.st189{fill:#66668A;}
	.st190{fill:#000103;}
	.st191{fill:#3F3E83;}
	.st192{fill:#CED1E0;}
	.st193{fill:#DDDFEC;}
	.st194{fill:#540D0D;}
	.st195{fill:#3D3C82;}
	.st196{fill:#291B1D;}
	.st197{fill:#FFAF78;}
	.st198{fill:#FFDED4;}
	.st199{fill:#F4D2AB;}
	.st200{fill:#300600;}
	.st201{fill:#EFD7B9;}
	.st202{fill:#222327;}
	.st203{fill:#2E0000;}
	.st204{fill:#4F2C22;}
	.st205{fill:#3D0B0B;}
	.st206{fill:#440C0C;}
	.st207{fill:#425E4E;}
	.st208{fill:#EFE8DF;}
	.st209{fill:#3E3E3E;}
	.st210{fill:#05162D;}
	.st211{fill:#2A2A2C;}
	.st212{fill:#B6B19E;}
	.st213{fill:#8DA9B0;}
	.st214{fill:#5F665F;}
	.st215{fill:#BF897B;}
	.st216{fill:#AD7866;}
	.st217{fill:#FFCAB3;}
	.st218{fill:#2C57A5;}
	.st219{opacity:0.14;fill:url(#SVGID_1_);}
	.st220{opacity:0.5;}
	.st221{fill:url(#SVGID_2_);}
	.st222{fill:#306CC4;}
	.st223{fill:#5D5D5D;}
	.st224{fill:#C2C8D3;}
	.st225{opacity:0.3;fill:#C2C8D3;}
	.st226{fill:none;stroke:#FFFFFF;stroke-width:1.584;stroke-linecap:square;stroke-miterlimit:10;}
	.st227{fill:url(#SVGID_3_);}
	.st228{fill:#F2F2F2;}
	.st229{fill:#E6E6E6;}
	.st230{fill:#4D4D4D;}
	.st231{fill:#666666;}
</style>
<rect class="st0" width="768" height="300"/>
<g>
	<g>
		<g>
			<path class="st118" d="M454.3,50.3c0,0,9.5-0.4,15.4,10c5.9,10.5,9.9,51.3,9.9,51.3l-7.4,7.1c0,0-13-52.2-13.7-52.2
				C457.8,66.5,454.3,50.3,454.3,50.3z"/>
		</g>
		<g>
			<g>
				<path class="st119" d="M462.7,60.3l-2.9-6.2c-13.1-6.4-19.3-4.7-19.3-4.7s-4.6,1.2-9.7,3.6L464.3,92L462.7,60.3z"/>
			</g>
			<g>
				<path class="st120" d="M475.4,106.1c0,0-1.3-45-15-51.7c-0.2-0.1-0.5-0.2-0.7-0.3l2.9,6.2l1.6,31.8L430.8,53
					c-4.9,2.3-10.3,5.6-11.9,9.8c-3.3,8.5-4.2,71.9,40.6,76.1C498.2,142.5,475.4,106.1,475.4,106.1z"/>
			</g>
		</g>
		<g>
			<g>
				<g>
					<g>
						<rect x="517.3" y="196.8" class="st121" width="12" height="13.6"/>
					</g>
					<g>
						<rect x="556" y="190" class="st121" width="12" height="13.6"/>
					</g>
					<g>
						<g>
							<path class="st120" d="M482.7,125.6c2.6-0.7,49.9,3.9,49.9,3.9s16.8,64.3,18.1,65.8c1.3,1.5,15.2,5.6,19.8,4.6
								c4.6-1,0-8.5,0-8.5s-6.8-13.5-6.8-17.9c0-3.3-9.3-37.2-14-53.9c-1.6-5.6-5.9-9.8-11.2-10.7l-57-5L482.7,125.6z"/>
						</g>
						<g>
							<g>
								<path class="st122" d="M565.2,210.9L565.2,210.9C565.2,211,565.2,210.9,565.2,210.9z"/>
							</g>
							<g>
								<path class="st123" d="M592.5,206.5c0,0-4.1,2-9.7,2.8c-1.4,0.2-3,0.3-4.6,0.3c-4.2,0-10.6-1.8-12.3-2.2
									c-0.1,0-0.2,0-0.3-0.1c-1.9-0.3-8.2-0.7-9.8-0.8c-0.8,0.1-0.7,0.1-0.7,0.1l0.3,4.3h9.8c0-0.1,0-0.5,0.1-1.6
									c5.4,0.2,5.7,1.6,13.5,1.6c8.1,0,12.9-2.3,13.6-2.4C593,208.4,592.6,206.9,592.5,206.5z"/>
							</g>
							<g>
								<path class="st122" d="M582.4,206.6c0.3,0.6,0.4,1.7,0.4,2.7c5.6-0.8,9.7-2.8,9.7-2.8c0,0,0,0,0,0c-0.1-0.2-1.4-2.6-2.8-2.9
									c-1.1-0.2-4.8-0.4-7.2-0.7C582.3,204.1,582.1,206,582.4,206.6z"/>
							</g>
							<g>
								<path class="st122" d="M576.8,204.7c0,0-7.6-0.7-8.6-0.1c-0.8,0.5-1.8,1-2.4,2.5c0,0.1-0.1,0.1-0.1,0.2c0.1,0,0.2,0,0.3,0.1
									c1.7,0.4,8.1,2.2,12.3,2.2c1.6,0,3.1-0.1,4.6-0.3c0-1-0.2-2.1-0.4-2.7c-0.3-0.6-0.1-2.5,0.1-3.7c-1-0.1-1.8-0.2-2-0.3
									c-0.3-0.2-2.1-1.2-4-2.4c0.4,0.7,0.8,1.3,0.8,1.7C577.2,202.6,576.8,204.7,576.8,204.7z"/>
							</g>
							<g>
								<path class="st124" d="M565.8,207.1c0.6-1.5,1.6-2,2.4-2.5c1-0.6,8.6,0.1,8.6,0.1s0.5-2.1,0.5-2.9c0-0.3-0.4-1-0.8-1.7
									c-2.6-1.6-5.4-3.4-5.4-3.4s-4.6,3.7-6.5,3.8c-2,0.2-8.5-2.4-8.5-2.4s-1.2,4.4-1.1,5.3c0.1,1,0.6,2.9,0.6,2.9s0.1,0,0.4,0
									c1.6,0.1,7.9,0.5,9.8,0.8C565.7,207.3,565.8,207.2,565.8,207.1z"/>
							</g>
						</g>
					</g>
					<g>
						<g>
							<path class="st118" d="M473.7,137.3c2.6-0.7,49.9,3.7,49.9,3.7s-9,61.5-7.7,62.9c1.3,1.4,15.2,5.3,19.8,4.4
								c4.6-0.9,0-8.1,0-8.1s6.6-3.2,6.6-5.8s-1.5-7.2-1.5-11.3c0-4.2,5.9-42.3,5.9-42.3s0.8-6.9,0-9c-1.2-2.9-8.6-9-8.6-9
								l-57.2-9.2L473.7,137.3z"/>
						</g>
						<g>
							<g>
								<path class="st122" d="M526,218L526,218C525.9,218.1,526,218,526,218z"/>
							</g>
							<g>
								<path class="st123" d="M553.2,213.6c0,0-4.1,2-9.7,2.8c-1.4,0.2-3,0.3-4.6,0.3c-4.2,0-10.6-1.8-12.3-2.2
									c-0.1,0-0.2,0-0.3-0.1c-1.9-0.3-8.2-0.7-9.8-0.8c-0.8,0.1-0.7,0.1-0.7,0.1l0.3,4.3h9.8c0-0.1,0-0.5,0.1-1.6
									c5.4,0.2,5.7,1.6,13.5,1.6c8.1,0,12.9-2.3,13.6-2.4C553.7,215.5,553.3,214,553.2,213.6z"/>
							</g>
							<g>
								<path class="st122" d="M543.1,213.7c0.3,0.6,0.4,1.7,0.4,2.7c5.6-0.8,9.7-2.8,9.7-2.8c0,0,0,0,0,0c-0.1-0.2-1.4-2.6-2.8-2.9
									c-1.1-0.2-4.8-0.4-7.2-0.7C543.1,211.2,542.9,213,543.1,213.7z"/>
							</g>
							<g>
								<path class="st122" d="M537.5,211.8c0,0-7.6-0.7-8.6-0.1c-0.8,0.5-1.8,1-2.4,2.5c0,0.1-0.1,0.1-0.1,0.2c0.1,0,0.2,0,0.3,0.1
									c1.7,0.4,8.1,2.2,12.3,2.2c1.6,0,3.1-0.1,4.6-0.3c0-1-0.2-2.1-0.4-2.7c-0.3-0.6-0.1-2.5,0.1-3.7c-1-0.1-1.8-0.2-2-0.3
									c-0.3-0.2-2.1-1.2-4-2.4c0.4,0.7,0.8,1.3,0.8,1.7C538,209.7,537.5,211.8,537.5,211.8z"/>
							</g>
							<g>
								<path class="st124" d="M526.5,214.2c0.6-1.5,1.6-2,2.4-2.5c1-0.6,8.6,0.1,8.6,0.1s0.5-2.1,0.5-2.9c0-0.3-0.4-1-0.8-1.7
									c-2.6-1.6-5.4-3.4-5.4-3.4s-4.6,3.7-6.5,3.8c-2,0.2-8.5-2.4-8.5-2.4s-1.2,4.3-1.1,5.3c0.1,1,0.6,2.9,0.6,2.9s0.1,0,0.4,0
									c1.6,0.1,7.9,0.5,9.8,0.8C526.5,214.4,526.5,214.3,526.5,214.2z"/>
							</g>
						</g>
					</g>
					<g>
						<g>
							<polygon class="st125" points="501.1,93.3 528.5,104.6 497.4,120.5 470,109.2 470.6,104.5 							"/>
						</g>
					</g>
					<g>
						<g>
							<path class="st87" d="M467.1,109.8l5.6-0.8l3.5-2.7l11.4-2.2c0,0,14.7,8.7,12.1,9.8c-1.2,0.5-4.2-0.3-6.6-1.2
								c1.3,1,0.9,1.7,0.9,1.7l-25.1,2.7c-0.2-0.2-0.3-0.4-0.5-0.7C466.9,114.4,466.7,112,467.1,109.8z"/>
						</g>
					</g>
					<g>
						<path class="st118" d="M422.9,58.3l0.2,0c8.9-0.5,16.6,6.1,17.6,15l3.7,32.4l28,2.1c-0.4,2.2,1.5,9.8,1.5,9.8l-33,3.4
							c-4,1.3-8.3-0.5-10.3-4.2c-3.7-7.3-9.5-19.2-11.8-27.3C415.3,76.9,415.9,67.4,422.9,58.3z"/>
					</g>
					<g>
						<g>
							<polygon class="st125" points="540.3,66 543.6,66.9 500.9,121.4 497.5,120.5 509.8,77.2 							"/>
						</g>
						<g>
							<polygon class="st126" points="543.6,66.9 530.9,108.4 500.9,121.4 513.1,78.2 							"/>
						</g>
					</g>
				</g>
			</g>
			<g>
				<path class="st127" d="M452.7,46.8c0,0,2.2,8-0.3,8.9c-2.5,0.9-2.9,1.6-9-0.5c-7.6-2.6-7.5-10.2-7.5-10.2s5.6-1.6,4.9-3.4
					C440.2,39.7,452.7,46.8,452.7,46.8z"/>
			</g>
		</g>
		<g>
			<g>
				<path class="st6" d="M451.6,59.7c0,0,0.6,7.2,3,13.9c2.4,6.7,3,9.8,3,9.8l6.4,8c0,0,0.7-13.5-1-15.9c-1.7-2.4-8.7-16.5-8.7-16.5
					L451.6,59.7z"/>
			</g>
			<g>
				<path class="st128" d="M446.1,56l5.5,5.8c0,0,1.5-1.6,2.6-1.5c1.2,0,1.4,0.3,1.4,0.3l-0.7-5.9c0,0-2-1.4-3.8-0.7
					C449.3,54.6,446.1,56,446.1,56z"/>
			</g>
			<g>
				<g>
					<path class="st129" d="M461.4,57.5c0,0-9.2-4.6-11.1-3c-1.8-0.6-7.3,7-7.3,7l8.6-5.6L461.4,57.5z"/>
				</g>
			</g>
			<g>
				<path class="st130" d="M435.9,45c0,0,1.2,6.2,4,7c2.8,0.8,11.2,2,11.2,2l-8,7.5l-11.4-9.3L435.9,45z"/>
			</g>
			<g>
				<path class="st130" d="M459,56.8l-2.9-1l-1.2-0.4l-3.4-1.2l-0.5-0.2c0,0,2.1-4.4,1.9-5.2c-0.1-0.3-0.2-0.7-0.2-1.2
					c0,0,0-0.1,0-0.1l3.2,0.6l0.3,0.3l2.6,8L459,56.8z"/>
			</g>
			<g>
				<path class="st118" d="M470.7,99.1l-41.5-39.4l2.8-3.2l-4.5,0.4l0.4-2.5l5.1-5.6c0,0,12.7,19.1,15.3,21.1
					C450.9,72,470.7,99.1,470.7,99.1z"/>
			</g>
			<g>
				<path class="st118" d="M466.7,57.5c0,0-0.9,19.1-1.6,33.8c0,0.8-0.1,1.5-0.1,2.2c-0.1,2.8-0.3,5.4-0.4,7.5l-1.1-8.9l-0.2-1.7
					l-0.2-1.9l-2.1-16.7l-0.8-6.3l-3.6-9l-0.4-0.9l-0.3-0.7l-3.1-7.6l0-0.1h0l3.2,0.6l4,0.8l4,5.5l-3.1-0.3L466.7,57.5z"/>
			</g>
		</g>
		<g>
			<g>
				<g>
					<path class="st131" d="M505.2,217.7l-10.7-55.2c-2-10.2-8.6-17.3-16.1-17.3h-29.5c-7.5,0-14.2,7.1-16.1,17.3L422,217.7
						l-3.8-0.7l10.7-55.2c2.3-12,10.5-20.4,19.9-20.4h29.5c9.4,0,17.6,8.4,19.9,20.4L509,217L505.2,217.7z"/>
				</g>
			</g>
			<g>
				<path class="st55" d="M418.2,93.7c0,0,46.6-3.3,50.6,3.7c4,7,8.6,39.1,14.9,42.5c6.3,3.3,8.3,3,8.3,3l-55.5-1.7l-6.6-9l25.3-1.3
					c0,0,1.2-6.4-13.7-11c-14.9-4.7-18.8-4.3-18.8-4.3L418.2,93.7z"/>
			</g>
		</g>
		<g>
			<g>
				<path class="st87" d="M449.6,19.3L454,26l-0.6,4c0,0,6.5,5.4,3.7,6.5c-2.8,1.1-2.8,1.1-2.8,1.1l1.2,3.2c0,0,4,4.4,0.2,5.4
					c-3.8,1-13.4,1.3-13.4,1.3s-5.5-2.1-8.3-4.3c-2.8-2.2-9.7-4.9-3.4-6.8c3.1-0.9-0.4-9.5-0.4-9.5L449.6,19.3z"/>
			</g>
			<g>
				<path class="st132" d="M451,20c0,0-8.2,2.1-10.6,5.6c-2.4,3.5,0.2,13.3-2.4,12.9c-2.6-0.4-5.5-2.5-7.4-1.4
					c-1.8,1.1,2.8,5.5,4.4,5.4c1.5-0.1,3.3,0.2,3.3,0.2l4.6,5.1c0,0-10.3-1.3-16.1-8.6c-5.8-7.3-9.3-20.3-3.5-23.4
					C449.8,1.9,451,20,451,20z"/>
			</g>
		</g>
	</g>
	<g>
		<g>
			<path class="st122" d="M657.4,286.8L657.4,286.8C657.5,286.9,657.4,286.8,657.4,286.8z"/>
		</g>
		<g>
			<path class="st123" d="M623.6,281.2c0,0,5,2.5,12,3.4c1.8,0.3,3.7,0.4,5.7,0.4c5.2,0,13.2-2.2,15.2-2.7c0.1,0,0.2,0,0.4-0.1
				c2.4-0.4,10.2-0.9,12.2-1c1.1,0.1,0.9,0.2,0.9,0.2l-0.3,5.3h-12.1c0-0.1,0.1-0.6-0.2-2c-6.6,0.3-7.1,2-16.8,2
				c-10.1,0-16.1-2.9-16.8-3C623,283.6,623.5,281.8,623.6,281.2z"/>
		</g>
		<g>
			<path class="st122" d="M636.1,281.4c-0.3,0.7-0.5,2.1-0.5,3.3c-7-1-12-3.4-12-3.4c0,0,0,0,0,0c0.1-0.3,1.7-3.2,3.5-3.6
				c1.3-0.3,6-0.5,8.9-0.8C636.2,278.3,636.5,280.6,636.1,281.4z"/>
		</g>
		<g>
			<path class="st122" d="M643.1,279c0,0,9.4-0.9,10.7-0.1c1,0.6,2.2,1.2,3,3.1c0,0.1,0.1,0.2,0.1,0.3c-0.1,0-0.3,0.1-0.4,0.1
				c-2.1,0.5-10,2.7-15.2,2.7c-2,0-3.9-0.2-5.7-0.4c0-1.3,0.2-2.6,0.5-3.3c0.3-0.8,0.1-3.1-0.1-4.6c1.3-0.1,2.3-0.3,2.5-0.4
				c0.4-0.2,2.6-1.5,4.9-3c-0.5,0.8-1,1.7-1,2.1C642.5,276.4,643.1,279,643.1,279z"/>
		</g>
		<g>
			<path class="st124" d="M656.7,282c-0.8-1.9-2-2.5-3-3.1c-1.2-0.8-10.7,0.1-10.7,0.1s-0.6-2.6-0.6-3.6c0-0.4,0.4-1.2,1-2.1
				c3.2-2,6.7-4.2,6.7-4.2s5.7,4.6,8.1,4.8c2.4,0.2,10.6-3,10.6-3s1.5,5.4,1.4,6.6c-0.1,1.2-0.8,3.6-0.8,3.6s-0.2,0-0.5,0
				c-2,0.1-9.8,0.6-12.2,1C656.8,282.2,656.8,282.1,656.7,282z"/>
		</g>
	</g>
	<g>
		<g>
			<g>
				<path class="st133" d="M670.5,273.5c0,0-0.6,0-1.6,0.1c-5,0.3-20.6,1.1-26.6-0.6c-0.7-0.2-1.4-0.4-1.8-0.7
					c-4.4-3,0-16.4,0.5-22.8c0-0.4,0-1.2-0.1-2.3l-22.8-86.7c0,0,35.1-6.6,38.8-3.6c3.7,3,6,28.3,6,29.5
					C662.9,187.5,670.5,273.5,670.5,273.5z"/>
			</g>
		</g>
	</g>
	<g>
		<g>
			<path class="st134" d="M662.2,89c0-6.9-6.2-28.4-8-31.4c-1.8-3-19.5,8.3-19.5,8.3S623.9,85.8,623.2,92
				c-0.5,4.6-8.4,44.8-12.4,65.4c-1.2,6.1,3.7,11.8,9.9,11.5l2.6-0.1c0-1.5-0.1-3.2-0.1-5c-0.6-46.7,7-28.8,5.1-55.3
				C626.5,81.9,638.9,58,651,63.1c12.2,5.1,0.4,54.5,0.4,54.5s2.6,9.7,2.6,18.2c0,5.7-1.3,21.7-2.2,31.6l9.2-0.4
				C661,167,662.2,95.9,662.2,89z"/>
		</g>
		<g>
			<path class="st135" d="M651.5,117.6c0,0,11.7-49.4-0.4-54.5c-12.2-5.1-24.5,18.9-22.6,45.4c1.9,26.5-5.8,8.6-5.1,55.3
				c0,1.8,0.1,3.4,0.1,5l28.4-1.4c0.9-10,2.2-26,2.2-31.6C654,127.3,651.5,117.6,651.5,117.6z"/>
		</g>
	</g>
	<g>
		<g>
			<g>
				<path class="st136" d="M409.9,230.8l2.7,1.4v0.9h-11c-1.1,0-2-0.7-2.3-1.7c-1-3.3-3.1-10.1-4.2-10.5c-1.4-0.6-3.2-0.8-3.2-0.8
					v13.4H388c0,0-1.6-12.9-1.5-14.3c0.1-1.4,0.1-1.9,0.9-2.9c0.8-1,10.7,2.8,10.7,2.8L409.9,230.8z"/>
			</g>
			<g>
				<path class="st137" d="M404,215.6c0,0,0.9,8.8,2.3,9.7c1.4,0.9,6.1,3.5,6.3,4.5c0.2,1,0,2.4,0,2.4s-11.1,0.2-11.6-0.6
					c-0.5-0.8-4-11.6-5.8-12.5c-1.7-1-6.5-1.3-6.5-1.3l-1.6-0.4c0,0,0.1-4.3,1.7-6.3C390.4,209.1,404,215.6,404,215.6z"/>
			</g>
		</g>
		<g>
			<g>
				<path class="st136" d="M439,230.8l2.7,1.4v0.9h-11c-1.1,0-2-0.7-2.3-1.7c-1-3.3-3.1-10.1-4.2-10.5c-1.4-0.6-3.2-0.8-3.2-0.8
					v13.4h-3.9c0,0-1.6-12.9-1.5-14.3c0.1-1.4,0.1-1.9,0.9-2.9c0.8-1,10.7,2.8,10.7,2.8L439,230.8z"/>
			</g>
			<g>
				<path class="st137" d="M423.7,205.7c0,0,10.6,11.5,11.7,19.6c0.2,1.7,6.1,3.5,6.3,4.5c0.2,1,0,2.4,0,2.4s-11.1,0.2-11.6-0.6
					c-0.5-0.8-4-11.6-5.8-12.5c-1.7-1-6.5-1.3-6.5-1.3l-1.6-0.4c0,0,0.1-4.3,1.7-6.3C419.5,209.1,423.7,205.7,423.7,205.7z"/>
			</g>
		</g>
		<g>
			<g>
				<path class="st138" d="M316.3,140.8c0,0,0.8,23.6,11.9,23.6c11.1,0,56.7-1.9,56.7-1.9s0.8,13.4,5.4,18.4
					c4.6,4.9,26.3,33.4,26.3,33.4l7.9-6.5c0,0-10.3-26.1-12.7-34.8c-2.4-8.8-6-24.1-8.1-26.6c-2.2-2.5-48.8-7.1-48.8-7.1l-7.3-13.7
					L316.3,140.8z"/>
			</g>
			<g>
				<path class="st125" d="M345.8,139.1c0,0,64.5-5.5,65.6,0.8s-7.4,75.7-7.4,75.7l-14.1-4.5c0,0-3.2-33.7-2.1-38.9
					c1.1-5.2,6-17.8,6-17.8s-49.6,13.3-57.6,11.7c-8-1.6-19.3-20.3-19.3-20.3L345.8,139.1z"/>
			</g>
			<g>
				<path class="st139" d="M315.2,80.1c0,0,0.8-8.2,8.4-8.5c7.6-0.3,14.6,4.3,14.6,4.3s11.1,24.8,11.1,34.1c0,9.3-2.4,23.6-2.4,23.6
					s-27.1,8.5-28.2,8.8C317.6,142.7,315.2,80.1,315.2,80.1z"/>
			</g>
			<g>
				<path class="st127" d="M318.9,72.9c4.3-3.8,1-15.9,1-15.9l12.3,3.1l0.6,18.2C332.8,78.3,314.8,76.5,318.9,72.9z"/>
			</g>
			<g>
				<g>
					<path class="st4" d="M342.6,57.4c0,0,3.5-2.6,2.6-3c-2.9-1-5.2-4.9-5.2-4.9s0.4-1.2-0.2-4.1c-0.6-2.9-4.9-6.4-4.9-6.4
						s-8.8-3.4-14.6-0.5c-5.4,2.2-9,10.7-7.8,16.6c1.2,5.7,6,9.7,11.5,9.9c7.2,2.5,19,2.9,19,2.3c0.1-0.7,0.4-4.4,1.6-5.3
						c0.3-0.2-1.3-0.9-1.3-0.9s1.2-0.8,1.2-1.3C344.5,59.2,342.6,57.4,342.6,57.4z"/>
				</g>
				<g>
					<path class="st118" d="M336.6,40.5c0,0-6.8,1.5-7.1,4.5c-0.3,3,0.9,12.1-0.6,11.6c-1.5-0.5-2.2-4.7-4.6-4.1
						c-2.4,0.6-4.4,4.8-1.4,7c3,2.2,3.3,3.1,0.5,4.6c-2.8,1.5-10.6,0.1-12.5-7.2c-1.9-7.3,4-16.5,4-16.5s8.9-6,12-6
						C330.8,34.3,341,39.5,336.6,40.5z"/>
				</g>
				<g>
					<path class="st118" d="M318.1,42.1c0,0,4.8-2.6,0.7-6.1c-4.1-3.5-5-4.5-10.5-2.5c-5.5,2-6.4,21,1.8,18.2
						c8.3-2.7,7.8-9.5,7.8-9.5L318.1,42.1z"/>
				</g>
			</g>
			<g>
				<polygon class="st140" points="370,130.9 380.5,128.7 387.1,128.7 396.5,133.6 400.6,137.1 388.9,138 375.1,135.5 				"/>
			</g>
			<g>
				<path class="st72" d="M321.2,85.9c0,0-1.7-7.4-5.6-7.4c-10.6,0-10.4,15.2-7.7,23.4c2.7,8.1,29,35.8,35,36.9
					c6,1.1,34.4-2.5,34.4-2.5s-2.2-8.7-8.1-10.3c-6-1.5-27.4-1.8-27.4-1.8L321.2,85.9z"/>
			</g>
			<g>
				<path class="st72" d="M320.1,70.7c0,0,3.3,5.1,6.5,5.3c3.3,0.3,6.5,1.1,6.5,1.1s-0.3,2.8-1.6,5.8c-0.9,2-13.1-6.6-14.1-7.7
					L320.1,70.7z"/>
			</g>
		</g>
	</g>
	<g>
		<g>
			<g>
				<path class="st4" d="M578.5,92.1l-0.1-0.3c0,0-10.3-0.1-14.4-1.6c-1.4-0.5-3.8-3.1-5.1-4.6c-0.6-0.8-1.1-1.6-1.3-2.6
					c-0.4-1.9-1.1-5-0.7-5.1c1.5-0.2,3.7,2.1,3.7,2.1s-3-3.6-3.2-5.2c-0.1-1.6,3.7,2.8,3.7,2.8l12.3,4.4c-0.4-0.3-3.7-2.8-4.3-4.5
					c-0.6-1.8,1.3-2.7,1.6-1.3c0.3,1.3,4.8,3.4,8.1,5.3c3,1.7,4,5.4,4.2,6.1l-0.2-0.2L578.5,92.1z"/>
			</g>
		</g>
		<g>
			<g>
				<path class="st4" d="M626.2,32.3c-2.7,3.9-3.2,5.8-3.2,9.2c0,3.5-0.9,4.6-0.9,4.6l-2.8,5.1l3.5,1.2l0.9,3h2.5l-1.4,1.4l0.9,2.8
					c0,0-1.8,3.7,0.5,3.2c2.3-0.5,7.8-0.2,7.8-0.2l2.1,3l17.1-10.1l-2.1-4.2c0,0,9-10.8-0.5-20.1C641.2,21.9,626.7,31.6,626.2,32.3z
					"/>
			</g>
		</g>
		<g>
			<g>
				<path class="st120" d="M629.7,37.2c0,0-9.2,3-8.1,0c1.2-3,4.4-12.5,18-12.2c13.6,0.2,16.8,11.1,16.4,16.8
					c-0.5,5.8-1.8,10.4-1.8,10.4L644,53.8l-0.2-4.4c0,0,3.7-1.8,1.8-7.1c-1.8-5.3-6.5-2.3-6.5,0.9c0,3.2-1.2,5.1-1.2,5.1L629.7,37.2
					z"/>
			</g>
		</g>
		<g>
			<g>
				<path class="st125" d="M652.8,84c-2.3,2.7-32.3,33.2-32.3,33.2l-39.9-16.4c0,0-0.9-1.9-1.6-6.2c-0.1-0.5-0.2-1.1-0.2-1.6
					c-0.5-4.2,1.6-8.8,2.7-10.8c0.3-0.6,0.6-1,0.6-1l33,14.3L640.5,69l0.2-0.7C655.1,55.6,657.4,78.7,652.8,84z"/>
			</g>
		</g>
		<g>
			<g>
				<path class="st125" d="M652.9,53.1l2,6.7c0,0-15,3.2-17.1,5.6c-2.2,2.3-7,8.7-7,8.7s0.3-7.3,4.3-10.4
					C639.2,60.4,652.9,53.1,652.9,53.1z"/>
			</g>
		</g>
	</g>
	<g>
		<g>
			<g>
				<path class="st131" d="M386.7,235.5l-9.5-48.9c-1.7-8.9-7.5-15.2-14.1-15.2H337c-6.6,0-12.4,6.2-14.1,15.2l-9.5,48.9l-3.8-0.7
					l9.5-48.9c2.1-10.8,9.4-18.3,17.9-18.3h26.1c8.4,0,15.8,7.5,17.9,18.3l9.5,48.9L386.7,235.5z"/>
			</g>
		</g>
		<g>
			<path class="st55" d="M310.8,125.6c0,0,41.3-3,44.8,3.3c3.5,6.2,7.6,34.7,13.2,37.6c5.6,3,7.3,2.7,7.3,2.7l-49.2-1.5l-5.9-8
				l22.4-1.2c0,0,1-5.6-12.2-9.8c-13.2-4.1-16.7-3.9-16.7-3.9L310.8,125.6z"/>
		</g>
	</g>
	<g>
		<g>
			<g>
				<g>
					<path class="st141" d="M294.9,117l5.4-4.1l6.7,1.2l4.8,2.9l2.9,2.9c0,0,0.1,1.1-1.1,1.1c-1.2,0-18.3,0-18.3,0L294.9,117z"/>
				</g>
				<g>
					<path class="st4" d="M293.8,117.3l6.3-4.8l7.9,1.5l4.4,2.9c0,0,2.6,3.3,3,3.3c0.4,0-0.1,0.8-1.6,0.7c-1.5-0.1-3.4-2.4-3.4-2.4
						l-3.8-1.8c0,0-3.7-0.7-4.5-0.3s1,2.7,1,2.7l3.3-0.2c0,0,2.3-0.7,3.2-0.4c1,0.4,0.6,1.9,0.6,1.9l-1.4,0.7l-14.6-0.2L293.8,117.3
						z"/>
				</g>
			</g>
			<g>
				<path class="st142" d="M258.3,48.8c0,0,1.1-1.3-0.1-2.6c-1.2-1.4-6.6-6.9-13.4-5.4c-6.8,1.5-10.5,6.8-10.8,10.9
					c-0.3,4.1,3.3,9.9,3.3,9.9s-1.5,0.6-3.3,2.7c-1.8,2.1-1.2,6.8-0.8,7.8c0.4,0.9-1.8,5.9-1.8,5.9s7.4-0.1,7.8-0.4
					c0.4-0.4,6.8-14,6.8-14.2L258.3,48.8z"/>
			</g>
			<g>
				<path class="st138" d="M259.9,86.4l11.1,21c0,0,24.7,8.2,24.9,7.6c0.2-0.6,0.1,6,0.1,6s-25.1,0-26.5-0.6
					c-1.4-0.6-25.8-20.9-25.8-20.9L259.9,86.4z"/>
			</g>
			<g>
				<path class="st143" d="M246.5,71.9c0,0,4.3,14.5,4.4,19.9c0.2,5.4-7.9,46.6-8.7,47.7c-0.8,1.1,11.8,0.9,11.8,0.9
					s8.5-26.6,9.2-30.2c0.7-3.5-2.3-22.8-2.3-22.8L250.4,73L246.5,71.9z"/>
			</g>
			<g>
				<path class="st125" d="M248.7,77.1l2.1-2.7c0,0,2.6,3.5,2.8,5.8c0.3,2.3,3.6,28.4,3.6,28.4s-2.3-3-2.8-5.5
					C254.1,100.6,248.7,77.1,248.7,77.1z"/>
			</g>
			<g>
				<path class="st135" d="M229.6,135.3c0,0-7,15.4,1.2,20.5c8.1,5.1,40,6.3,40,6.3l6,39.8l20.2-7.7l-13.3-41
					c-0.7-2.3-2.5-4.1-4.8-4.8l-30.5-9.7l-19.4-4.3L229.6,135.3z"/>
			</g>
			<g>
				<path class="st11" d="M239.4,74.2l4.8-10.3l8.2,2.3l2,3.3c0,0-5.5,11.9-5.6,14.7c-0.1,2.8,0.7,9,0.7,9L239.4,74.2z"/>
			</g>
			<g>
				<path class="st12" d="M258.5,46.6c0,0,0,0.1,0.1,0.2c0.6,1.4,3.4,8.3,3.4,9c0,0.9,0.9,2.9,0.1,3.9c-0.8,1.1-2.1,6.3-1.9,7.3
					c0.2,1,0.3,3.8-2.3,3.4c-2.6-0.4-9.5-0.1-11.5-1.9c-2-1.9-2.3-5.2-2.3-5.2s-0.6-0.3-2.1-1.7c-1.5-1.4-2.8-5.5-1.5-6.2
					c1.3-0.7,5.1,3.8,5.1,3.8s-0.8-1.6-0.1-3c0.7-1.5,2.6-1.9,3.2-3.2c0.6-1.3,0-4.5,1.5-4.9L258.5,46.6z"/>
			</g>
			<g>
				<g>
					<path class="st144" d="M292.9,232.9c-4.1-0.2-12.2-0.4-12.9-0.3c-1,0.1-3-6.1-5.1-7.4c-1.2-0.7-4-0.4-6.4,0
						c-0.3-2.8-0.1-5.3,0.4-7.7c9.2,1.5,10.1,4.5,11.3,6.4c0.6,1,1.9,1.2,2.9,1.2c0.5,1.1,1,2,1.3,2.5c1.7,2.3,4.7,2,6.7,2.6
						C292.3,230.5,292.7,231.8,292.9,232.9z"/>
				</g>
				<g>
					<path class="st145" d="M280,232.6c-1,0.1-3-6.1-5.1-7.4c-1.2-0.7-4-0.4-6.3,0c0.1,0.9,0.3,1.8,0.5,2.7c1.4,5.4,1.7,6.5,1.7,6.5
						h2.6l-0.6-7.4c0,0,2.8-2.3,4.3,2.6c1.4,4.8-0.6,4.6,3.1,4.6s12.8,0.3,12.8,0.3s0.1-0.7,0-1.5
						C288.7,232.8,280.7,232.5,280,232.6z"/>
				</g>
				<g>
					<path class="st12" d="M280.3,223.9c0.6,1,1.9,1.2,2.9,1.2c-1.9-4.1-4.5-11.2-4.5-11.2l1.1-18.2l-11.4,4.3c0,0,0,0.1,0.1,0.4
						c0.5,1.8,2.3,9.5,1.3,13.3c-0.3,1.2-0.7,2.5-0.9,3.8C278.2,219,279,222,280.3,223.9z"/>
				</g>
			</g>
			<g>
				<g>
					<path class="st144" d="M311.5,232.9c-4.1-0.2-12.2-0.4-12.9-0.3c-1,0.1-3-6.1-5.1-7.4c-1.2-0.7-4-0.4-6.4,0
						c-0.3-2.8-0.1-5.3,0.4-7.7c9.2,1.5,10.1,4.5,11.3,6.4c0.6,1,1.9,1.2,2.9,1.2c0.5,1.1,1,2,1.3,2.5c1.7,2.3,4.7,2,6.7,2.6
						C311,230.5,311.4,231.8,311.5,232.9z"/>
				</g>
				<g>
					<path class="st145" d="M298.6,232.6c-1,0.1-3-6.1-5.1-7.4c-1.2-0.7-4-0.4-6.3,0c0.1,0.9,0.3,1.8,0.5,2.7
						c1.4,5.4,1.7,6.5,1.7,6.5h2.6l-0.6-7.4c0,0,2.8-2.3,4.3,2.6c1.4,4.8-0.6,4.6,3.1,4.6c3.7,0,12.8,0.3,12.8,0.3s0.1-0.7,0-1.5
						C307.4,232.8,299.3,232.5,298.6,232.6z"/>
				</g>
				<g>
					<path class="st12" d="M298.9,223.9c0.6,1,1.9,1.2,2.9,1.2c-1.9-4.1-4.5-11.2-4.5-11.2l-3.8-19.6l-11.4,4.3c0,0,0,0.1,0.1,0.4
						c0.5,1.8,7.3,10.9,6.3,14.7c-0.3,1.2-0.7,2.5-0.9,3.8C296.8,219,297.6,222,298.9,223.9z"/>
				</g>
			</g>
			<g>
				<path class="st146" d="M218.4,140.3c0,0-7,15.4,1.2,20.5c8.1,5.1,40,6.3,40,6.3l6,39.8l20.2-7.7l-8.5-44.7c0,0,0-6-10-5.4
					c-10,0.6-30.2-5.4-30.2-5.4l-19.4-4.3L218.4,140.3z"/>
			</g>
			<g>
				<path class="st143" d="M232.8,73.2l7.8-1.9c0,0,14.1,31.6,13.6,34.6c-0.5,3-10.6,33.6-10.5,39.1c0.1,5.5-4.7,10.1-4.7,10.1
					l-25-11.3c0,0,11.2-19.1,13.5-24.6c2.3-5.5,0.6-26.8,0.6-26.8L232.8,73.2z"/>
			</g>
			<g>
				<path class="st125" d="M241.7,69.3c0,0,3.7,13.5,5.5,16.7c1.8,3.2,8.6,16.9,9.5,20.2c0.9,3.3,1.3,4.9,1.3,4.9
					s-7.3-14.2-10.5-17.1c-3.1-2.8-7.1-12-7.1-12s0.6-3.3,0.9-3.5c0.3-0.1-1.1-0.6-1.1-0.6l-1.8-6.3L241.7,69.3z"/>
			</g>
			<g>
				<path class="st12" d="M248.7,145c0,0,2.7,4.8,6.3,4.6c3.6-0.3,6.6,0.3,6.6,0.3s1.6,0.4,2.1,0c0.5-0.4,0.2-0.8,0.2-0.8
					s2.1,0.3,2.4,0.6c0.4,0.3,1.5,0.4,2.1,0c0.6-0.4,0.6-0.4,0.6-0.4s0.9,0.1,1.1-0.4c0.3-0.6-5.2-3.3-6-3.8
					c-0.9-0.5-6.6-1.6-6.6-1.6l-5.1-0.4L248.7,145z"/>
			</g>
			<g>
				<path class="st125" d="M238.7,79.5c0,0-3.1,37.5-1.8,40.4c3.7,8,21,21.4,21,21.4l-10.9,6.8c0,0-23.1-21.9-22.6-28.8
					c0.5-6.8,0.1-38.7,3-43C229.7,72.8,239.6,69.9,238.7,79.5z"/>
			</g>
		</g>
		<g>
			<g>
				<g>
					<path class="st131" d="M264.9,235.5l-9.3-47.6c-1.7-8.7-7.4-14.7-13.8-14.7H216c-6.4,0-12.1,6.1-13.8,14.7l-9.3,47.6l-3.8-0.7
						l9.3-47.6c2.1-10.5,9.3-17.8,17.6-17.8h25.7c8.3,0,15.5,7.3,17.6,17.8l9.3,47.6L264.9,235.5z"/>
				</g>
			</g>
			<g>
				<path class="st55" d="M190.1,128.5c0,0,40.7-2.9,44.1,3.2c3.5,6.1,7.5,33.7,13,36.6s7.2,2.6,7.2,2.6l-48.5-1.4l-5.8-7.8
					l22.1-1.2c0,0,1-5.5-12-9.5c-13-4-16.4-3.7-16.4-3.7L190.1,128.5z"/>
			</g>
		</g>
	</g>
	<g>
		<g>
			<g>
				<path class="st131" d="M206,281.1l-9.7-49.3c-1.8-9-7.7-15.3-14.4-15.3h-26.6c-6.7,0-12.6,6.3-14.4,15.3l-9.7,49.3l-3.8-0.7
					l9.7-49.3c2.1-10.8,9.6-18.4,18.2-18.4h26.6c8.6,0,16,7.6,18.2,18.4l9.7,49.3L206,281.1z"/>
			</g>
		</g>
		<g>
			<path class="st55" d="M130.8,175.3c0,0,42.1-3,45.7,3.3c3.6,6.3,7.8,32.9,13.4,35.9c5.7,3,7.5,4.7,7.5,4.7l-27.3,3.2l-38.1-2.9
				l2.6-24.9L130.8,175.3z"/>
		</g>
		<g>
			<g>
				<g>
					<g>
						<g>
							<g>
								<path class="st6" d="M203.8,261.4c0,0-3,7.2-2.5,9.7c0.5,2.5,4.9,7.5,5.3,6.9c0.4-0.6,3.9-15.2,3.9-15.2L203.8,261.4z"/>
							</g>
							<g>
								<g>
									<path class="st7" d="M212.9,281.3c-2.2-0.1-4.8-1.4-5-1.4c-0.3,0-2.1-0.8-3.8-0.7c-1.2,0.1-3-0.3-4-0.6
										c0.1,1.3,0.2,2.4,0.4,2.5c0.5,0.2,6,0.2,7.4,0.7s4.2,1.8,5.9,1.7c1.7-0.1,13.2,0,13.2,0s0.2-1.2,0.2-2.1
										C224,281.3,214.8,281.4,212.9,281.3z"/>
								</g>
								<g>
									<path class="st147" d="M204.1,279.2c1.7-0.2,3.5,0.7,3.8,0.7c0.3,0,2.8,1.3,5,1.4c1.8,0.1,11.1,0,14.2,0c0-0.5,0.1-1,0-1.1
										c-0.1-0.5-6.9-3.3-7.8-4.1c-0.9-0.8-6.2-8.5-6.2-8.5l-3.9,0.3c0,0-6.1,5.7-6.3,5.4c-0.3-0.3-1-4.1-1-4.1s-2,4.6-2,5.9
										c0,0.7,0,2.2,0.1,3.5C201.1,279,202.9,279.4,204.1,279.2z"/>
								</g>
							</g>
						</g>
						<g>
							<g>
								<path class="st6" d="M187.8,263.5c0,0-3,7.2-2.5,9.7c0.5,2.5,6.6,3.2,7.1,2.6c0.4-0.6,2.1-10.8,2.1-10.8L187.8,263.5z"/>
							</g>
							<g>
								<g>
									<path class="st7" d="M197,283.4c-2.2-0.1-4.8,0.1-5,0.1c-0.3,0-2.1-2.3-3.8-2.1c-1.2,0.1-3-0.3-4-0.6
										c0.1,1.3,0.2,2.4,0.4,2.5c0.5,0.2,6,1.7,7.4,2.2s4.2,0.3,5.9,0.2c1.7-0.1,13.2,0,13.2,0s0.2-1.2,0.2-2.1
										C208,283.4,198.8,283.5,197,283.4z"/>
								</g>
								<g>
									<path class="st148" d="M188.1,281.3c1.7-0.2,3.5,2.1,3.8,2.1c0.3,0,2.8-0.2,5-0.1c1.8,0.1,11.1,0,14.2,0c0-0.5,0.1-1,0-1.1
										c-0.1-0.5-6.9-3.3-7.8-4.1c-0.9-0.8-6.2-8.5-6.2-8.5l-3.9,0.3c0,0-6.1,5.7-6.3,5.4c-0.3-0.3-1-4.1-1-4.1s-2,4.6-2,5.9
										c0,0.7,0,2.2,0.1,3.5C185.1,281.1,186.9,281.5,188.1,281.3z"/>
								</g>
							</g>
						</g>
					</g>
					<g>
						<g>
							<g>
								<path class="st132" d="M163.8,215.6c0,0,6.8,2.9,12.7,1.9c5.9-1,29.7-4.1,29.7-4.1s-2.9,16.1-3.1,20.5
									c-0.1,4.3-2.9,29.8-2.9,29.8s8,4.2,10.4,3.5c2.4-0.7,4.7-4.4,4.7-4.4s6.7-37.5,6.9-41.2c0.3-3.7,2.3-19.9,0.7-22.7
									c-1.6-2.8-5.6-7.3-12.8-6.9c-7.2,0.4-56.7,4.4-56.7,4.4L163.8,215.6z"/>
							</g>
						</g>
						<g>
							<g>
								<path class="st125" d="M197.5,269.2c-2.4,3.1-15.5-0.8-15.5-0.8s-7.9-21.1-10.4-27.4c-0.1-0.1-0.1-0.2-0.1-0.4
									c-2.4-6.2-0.8-22.1-0.8-22.1s-16,6-24.8-1.6c-8.8-7.6-6.7-15.9-6.7-15.9s1.9-0.6,5-1.4c9.6-2.6,30.2-7.9,34.5-7.1
									c5.6,1.2,7.2,6.4,7.2,6.4S199.9,266.2,197.5,269.2z"/>
							</g>
						</g>
					</g>
					<g>
						<g>
							<path class="st149" d="M167.1,171.9l4.3,12.2l13.7,2.4c0,0-1.3,0.2-1.7,3.2c-0.4,3-0.4,4.3-0.4,4.3l-21.8-3.5l-4.4-17.3
								L167.1,171.9z"/>
						</g>
						<g>
							<g>
								<g>
									<g>
										<g>
											<path class="st150" d="M146.7,186.3C146.7,186.3,146.7,186.3,146.7,186.3C146.7,186.3,146.7,186.3,146.7,186.3
												C146.7,186.2,146.7,186.2,146.7,186.3c-1.1-1.4-17.7-22.4-19.1-28.9c-0.9-4-2.5-9.9-3.7-14l3-3l15.4,0.4l2.7,2.7
												c1,4.6,2.3,10.7,2.4,14.2C147.7,163.8,146.7,186.3,146.7,186.3z"/>
										</g>
										<g>
											<path class="st149" d="M167.9,174.9c-0.1-0.1-0.3-0.1-0.5-0.2c-3.1-0.8-8.1,1-10.1,2l-2.2-11.3l6.9,29.7
												c0,0-12.8,23.2-25.6,23.7c-12.8,0.5-23.2-18.4-23.2-18.4l-0.4-2.8l2.1-34.1l-4.3,11.1c-1.6-2-7.3-7.4-10.5-5.8
												c3.3-9.9,4.2-23.2,6.6-27.3c3-5,6-1.8,10-1.8h0.1l0.9,4.3l3.3-0.4l-1.7,2.8c0,0,2.3,11.6,8.3,18.9
												c5.8,7,18.4,20.2,19.3,21.2c0,0,0,0,0,0c0,0,0,0,0,0c0,0,0,0,0,0s1.9-27.7,0.9-36.1c-0.5-4.4-2.9-11.4,1.3-10.6
												c0,0,8.6,3.7,11.9,11.3L167.9,174.9z"/>
										</g>
									</g>
									<g>
										<g>
											<polygon class="st151" points="142,140.7 142.3,140.7 142,140.4 											"/>
										</g>
									</g>
									<g>
										<g>
											<path class="st45" d="M139,142.2c1.6-1.3,2.2-2.6,2.6-3.6l0.8-8.2l-7.2-22.8c0,0-7.2,27.1-8.1,30
												c0.3,1.2,0.8,2.8,2.9,4.6C132.3,144.4,136.5,144.4,139,142.2z"/>
										</g>
									</g>
									<g>
										<path class="st152" d="M148.9,181c0,0-5.1-22.6-7.3-27.8c-2.2-5.3-3.1-6.4-3.1-6.4s-2.7,2.6-2.6,3.7c0,0,0,0.2,0,0.3
											c0.6,3.3,5.6,30.4,5.6,30.4L148.9,181z"/>
									</g>
									<g>
										<path class="st153" d="M132.4,141.9c0,0,2.1-1.1,4.2-1.3c2.1-0.2,3.6,0.6,3.6,0.6l-0.5,8.5l-3.2,0.7c0,0-1.8-2.2-3-4.8
											C132.3,143.2,132.4,141.9,132.4,141.9z"/>
									</g>
									<g>
										<g>
											<path class="st154" d="M136.7,140.5c0,0,1.7,0,3.1-2.4c1.4-2.4,1.4-2.4,1.4-2.4l5.8,5l-3.9,5.3L136.7,140.5z"/>
										</g>
										<g>
											<path class="st154" d="M124,137.3l3.4-2.2c0,0-0.1,2.7,2.8,4.2c2.9,1.4,6.6,1.3,6.6,1.3l-8,6.7c0,0-6-2.8-7.4-5.1
												C119.9,139.8,124,137.3,124,137.3z"/>
										</g>
									</g>
								</g>
								<g>
									<path class="st146" d="M146.7,186.2c-1-1-13.6-14.2-19.3-21.2c-6-7.3-8.3-18.9-8.3-18.9l1.7-2.8l-3.3,0.4l-0.9-4.3
										c0.5,0,8-2.7,8-2.7s-1.6,3.9-0.8,6.6c1.2,4.1,2.9,9.9,3.7,14C129,163.8,145.6,184.9,146.7,186.2z"/>
								</g>
								<g>
									<path class="st146" d="M146.7,186.3c0,0,1-22.5,0.7-28.7c-0.2-3.5-1.4-9.6-2.4-14.2c-0.8-3.4-1.4-6-1.4-6l5.3,2.1l1,2.2
										l-2.6,0.3c0,0,2.5,1.4,2.6,1.8c0.1,1.7,0.1,5.1,0.4,7.6C151.3,159.9,146.7,186.3,146.7,186.3z"/>
								</g>
							</g>
						</g>
						<g>
							<path class="st4" d="M183,191.4l5.3,1.4c0,0,2.3,0,3.7,0.1c1.4,0.1,6.6,1.5,6.6,1.5s2-0.3,1.3-1.5c-0.7-1.2-5.5-3-5.5-3
								l5.1,1l3.4,2.1c0,0,1.6,3.2,2.8,3c1.2-0.2,1.2-1.5,1.2-1.5l-3.4-4.6l-3.4-2.4l-6-2.4l-10.4,1.4L183,191.4z"/>
						</g>
						<g>
							<g>
								<path class="st148" d="M146.3,111.3c0,0,2.9-6,2.1-7.3c-0.8-1.3-2.1-3.3-8.1-4.5c-6-1.2-12.9-0.1-15.2,2.8
									c-2.3,2.9-6,7.7-4.8,15.8c1.2,8.1,7.6,11.8,9.5,11.3c1.9-0.5,6.1-8.5,6.1-8.5L146.3,111.3z"/>
							</g>
							<g>
								<path class="st155" d="M148.2,105.7c0,0,3.1,6.4,2.4,7.4c-0.7,1.1-1.3,1.9-0.8,2.8c0.5,0.9,3.1,5.3,2.7,5.9
									c-0.4,0.5-2.1,1.7-2.1,1.7s0.9,1.7,0.5,1.9c-0.4,0.1-1.2,0.9-1.2,0.9s1.6,0.5,1.3,1.2c-0.3,0.7-1.2,2.5-0.9,3.3
									c0.3,0.8,1.5,0.8,0.1,1.6c-1.3,0.8-8.4-0.5-8.9-0.4c-0.5,0.1-5.9-9.9-5.9-9.9s-4,0.9-4.5-0.5c-0.5-1.5-2.5-7.2,0.3-7.2
									s5.6,1.6,5.6,1.6l4.9-6.9L148.2,105.7z"/>
							</g>
						</g>
					</g>
				</g>
			</g>
		</g>
		<g>
			<g>
				<g>
					<path class="st131" d="M181,289.4l-9.7-49.3c-1.8-9-7.7-15.3-14.4-15.3h-26.6c-6.7,0-12.6,6.3-14.4,15.3l-9.7,49.3l-3.8-0.7
						l9.7-49.3c2.1-10.8,9.6-18.4,18.2-18.4h26.6c8.6,0,16,7.6,18.2,18.4l9.7,49.3L181,289.4z"/>
				</g>
			</g>
			<g>
				<path class="st55" d="M103.5,178.6c0,0,42.1-3,45.7,3.3c3.6,6.3,7.8,34.9,13.4,37.9c5.7,3,7.5,2.7,7.5,2.7l-50.2-1.5l-6-8.1
					l22.9-1.2c0,0,1-5.7-12.4-9.9c-13.4-4.2-17-3.9-17-3.9L103.5,178.6z"/>
			</g>
		</g>
		<g>
			<g>
				<path class="st4" d="M132.3,172l-2.2,6.2l8.8,1.1l4.2-0.3l3.9,1.1l1.3,1.2c0,0,0.8,1.8,1.8,2.1c1,0.4,1.5-0.2,1.5-0.2l-1.4-2.7
					l-3-3.1l-5.3-4.1L132.3,172z"/>
			</g>
			<g>
				<path class="st135" d="M97.5,176c0,0-0.1,4,6.9,4.4c7,0.5,26.8,0.4,26.8,0.4l3-11.3c0,0-29.3-7.3-32.9-5.1
					c-4.6,2.8-3.8,10.7-3.8,10.7L97.5,176z"/>
			</g>
		</g>
	</g>
	<g>
		<path class="st149" d="M621.5,139.8c0,0,13.3,2.8,15,2.3c1.7-0.6,6.3-0.6,6.3-0.6l-1.5,10.2c0,0-3.1,0.1-10-1.7
			c-6.8-1.7-10.8-3.4-11.1-5.1C619.9,142.9,621.4,139.7,621.5,139.8z"/>
	</g>
</g>
</svg>
