<?xml version="1.0" encoding="utf-8"?>
<!-- Generator: Adobe Illustrator 21.0.0, SVG Export Plug-In . SVG Version: 6.00 Build 0)  -->
<svg version="1.1" id="Layer_1" xmlns="http://www.w3.org/2000/svg" xmlns:xlink="http://www.w3.org/1999/xlink" x="0px" y="0px"
	 viewBox="0 0 768 300" style="enable-background:new 0 0 768 300;" xml:space="preserve">
<style type="text/css">
	.st0{fill:#E6E7E8;}
	.st1{fill:#242333;}
	.st2{fill:#FFB888;}
	.st3{fill:#150C0F;}
	.st4{fill:#FFC197;}
	.st5{fill:#E6E6FF;}
	.st6{fill:#335572;}
	.st7{fill:#1B1D23;}
	.st8{fill:#6A402E;}
	.st9{fill:#454563;}
	.st10{fill:#598253;}
	.st11{fill:#D3A192;}
	.st12{fill:#DDB2A2;}
	.st13{fill:#51915E;}
	.st14{fill:#5E8658;}
	.st15{fill:#364163;}
	.st16{fill:#202C52;}
	.st17{fill:#688D63;}
	.st18{fill:#121119;}
	.st19{fill:#FFE7D7;}
	.st20{fill:#7DAD86;}
	.st21{fill:#1D3322;}
	.st22{fill:#0C2412;}
	.st23{fill:#C18B87;}
	.st24{fill:#7D9E79;}
	.st25{fill:#35756C;}
	.st26{fill:#4B807A;}
	.st27{fill:#3A1A39;}
	.st28{fill:#F7CDAF;}
	.st29{fill:#BF8D84;}
	.st30{fill:#796F89;}
	.st31{fill:#100D14;}
	.st32{fill:#564966;}
	.st33{fill:#625475;}
	.st34{fill:#695C7C;}
	.st35{fill:#2B082A;}
	.st36{fill:#DCFFF3;}
	.st37{fill:#F4B990;}
	.st38{fill:#432342;}
	.st39{fill:#F3CFC1;}
	.st40{fill:#F7CAAB;}
	.st41{fill:#873A00;}
	.st42{fill:#D3F6EA;}
	.st43{fill:#6B5569;}
	.st44{fill:#745F72;}
	.st45{fill:#F2AD86;}
	.st46{fill:#918397;}
	.st47{fill:#C4F3E3;}
	.st48{fill:#7D697B;}
	.st49{fill:#837081;}
	.st50{fill:#6D566A;}
	.st51{fill:#927AA9;}
	.st52{fill:#E2F9F1;}
	.st53{fill:#5C3113;}
	.st54{enable-background:new    ;}
	.st55{fill:#54BDBF;}
	.st56{fill:#740B03;}
	.st57{fill:#94EDEA;}
	.st58{fill:#77D8D8;}
	.st59{fill:#68598E;}
	.st60{fill:#FFCBA1;}
	.st61{fill:#EABA24;}
	.st62{fill:#DEC3F4;}
	.st63{fill:#E8D5F7;}
	.st64{fill:#5E4E87;}
	.st65{fill:#F8F2FD;}
	.st66{fill:#25154A;}
	.st67{fill:#322355;}
	.st68{fill:#40355C;}
	.st69{fill:#756798;}
	.st70{fill:#7B6E9D;}
	.st71{fill:#428F65;}
	.st72{fill:#C0F0FF;}
	.st73{fill:#4B956C;}
	.st74{fill:#469168;}
	.st75{fill:#257749;}
	.st76{fill:#365042;}
	.st77{fill:#3D5648;}
	.st78{fill:#223F2F;}
	.st79{fill:#6AA785;}
	.st80{fill:#D9F6FF;}
	.st81{fill:#4A6254;}
	.st82{fill:#2F4B3C;}
	.st83{fill:#FFC6A9;}
	.st84{fill:#FFDBC9;}
	.st85{fill:#27362D;}
	.st86{fill:#100B0F;}
	.st87{fill:#FFD0B0;}
	.st88{fill:#5D6862;}
	.st89{fill:#C0EDED;}
	.st90{fill:#A0E4E4;}
	.st91{fill:#D7F7FF;}
	.st92{fill:#707BA1;}
	.st93{fill:#6A759D;}
	.st94{fill:#606C96;}
	.st95{fill:#7D87A9;}
	.st96{fill:#45455C;}
	.st97{fill:#3C4357;}
	.st98{fill:#47475D;}
	.st99{fill:#FFCEB5;}
	.st100{fill:#42495C;}
	.st101{fill:#FFDBC8;}
	.st102{fill:#636F99;}
	.st103{fill:#8D95B4;}
	.st104{fill:#CFE8E5;}
	.st105{fill:#F5F6F7;}
	.st106{fill:#FFBF94;}
	.st107{fill:#521C59;}
	.st108{fill:#DFB0A1;}
	.st109{fill:#D69985;}
	.st110{fill:#411249;}
	.st111{fill:#F2BF9C;}
	.st112{fill:#FFE394;}
	.st113{fill:#56205D;}
	.st114{fill:#683870;}
	.st115{fill:#F6D3BB;}
	.st116{fill:#A32914;}
	.st117{fill:#E6FFFC;}
	.st118{fill:#772F2F;}
	.st119{fill:#E8DFDF;}
	.st120{fill:#722828;}
	.st121{fill:#6C6F7A;}
	.st122{fill:#350000;}
	.st123{fill:#593126;}
	.st124{fill:#230000;}
	.st125{fill:#5D81A6;}
	.st126{fill:#34537C;}
	.st127{fill:#EFB68F;}
	.st128{fill:#2A4B6B;}
	.st129{fill:#C7D6E2;}
	.st130{fill:#F3F3F3;}
	.st131{fill:#99C9D6;}
	.st132{fill:#475B73;}
	.st133{fill:#32517A;}
	.st134{fill:#536D90;}
	.st135{fill:#526F9B;}
	.st136{fill:#0F0F11;}
	.st137{fill:#5C8D8B;}
	.st138{fill:#385473;}
	.st139{fill:#AFE3EF;}
	.st140{fill:#7D4534;}
	.st141{fill:#F2AF81;}
	.st142{fill:#BA3900;}
	.st143{fill:#3E5C82;}
	.st144{fill:#3D0606;}
	.st145{fill:#2D0000;}
	.st146{fill:#6A83A9;}
	.st147{fill:#101319;}
	.st148{fill:#151A21;}
	.st149{fill:#4B668A;}
	.st150{fill:#B0E3FF;}
	.st151{fill:#A50C00;}
	.st152{fill:#25601E;}
	.st153{fill:#245E1E;}
	.st154{fill:#C7EEFF;}
	.st155{fill:#F9B28F;}
	.st156{fill:#9FC3CF;}
	.st157{fill:#608F9E;}
	.st158{fill:#E9FFFD;}
	.st159{fill:#F8FFFF;}
	.st160{fill:#FFFFFF;}
	.st161{fill:#421000;}
	.st162{fill:#D1D7E5;}
	.st163{fill:#EAEDF4;}
	.st164{fill:#F3F6FF;}
	.st165{fill:#E2EDED;}
	.st166{fill:#232877;}
	.st167{fill:#E83A28;}
	.st168{fill:#FF7364;}
	.st169{fill:#DCF5F9;}
	.st170{fill:#FF5027;}
	.st171{fill:#232865;}
	.st172{fill:#7A4039;}
	.st173{fill:#232835;}
	.st174{fill:#141926;}
	.st175{fill:#263349;}
	.st176{fill:#30242E;}
	.st177{fill:#EAE4DF;}
	.st178{fill:#22474D;}
	.st179{fill:#316D63;}
	.st180{fill:#49737A;}
	.st181{fill:#151515;}
	.st182{fill:#E9B7A0;}
	.st183{fill:#FBCCBA;}
	.st184{fill:#2F353F;}
	.st185{fill:#290E3A;}
	.st186{fill:#4B3B54;}
	.st187{fill:#BAC6DB;}
	.st188{fill:#3E221A;}
	.st189{fill:#66668A;}
	.st190{fill:#000103;}
	.st191{fill:#3F3E83;}
	.st192{fill:#CED1E0;}
	.st193{fill:#DDDFEC;}
	.st194{fill:#540D0D;}
	.st195{fill:#3D3C82;}
	.st196{fill:#291B1D;}
	.st197{fill:#FFAF78;}
	.st198{fill:#FFDED4;}
	.st199{fill:#F4D2AB;}
	.st200{fill:#300600;}
	.st201{fill:#EFD7B9;}
	.st202{fill:#222327;}
	.st203{fill:#2E0000;}
	.st204{fill:#4F2C22;}
	.st205{fill:#3D0B0B;}
	.st206{fill:#440C0C;}
	.st207{fill:#425E4E;}
	.st208{fill:#EFE8DF;}
	.st209{fill:#3E3E3E;}
	.st210{fill:#05162D;}
	.st211{fill:#2A2A2C;}
	.st212{fill:#B6B19E;}
	.st213{fill:#8DA9B0;}
	.st214{fill:#5F665F;}
	.st215{fill:#BF897B;}
	.st216{fill:#AD7866;}
	.st217{fill:#FFCAB3;}
	.st218{fill:#2C57A5;}
	.st219{opacity:0.14;fill:url(#SVGID_1_);}
	.st220{opacity:0.5;}
	.st221{fill:url(#SVGID_2_);}
	.st222{fill:#306CC4;}
	.st223{fill:#5D5D5D;}
	.st224{fill:#C2C8D3;}
	.st225{opacity:0.3;fill:#C2C8D3;}
	.st226{fill:none;stroke:#FFFFFF;stroke-width:1.584;stroke-linecap:square;stroke-miterlimit:10;}
	.st227{fill:url(#SVGID_3_);}
	.st228{fill:#F2F2F2;}
	.st229{fill:#E6E6E6;}
	.st230{fill:#4D4D4D;}
	.st231{fill:#666666;}
</style>
<rect class="st0" width="768" height="300"/>
<g>
	<g>
		<g>
			<g>
				<g>
					<rect x="496.5" y="70.5" class="st156" width="4.5" height="199.3"/>
				</g>
				<g>
					<polygon class="st157" points="529.5,264.9 525.1,266.5 496.9,72.3 501.2,70.7 					"/>
				</g>
				<g>
					<polygon class="st157" points="468,264.9 472.3,266.5 500.6,72.3 496.2,70.7 					"/>
				</g>
			</g>
			<g>
				<rect x="494.8" y="266" class="st158" width="7.7" height="7.7"/>
			</g>
			<g>
				<rect x="523.3" y="262.2" class="st158" width="7.7" height="7.7"/>
			</g>
			<g>
				<rect x="467" y="262.2" class="st158" width="7.7" height="7.7"/>
			</g>
		</g>
		<g>
			<g>
				<path class="st159" d="M538.2,176.9h-79c-4.2,0-7.6-3.4-7.6-7.6V20.6c0-4.2,3.4-7.6,7.6-7.6h79c4.2,0,7.6,3.4,7.6,7.6v148.7
					C545.8,173.5,542.4,176.9,538.2,176.9z"/>
			</g>
			<g>
				<path class="st156" d="M538.2,184h-79c-8.1,0-14.7-6.6-14.7-14.7V20.6c0-8.1,6.6-14.7,14.7-14.7h79c8.1,0,14.7,6.6,14.7,14.7
					v148.7C552.9,177.4,546.3,184,538.2,184z M459.2,20.1c-0.3,0-0.5,0.2-0.5,0.5v148.7c0,0.3,0.2,0.5,0.5,0.5h79
					c0.3,0,0.5-0.2,0.5-0.5V20.6c0-0.3-0.2-0.5-0.5-0.5H459.2z"/>
			</g>
			<g>
				<path class="st160" d="M534.7,175.2h-79c-5.2,0-9.4-4.2-9.4-9.4V17.1c0-5.2,4.2-9.4,9.4-9.4h79c5.2,0,9.4,4.2,9.4,9.4v148.7
					C544.1,171,539.8,175.2,534.7,175.2z M455.7,11.2c-3.2,0-5.9,2.6-5.9,5.9v148.7c0,3.2,2.6,5.9,5.9,5.9h79c3.2,0,5.9-2.6,5.9-5.9
					V17.1c0-3.2-2.6-5.9-5.9-5.9H455.7z"/>
			</g>
		</g>
	</g>
	<g>
		<g>
			<g>
				<path class="st136" d="M559.6,282.8l-2.7,1.4v0.9h10.8c1,0,2-0.7,2.3-1.7c1-3.2,3-9.8,4.1-10.2c1.4-0.5,3.1-0.8,3.1-0.8v13h3.8
					c0,0,1.5-12.5,1.5-13.9c-0.1-1.3-0.1-1.8-0.9-2.8c-0.8-1-10.5,2.7-10.5,2.7L559.6,282.8z"/>
			</g>
			<g>
				<path class="st44" d="M565.3,268.1c0,0-0.9,8.5-2.2,9.4c-1.4,0.9-6,3.4-6.2,4.4c-0.2,1,0,2.3,0,2.3s10.9,0.2,11.4-0.5
					c0.5-0.7,3.9-11.2,5.7-12.2c1.7-1,6.4-1.3,6.4-1.3l1.6-0.4c0,0-0.1-4.2-1.7-6.1C578.7,261.8,565.3,268.1,565.3,268.1z"/>
			</g>
		</g>
		<g>
			<g>
				<path class="st136" d="M596.5,281.5c0,0-0.4,1.1-0.2,2.1c0.2,1,0.2,1.8,2,2.1c1.8,0.3,8.4,0.1,8.4,0.1s3.8-1.9,1.4-6.8
					C605.8,274.2,596.5,281.5,596.5,281.5z"/>
			</g>
			<g>
				<path class="st44" d="M598.4,273.4c0,0-2.3,4.9-2.1,8c0.2,3.1,3.4,2.7,4.6,2.6c1.3-0.1,6.5,0.3,7.2-0.6c0.7-0.9,1.4-2.8,0.3-6.7
					C607.2,272.9,598.4,273.4,598.4,273.4z"/>
			</g>
		</g>
		<g>
			<g>
				<g>
					<path class="st32" d="M598.4,159.9l-17,40.7l3.7,69.7c0,0-14.2,6.7-19.9,4.8c-5.7-1.9-7.1-4.2-7.1-4.2l3.9-67.8l11.4-53.5
						l5.4-20.4c0,0,16.8,10.4,18.6,17.2C599.3,153.3,598.4,159.9,598.4,159.9z"/>
				</g>
				<g>
					<g>
						<path class="st33" d="M603.5,198.9c-0.3-5.5-7.6-41.4-10.5-55.4l-6.9,1.5c0,0,13.2,49.9,13.8,58.6c0.6,8.6-6.3,69.9-6.3,69.9
							s2.3,2,5.1,3c0.1,0,0.1,0,0.2,0.1C600,262.2,603.8,204.9,603.5,198.9z"/>
					</g>
					<g>
						<path class="st32" d="M616.1,201.2c0.3-8.8,4.3-40.1,2.3-46.7c-2-6.5-6.8-16.9-6.8-16.9l-18.6,5.9c2.9,14,10.3,49.9,10.5,55.4
							c0.3,6-3.6,63.3-4.6,77.6c3.4,0.8,19-2,19-2S615.8,210,616.1,201.2z"/>
					</g>
				</g>
				<g>
					<path class="st161" d="M586,37.4c0,0-0.8-3.7,0.9-5.7c1.7-2,7.9-5.6,14.2-3.4c6.1,2.1,9.3,4.5,10.9,11.1
						c2.2,8.7-2.6,12.9-1.4,14.2c1.2,1.3-6.2,7.7-6.9,6.8c-0.7-0.9-6.2-13.1-6.2-13.1L586,37.4z"/>
				</g>
				<g>
					<path class="st2" d="M588.1,57.2c0,0,4.1,5.2,4.1,8.4c0,3.2,0.9,6.3,0.9,6.3s0.6,3.8,2.8,2.3c2.1-1.5,9.6-11.5,9.6-11.5
						L600.3,50L588.1,57.2z"/>
				</g>
				<g>
					<path class="st4" d="M586,32.9c-1.6,1.9-3.7,6.9-3.3,8c0.3,1.1,1.9,1.4,0.6,3.4c-1.3,1.9-3.3,4.2-3,4.8
						c0.1,0.2,0.3,0.3,0.5,0.5c0.5,0.3,1.1,0.4,1.7,0.3l0.4-0.1l-0.1,0.9c0,0-0.4,0.6-0.6,1.1c-0.2,0.4,0.9,1.2,0.9,1.2
						s-1.1-0.1-0.4,0.6c0.7,0.7,0.7,2,0.7,2s-1.2,1.9,0.1,2.6c1.3,0.7,9.7-0.1,12-1.2c2.3-1.1,2.9-0.8,3.9-2.9c1-2,1.7-3.9,1.7-3.9
						s2.1,0.5,2.6-0.4c0.4-0.9,1.9-1.7,2-3.9c0-0.9-0.9-3-2.1-2.7c-1.2,0.2-3.1,2.5-3.1,2.5s-0.8,2-1.2,1.3
						c-0.4-0.7-0.7-5.5-2.3-7.1c-1.7-1.6-8.4-5.1-8.4-5.1l-0.8-1.5C587.5,33.4,587.6,30.9,586,32.9z"/>
				</g>
				<g>
					<path class="st162" d="M593.2,74.3l-1-6.1c0,0-3.1,3-4.8,6.4c-1.7,3.4-6.1,16.4-6.4,23.6c-0.3,7.2,1,7.8,1,7.8L593.2,74.3z"/>
				</g>
				<g>
					<path class="st163" d="M602.9,62l5.1,4c0,0-8.4,9-12,15.4c-3.5,6.4-14.6,25.8-14.6,25.8l11.8-36.9L602.9,62z"/>
				</g>
				<g>
					<path class="st164" d="M593.2,70.2c0,0,7.7-7.3,8.8-8.9c1.1-1.6,1.6-2.3,1.6-2.3l2.6,4.8L593.8,76
						C593.8,76,592.7,75.5,593.2,70.2z"/>
				</g>
				<g>
					<polygon class="st164" points="589.7,70.7 591.2,76.2 593.2,70.6 592.2,64.8 					"/>
				</g>
				<g>
					<g>
						<path class="st49" d="M596.7,97c0.9-4.1,15.3-14.9,18.7-21c0.7-1.2,1-2.5,1.1-3.7l-10.1-9.5l-3.3,4.1l-18.6,34.5
							c0,0-2.6,24.4-3.6,26.9c-1.1,2.5-0.4,18.9,1.3,20.6c0.9,0.9,13.4,3.8,20.3,3.6c-0.5-9.2-1.8-27.4-5.1-32.3
							C592.8,113.4,595.8,101.1,596.7,97z"/>
					</g>
					<g>
						<path class="st48" d="M608.7,119.1c-0.6-2.8,6.6-14.1,6.6-14.1l2.7-31.3l-1.5-1.4c-0.1,1.2-0.4,2.5-1.1,3.7
							c-3.4,6.1-17.8,17-18.7,21c-0.9,4.1-3.8,16.4,0.6,23.1c3.3,4.9,4.6,23.1,5.1,32.3c5.9-0.2,11.1-0.6,11.1-0.6s2.1-9.8,1.8-14.5
							C615,132.5,609.4,121.9,608.7,119.1z"/>
					</g>
				</g>
				<g>
					<path class="st46" d="M602,66l4.4-4.6l4.1,3.5l-4.8,8.7l-3.1,0.8l1,1.2l-19,25.6c0,0,6.6-17.6,10.7-24.1
						C599.2,70.6,602,66,602,66z"/>
				</g>
				<g>
					<path class="st49" d="M591.3,66.9c0,0-6.2,14.3-6.8,19.7c-0.6,5.3,0.2,15.2,0.2,17.4c0,2.2-0.6,17-3.4,26.2
						c-3.2,10.2-5.9,19.5-5.9,19.5h-4.2c0,0,2.8-21.9,5.9-29.4c3.1-7.5,2-7,2.1-11.8c0.1-4.8-3.1-12.4-2.3-15.6
						c0.7-3.2,3.8-9.9,4.1-12.4c0.3-2.5,1.9-11.3,1.9-11.3L591.3,66.9z"/>
				</g>
				<g>
					<path class="st46" d="M591.9,65.1l-5.8,5.7l1.6,0.6l-2.5,1.6c0,0-4.4,10.4-3.7,13.8c0.6,3.4,3.2,17.2,3.2,17.2
						s-0.6-14.7,0.4-17.7C586.2,83.2,591.9,65.1,591.9,65.1z"/>
				</g>
			</g>
			<g>
				<path class="st4" d="M611.7,160.9l-5.3,7.9l0.1,5.4l1.2,2.7c0,0,1.4-1.6,1.4-2.7c-0.1-1.1,0-4.1,0-4.1h1.3c0,0-1.6,7-0.3,7
					c1.3,0,2-0.9,2-0.9s-0.4,1,1,0.6s1.4-0.7,1.4-0.7s0.3,0.4,1.4,0.3c1.1-0.1,1.3-0.7,1.3-0.7s0,1.1,0.9,0.6
					c0.9-0.6,2.7-4.6,2.7-4.6l-1-10.5L611.7,160.9z"/>
			</g>
			<g>
				<polygon class="st160" points="611.7,158.4 611.1,161.3 621,163 621,159.7 				"/>
			</g>
			<g>
				<path class="st46" d="M611.7,121c0,0-3.6-18.8-2.6-25.4c1.1-6.6,5.6-22.1,8.9-21.9c3.3,0.1,4.4,4.6,4.4,8.7
					c0,4.1,0.4,51.5,0.9,54.9c0.4,3.4-1.7,24.7-1.7,24.7l-11.1-2.4L611.7,121z"/>
			</g>
		</g>
	</g>
	<g>
		<g>
			<polygon class="st165" points="291.9,151.2 278.7,151.2 254.6,167.5 267.8,212.5 288.6,210.1 300.4,160.2 			"/>
		</g>
		<g>
			<path class="st166" d="M291.2,165.6c0,0-2.2-1.4-2.3,8.4c-0.1,9.8,0.4,21.6,0.4,21.6l2.1,5.3l3.7-3.6c0,0,1.1-31.7-3.5-31.9
				L291.2,165.6z"/>
		</g>
		<g>
			<g>
				<path class="st45" d="M284.6,137l-5.4,9.6c0,0,6.3,9.5,8.9,9.4c2.6-0.1,4.6-0.3,4.6-0.3l2.5-14.5L284.6,137z"/>
			</g>
			<g>
				<path class="st130" d="M279.1,143.5c0,0,1.2,5.6,3.3,7.2c2.2,1.6,10.2,5,10.2,5l-13.7,4.1l-3.8-11.8L279.1,143.5z"/>
			</g>
			<g>
				<path class="st130" d="M294,148.1l2.2,4.4l-0.4,8.3l-3.1-5c0,0,0.4-3.2,0.5-4.1c0.1-0.8,0.7-3.3,0.7-3.3L294,148.1z"/>
			</g>
			<g>
				<path class="st14" d="M295.5,194.8l-5,10.7l-6.3,24.5c0,0-23.7,0.5-25.4-6.4c-14.5-56.9-0.8-68.4-0.8-68.4l13.2-6.4l6.4-3.1
					c0,0,4.8,20.9,6.3,23.5C285.4,171.8,295.5,194.8,295.5,194.8z"/>
			</g>
			<g>
				<path class="st24" d="M297.9,199.3l-27.3-45.4l3.5-1.9l-4-1.2l1.1-2l6.4-3.1c0,0,4.8,20.9,6.3,23.5
					C285.4,171.8,297.9,199.3,297.9,199.3z"/>
			</g>
			<g>
				
					<ellipse transform="matrix(0.1148 -0.9934 0.9934 0.1148 50.8059 468.0242)" class="st121" cx="288" cy="205.5" rx="1.7" ry="1.1"/>
			</g>
			<g>
				<path class="st14" d="M286.8,206.5c-0.1-0.6-0.1-1.1,0-1.7l0.8-3.1l7.9-31.7c0.1-0.3,0.1-0.6,0.1-1l-0.2-11
					c-0.1-2.9,3.2-4.7,5.6-3.2l0.1,0l8.9,5.6c1.3,0.8,2,2.4,1.7,3.9c-1,5-3.5,16.4-6.6,24.9c-4.1,11.2-3.2,17-3.1,17.5
					C302.1,207.2,288.1,212.5,286.8,206.5z"/>
			</g>
			<g>
				<path class="st24" d="M287.6,201.7l8-32.2l-0.3-18.3l5.8,3.6l1.7,6.1l-2.6-1.3l3.9,5C304.1,164.7,292.8,190,287.6,201.7z"/>
			</g>
		</g>
		<g>
			<g>
				<g>
					<g>
						<g>
							<g>
								<g>
									<path class="st55" d="M301.1,183.9c0.1-0.2,0.2-0.4,0.3-0.6c0.1-0.2,0.5-0.2,0.8,0c0.2,0.1,0.5,0.3,0.7,0.4
										c-0.3,0.4-0.5,0.9-0.8,1.3c-0.2-0.1-0.5-0.3-0.7-0.4C301.2,184.4,301,184.1,301.1,183.9z"/>
								</g>
							</g>
							<g>
								<g>
									<path class="st131" d="M320.9,195c0,0,0.1-0.2-0.2-0.3c-0.3-0.2-0.8-0.5-0.8-0.5c0,0.1,0,0.1,0,0.2
										C320.2,194.6,320.5,194.8,320.9,195z"/>
								</g>
							</g>
							<g>
								<g>
									<path class="st131" d="M320.9,195c0,0-0.1,0.2-0.4,0c-0.3-0.2-0.8-0.5-0.8-0.5c0.1,0,0.1-0.1,0.2-0.1
										C320.2,194.6,320.5,194.8,320.9,195z"/>
								</g>
							</g>
							<g>
								<g>
									<g>
										<path class="st167" d="M302.3,185.4c-0.5-0.5-0.5-1-0.4-1.2c0-0.1,0.1-0.2,0.1-0.2l18,10.5c0,0,0.1,0.2-0.6,0.1
											c-0.4-0.1-0.3,0.1-1.3-0.3c-1.1-0.5-5.2-2.7-7.5-3.9c-0.3-0.2-0.6-0.3-1-0.6c-0.3-0.1-0.5-0.3-0.8-0.5
											C306.1,187.9,302.7,185.7,302.3,185.4z"/>
									</g>
								</g>
								<g>
									<g>
										<path class="st168" d="M320,194.5l-18-10.5c0,0,0.1-0.2,0.4-0.3c0.2-0.1,0.5-0.2,1,0c0.5,0.2,4.1,2.1,6.6,3.6
											c0.3,0.2,0.6,0.3,0.8,0.5c0.4,0.2,0.7,0.4,1,0.6c2.2,1.4,6.1,3.9,7.1,4.6c1.4,1.1,1.1,1.2,1.2,1.4
											C320.1,194.5,320,194.5,320,194.5z"/>
									</g>
								</g>
							</g>
						</g>
					</g>
					<g>
						<g>
							<path class="st131" d="M308.6,189c-0.5-0.3-1.6-0.7-1.6-0.7c0,0-0.2-0.4-0.2-0.4c-0.1,0.1,0.3,0.8,0.6,0.9l0.9,0.4
								c0.1,0.1-4.1-1.9-4.1-2.4c0-0.2,0.3,0,0.3-0.1c0-0.1,0-0.4,0-0.4l-1.9-1c0,0-0.6-0.2-0.6-0.1c0.1,0.1,0.2,1.2,4.2,3.4
								c1.2,0.7,1.2,0.6,1.6,0.8c0.2,0.1,0.8,0.1,0.8-0.1C308.6,189.3,308.8,189.1,308.6,189z"/>
						</g>
					</g>
					<g>
						<g>
							<path class="st169" d="M308.7,189.2c0-0.1-0.1-0.3-0.3-0.4c-0.5-0.3-1.6-1-1.6-1c0,0,0,0,0,0c-0.1,0.1,0.1,0.4,0.3,0.5
								l0.9,0.4c0.1,0.1,0.2,0.2,0.2,0.3l0,0c0,0-4.1-2-4.1-2.6c0-0.6,0.5-0.1,0.4-0.2c-0.1-0.2-2.1-1.4-2.1-1.4s-0.4,0.3-0.4,0.3
								c0.1,0.1,1.4,1.7,4,3c1.2,0.6,1.9,0.9,2.2,1.1C308.5,189.4,308.7,189.4,308.7,189.2L308.7,189.2z"/>
						</g>
					</g>
				</g>
				<g>
					<g>
						<path class="st170" d="M301.9,184.2c0-0.1,0.1-0.2,0.1-0.2s0.1-0.2,0.4-0.3c3,1.5,8.8,4.9,11.1,6.3c1.7,1,5.3,3.4,6.6,4.4
							c0,0.1-0.1,0.1-0.1,0.1c0,0,0.1,0.2-0.6,0.1c-2.1-1-6.9-3.7-8.8-4.7C309.3,189.2,304.3,186,301.9,184.2z"/>
					</g>
				</g>
				<g>
					<g>
						<path class="st169" d="M310,187.2c0,0.5-0.1,0.9-0.3,1.3c-0.2,0.4-0.5,0.7-1,0.9c0.3,0.2,0.6,0.3,0.8,0.5
							c0.4-0.2,0.7-0.5,0.9-0.9c0.2-0.4,0.3-0.8,0.3-1.3C310.5,187.6,310.2,187.4,310,187.2z"/>
					</g>
				</g>
				<g>
					<g>
						<path class="st169" d="M318.1,194.3c0.1-0.1,0.2-0.2,0.3-0.3c0.1-0.1,0.1-0.2,0.2-0.2c0.1-0.2,0.2-0.5,0.2-0.7
							c2.3,1.8,1.1,1.5,1.1,1.5c0,0,0,0,0,0C320,194.7,320.3,195.2,318.1,194.3z"/>
					</g>
				</g>
				<g>
					<g>
						<path class="st131" d="M318.1,194.3c0.1-0.1,0.2-0.2,0.3-0.3c0.4,0.2,0.5,0.2,1,0.4c0.3,0.1,0.3,0.1,0.6,0.2
							C320,194.7,320.3,195.2,318.1,194.3z"/>
					</g>
				</g>
			</g>
		</g>
		<g>
			<path class="st171" d="M285.2,158c0,0,4-0.8,5.3-0.4c1.4,0.4,2,0.8,2,0.8l-0.4,8.6l-1.7-0.4L285.2,158z"/>
		</g>
		<g>
			<path class="st172" d="M296.7,126.5c0,7.6-7.5,17.4-15.1,17.4s-13.7-6.1-13.7-13.7c0-7.6,6.1-13.7,13.7-13.7
				S296.7,119,296.7,126.5z"/>
		</g>
		<g>
			<path class="st4" d="M291.8,119.7c4.2,2,6.3,5,6.3,6.1c-0.1,2.2,0,2.8,0.9,4.7c0.9,1.9,3.8,4.5,3.8,5.2c0,0.7-3.3,1.4-3.3,1.4
				v2.1l-1.8,1.4l1.8,0.7c0,0-1.2,0.9-0.9,2.8c0.2,1.9,2.4,5.2-1.2,4.2c-2.2-0.6-5.9-0.6-8.2-0.5c-1.4,0-2.7-0.8-3.3-2l-1.8-3.7
				c0,0-2.1,2.1-3.1,1.4c-0.9-0.7-4.5-6-2.8-8.5c1.7-2.6,9.2,2.4,9.2,2.4l-1.8-13.4C285.5,124,290.4,123.2,291.8,119.7z"/>
		</g>
		<g>
			<polygon class="st173" points="290.9,208 325.6,190.1 342.2,192.9 342.2,195.3 290.2,210.4 290.2,208 			"/>
		</g>
		<g>
			<polygon class="st174" points="290.9,210.4 325.6,192.5 342.2,195.3 308.6,211.2 290.2,210.4 			"/>
		</g>
		<g>
			<path class="st4" d="M321.4,205.3c0,0-1.4-5.1-1.8-5.7c-0.6-0.9-2.7-1-1.9,1.4c0.9,2.3,1.2,4.3,1.2,4.3s-4.4-2.4-5.3-2.2
				s0.1,2,0.1,2s-1-0.7-1.6,0.4c-0.9,1.3,0.4,1.8,0.4,1.8s-2.7,0.6-1,1.4c1.7,0.9,2.6,2.4,6.9,0.4
				C322.7,207,321.4,205.3,321.4,205.3z"/>
		</g>
		<g>
			<g>
				<path class="st175" d="M308.8,275.4c-3.8,4-0.2,9.2-0.2,9.2h0.6l7-1.2l2.6-11.1C318.9,272.3,312.7,271.4,308.8,275.4z"/>
			</g>
			<g>
				<path class="st175" d="M336,274.2c-3.8,4-0.2,9.2-0.2,9.2h0.6l7-1.2l2.6-11.1C346,271.1,339.8,270.2,336,274.2z"/>
			</g>
			<g>
				<path class="st14" d="M346.4,213.4c-2.8-4.2-38.6-6.4-38.6-6.4s-21.1-3.2-22.3,3.9c-1.2,7.1,11.1,12,19.4,16.5
					c8.3,4.5,25-4.2,25.2-3.1c0.2,1.2-2.2,53.8-2.2,53.8l20.5-1.2C348.4,276.8,349.3,217.6,346.4,213.4z"/>
			</g>
			<g>
				<path class="st24" d="M289.2,226.8c0,0,9,7.9,20.3,7.9c11.3,0,12.7-1.3,12.7-1.3s-10.2,11.6-11.8,15.1
					c-2.7,5.8-3.7,30.6-3.7,30.6l16,0.6c0,0,23.6-50.6,23.6-57.2c0-6.6-14.8-9.5-35.5-11.8C290.1,208.2,287.8,218.4,289.2,226.8z"/>
			</g>
			<g>
				<g>
					<path class="st176" d="M351.4,285.9c-5.4-1.2-4.6,3-6.8,2.2c-1.7-0.6-8.2-0.4-11.4-0.2c0.1,2.3,0.2,4.6,0.2,4.6l7.8-0.3
						l-0.1-2.9c0,0,3.7-0.6,5.5,0.7c2.9,2.1,2.6,1.7,7.4,1.9c4.8,0.2,6.7-1.3,6.7-1.3s0.1-0.6,0.2-1.4
						C358.9,290.3,354.5,286.6,351.4,285.9z"/>
				</g>
				<g>
					<path class="st31" d="M344.6,288.1c2.3,0.9,2.6,2.4,8.2,2.7c3.2,0.1,6.2-0.8,8.1-1.5c0.1-1.1-0.1-2.5-0.9-3.1
						c-1.5-1.1-9.2-4.4-11.1-7.2c-1.9-2.9-3.9-2.5-3.9-2.5s-3.6-0.3-4.9,1.7c-1.3,2-2.4,3.3-3.2,2.8c-0.8-0.5-2.3-4.5-2.9-3.8
						c0,0-1.3,4.4-1,7.1c0.1,1,0.2,2.3,0.3,3.7C336.4,287.7,342.9,287.5,344.6,288.1z"/>
				</g>
			</g>
			<g>
				<g>
					<path class="st176" d="M324.8,287.6c-5.4-1.2-4.6,3-6.8,2.2c-1.7-0.6-8.2-0.4-11.4-0.2c0.1,2.3,0.2,4.6,0.2,4.6l7.8-0.3
						l-0.1-2.9c0,0,3.7-0.6,5.5,0.7c2.9,2.1,2.6,1.7,7.4,1.9c4.8,0.2,6.7-1.3,6.7-1.3s0.1-0.6,0.2-1.4
						C332.2,291.9,327.9,288.2,324.8,287.6z"/>
				</g>
				<g>
					<path class="st31" d="M317.9,289.7c2.3,0.9,2.6,2.4,8.2,2.7c3.3,0.1,6.2-0.8,8.1-1.5c0.1-1.1-0.1-2.5-0.9-3.1
						c-1.5-1.1-8.5-3.6-10.5-6.5c-1.9-2.9-4.6-3.2-4.6-3.2s-3.6-0.3-4.9,1.7c-1.3,2-2.4,3.3-3.2,2.8c-0.8-0.5-2.3-4.5-2.9-3.8
						c0,0-1.3,4.4-1,7.1c0.1,1,0.2,2.3,0.3,3.7C309.8,289.3,316.3,289.1,317.9,289.7z"/>
				</g>
			</g>
		</g>
		<g>
			<path class="st4" d="M298.6,195.5l3.8-5.5c1.2-1.7,3.2-2.9,5.3-3.1l4-0.4l6.8,4.3c0.4,0.4,0.1,1.1-0.5,1.1l-3.3-0.7
				c0,0,0.7,0.3-0.2,1.2c-1,0.9-0.5,1.2-0.5,1.2l-0.9,1.2l-1.9,0.7c0,0,1.7,1.2-0.2,1.9c-0.6,0.2-1.3,0.7-2.1,1.3
				c-2.3,1.9-5.5,2.4-8.3,1.5l-0.7-0.2L298.6,195.5z"/>
		</g>
		<g>
			<polygon class="st130" points="299.7,192.5 295.7,193.6 295,194.1 296,203.7 302.3,201.2 			"/>
		</g>
		<g>
			<path class="st24" d="M271.5,183c0,0,0.8-25.1-3.8-28.7c-4.6-3.6-14,0.3-15.4,12.3c-1.4,12.1,10.4,39.1,10.4,39.1l33.9-1.3
				c0,0-0.9-7-0.3-11.7c0.5-4.7-0.8-2.9-0.8-2.9l-22.8,1.9L271.5,183z"/>
		</g>
	</g>
	<g>
		<g>
			<g>
				<path class="st131" d="M319.5,293.1l-8.4-42.5c-1.5-7.7-6.6-13.1-12.3-13.1h-23c-5.7,0-10.8,5.4-12.3,13.1l-8.4,42.5l-3.5-0.7
					l8.4-42.5c1.9-9.4,8.3-16,15.8-16h23c7.5,0,14,6.6,15.8,16l8.4,42.5L319.5,293.1z"/>
			</g>
		</g>
		<g>
			<path class="st55" d="M252.7,197.3c0,0,36.4-2.6,39.5,2.8s6.7,30.2,11.6,32.8c4.9,2.6,6.4,2.3,6.4,2.3l-43.3-1.3l-5.2-7l19.7-1
				c0,0,0.9-4.9-10.7-8.5c-11.6-3.6-14.7-3.4-14.7-3.4L252.7,197.3z"/>
		</g>
	</g>
	<g>
		<g>
			<g>
				<g>
					<polygon class="st177" points="417.5,159.4 388.6,159.4 388.6,71 412.9,72.9 					"/>
				</g>
				<g>
					<g>
						<path class="st178" d="M389.9,280.5l-1.7,1.1c0,0-0.5,2.5,0.3,3.1c0.9,0.6,0.6,1.3,7.4,1.3c6.7,0,6.9-0.3,7.1-0.7
							c0.2-0.4,0.8-1.9,0-3C402.1,281.1,389.9,280.5,389.9,280.5z"/>
					</g>
					<g>
						<path class="st6" d="M413.7,262.5c0,0-3.4,8.3-2.8,11.1c0.6,2.8,7.6,3.6,8.1,3c0.5-0.7,2.5-12.4,2.5-12.4L413.7,262.5z"/>
					</g>
					<g>
						<path class="st25" d="M421.7,146.1h-18.3l-6.2,28.3l0.3,0.6l17.6,33.4c0,0-4.3,24.3-4.3,30.4c0,6.1,0.6,28.5,0.6,28.5
							s5.9,1.3,9.7,1.2c3.8-0.1,5.4,0,5.4,0l8.3-57.8L421.7,146.1z"/>
					</g>
					<g>
						<path class="st6" d="M402.7,79.7c0,0-1.2,6.6-0.5,13.2c0.6,6.6,0.6,31.2,0.6,31.2l1.6,17.3c0,0,3.9,3.3,4.1,3.8
							c0.1,0.5,5.2-4.2,5.2-4.2s-1.4-37.6-2.3-40.1c-1-2.6-6.1-21.1-6.1-21.1H402.7z"/>
					</g>
					<g>
						<path class="st128" d="M398.6,75l3.6,6.5c0,0,1.7-1.1,2.8-0.7c1.1,0.3,1.2,0.6,1.2,0.6l0.7-5.5c0,0-1.5-1.7-3.3-1.5
							C401.8,74.6,398.6,75,398.6,75z"/>
					</g>
					<g>
						<path class="st26" d="M378.1,164.8c0.3,3.3-1.2,19.8,0.8,30.5c2.1,12,0.9,30.2,0.9,36.7c0,6.5,7.6,40.4,7.6,40.4
							s5.1-2,8.1-1.7c3,0.3,6.9,0.5,6.9,0.5s-5.8-41.5-4.8-48c1-6.5,8.5-47,8.5-47s2.7-25.6,0.6-29c-2.1-3.4-25.3-2-25.3-2
							S378.1,164.4,378.1,164.8z"/>
					</g>
					<g>
						<path class="st26" d="M441.9,119.7l20.5-25.2l-11.1-6.7l-9,12.2c0,0-12.8-25.3-16.2-21.8c-3.4,3.5-3.2,18-3.2,20.6
							C422.9,101.4,441.9,119.7,441.9,119.7z"/>
					</g>
					<g>
						<path class="st45" d="M402,46.5l-10,20.2c0,0,7.4,8.8,9.9,8.3c2.6-0.4,5.1-4.1,5.1-4.1l0.8-11L402,46.5z"/>
					</g>
					<g>
						<g>
							<path class="st129" d="M412.2,80c0,0-7.3-6.3-9.4-5.4c-1.5-0.9-8.4,4.6-8.4,4.6l9.2-3L412.2,80z"/>
						</g>
					</g>
					<g>
						<path class="st130" d="M393.8,63.2c0,0-0.3,5.9,2,7.3c2.3,1.4,6.7,4.1,6.7,4.1l-9.2,5.4l-5.1-11.3L393.8,63.2z"/>
					</g>
					<g>
						<path class="st130" d="M407,66.4l2.7,4.1l0.5,8.3l-6.6-4.5c0,0,3-3.4,3-4.3s0.3-3.4,0.3-3.4L407,66.4z"/>
					</g>
					<g>
						<path class="st179" d="M410.2,123.5l-0.1,0.6l-3.4,25.2c0,0-3.1,20-6,22c-2.9,2-29.3,0-29.3,0l1.5-12c0,0,3.5-13.3,5.2-20.3
							c1.7-6.9-1.6-24.2-1.6-24.2l-4.7-37.2l12.4-7.9l6-3.8c0,0,7.2,20.3,9,22.7C401.1,91.1,410.2,123.5,410.2,123.5z"/>
					</g>
					<g>
						<path class="st26" d="M410.2,123.5l-0.1,0.6c-3.4-8.6-25.9-49.2-25.9-49.2l3.3-2.3l-4.2-0.7l0.9-2.2l6-3.8
							c0,0,7.2,20.3,9,22.7C401.1,91.1,410.2,123.5,410.2,123.5z"/>
					</g>
					<g>
						<path class="st180" d="M392.2,268c0,0-2,6-2.3,7.8c-0.3,1.8-2.1,4.5-1.1,5.9c1.1,1.4,6.7,1.5,8.9,1.4c2.1-0.1,5.6,0,5.3-0.9
							c-0.2-0.9-0.7-6.8-0.7-6.8v-4.5c-1.1-1.4-2.1-3.6-2.1-3.6L392.2,268z"/>
					</g>
					<g>
						<g>
							<path class="st178" d="M424.2,283.5c-2.6-0.1-5.4-1.6-5.8-1.6c-0.3,0-2.5-1-4.4-0.7c-1.4,0.2-3.5-0.3-4.6-0.7
								c0.1,1.4,0.2,2.7,0.5,2.8c0.5,0.3,6.8,0.3,8.4,0.8c1.6,0.5,4.8,2,6.7,1.9c1.9-0.1,15.2,0,15.2,0s0.2-1.4,0.3-2.4
								C436.9,283.5,426.3,283.6,424.2,283.5z"/>
						</g>
						<g>
							<path class="st180" d="M414,281.1c1.9-0.2,4.1,0.7,4.4,0.7c0.3,0,3.2,1.5,5.8,1.6c2.1,0.1,12.7,0,16.3,0
								c0.1-0.6,0.1-1.1,0-1.3c-0.1-0.5-7.9-3.7-9-4.7c-1.1-1-7-9.7-7-9.7l-4.5,0.3c0,0-6.9,6.5-7.3,6.2c-0.3-0.3-1.2-4.7-1.2-4.7
								s-2.2,5.2-2.2,6.7c0,0.8,0,2.5,0.1,4.1C410.6,280.8,412.6,281.3,414,281.1z"/>
						</g>
					</g>
					<g>
						<ellipse class="st121" cx="407.6" cy="124.4" rx="1.1" ry="1.7"/>
					</g>
					<g>
						<ellipse class="st121" cx="404.4" cy="138.3" rx="1.3" ry="2"/>
					</g>
					<g>
						<path class="st25" d="M432.7,164.1c0,0-5.4,6.5-8.9,4.3c-3.4-2.2-17.6-43.7-17.6-43.7l0.5-4.1l4.3-33.1l-2.5-18.3l6.2,2.9
							l11.9,5.6c0,0-1.2,16.6-4,28.2c-2.8,11.6-1.3,17.3-1.1,17.8C421.9,124.5,432.7,164.1,432.7,164.1z"/>
					</g>
					<g>
						<polygon class="st141" points="389,157.8 395.7,164.8 401.6,165.2 405.3,163.8 396.7,157.1 						"/>
					</g>
					<g>
						<path class="st26" d="M406.8,120.7l4.3-33.1l-2.5-18.3l6.2,2.9l2.4,5.9l-2.8-1l4.5,4.6C419,81.8,410.6,108.4,406.8,120.7z"/>
					</g>
					<g>
						<path class="st4" d="M390,157.5l3-5.7c0,0,4,0.8,5.7,1.5s3.7,2.6,4.4,3c0.8,0.4,4.3,1.6,3.5,2.5c-0.8,0.9-3.6,1-5-0.8
							c-1.4-1.8-2-0.8-2-0.8l2.6,3.1l3.4,2l1.7,0.2c0,0,1.8-0.6,2.7-0.1c0.9,0.5,0.8,1.2,0.8,1.2l-2.9,0.8l-4.2,0l-6.4-1L390,157.5z
							"/>
					</g>
					<g>
						<path class="st72" d="M392.7,149.9h-0.5l-6.8,7.5l5,1.7c0,0,1.6-2,1.7-3.7s2.7-3.3,2.7-3.3L392.7,149.9z"/>
					</g>
					<g>
						<path class="st26" d="M375.2,80.2c0,0-1-3.1-3.3-2.6c-2.3,0.5-5.6,0.9-7.2,26.4c-2.9,46,21.5,58.4,21.5,58.4s1.5-5.9,3.3-8.2
							c1.7-2.3,5.6-4.3,5.6-4.3s-16.1-13.9-15.7-19.2c0.4-5.3,2.4-28.9,1.1-34.2C379,91.4,375.2,80.2,375.2,80.2z"/>
					</g>
				</g>
				<g>
					<g>
						<path class="st181" d="M413.4,41.9c0,0,3.1-6.4,2.3-7.8c-0.9-1.4-2.3-3.6-8.7-4.8c-6.4-1.3-13.8-0.1-16.2,3
							c-2.4,3.1-6.4,8.3-5.1,16.9c1.3,8.7,8.1,12.7,10.1,12.1c2-0.6,6.5-9.1,6.5-9.1L413.4,41.9z"/>
					</g>
					<g>
						<path class="st155" d="M415.4,35.9c0,0,3.3,6.8,2.6,7.9c-0.7,1.1-1.4,2-0.9,3s3.3,5.7,2.8,6.3s-2.3,1.9-2.3,1.9s1,1.9,0.6,2
							c-0.4,0.1-1.3,1-1.3,1s1.7,0.6,1.4,1.3c-0.3,0.7-1.3,2.7-1,3.6c0.3,0.9,1.6,0.9,0.1,1.7c-1.4,0.9-9-0.6-9.5-0.4
							c-0.6,0.1-6.3-10.5-6.3-10.5s-4.3,1-4.8-0.6c-0.6-1.6-2.7-7.7,0.3-7.7c3,0,6,1.7,6,1.7l5.3-7.4L415.4,35.9z"/>
					</g>
				</g>
			</g>
			<g>
				<g>
					<path class="st182" d="M451.6,89.8l1.7-2.4l1.9-7.5c0,0,11.5-10.2,12.4-9.7c0.9,0.6,1.6,0.7,0.1,2.3s-6.3,6.7-6.3,6.7
						s2.6-1.9,3.1-0.9c0.6,1,0.1,2.3,0.1,2.3s1-0.6,1.3,0.9c0.3,1.4-0.7,1.7-0.7,1.7s1.6,0.1,1,1.1c-0.6,1-4.6,7.4-4.6,7.4l-4.3,3.1
						L451.6,89.8z"/>
				</g>
				<g>
					<path class="st183" d="M454.9,93.3c0,0,5.5-4.7,5.2-5.4c-0.3-0.7,0.4-6.3,0.4-6.3s2.1-0.4,3.1-1.4c1-1,1-1.9,1-1.9l-6.8,1
						l-3.4,2.8l-1,5.3l-2.3,2.7L454.9,93.3z"/>
				</g>
			</g>
		</g>
		<g>
			<ellipse class="st121" cx="408.8" cy="122.4" rx="1.3" ry="2"/>
		</g>
	</g>
	<g>
		<g>
			<g>
				<rect x="475.5" y="137.9" class="st160" width="7.2" height="21.4"/>
			</g>
			<g>
				<rect x="487.9" y="127.2" class="st160" width="8.2" height="21.4"/>
			</g>
			<g>
				<rect x="500.8" y="115.8" class="st160" width="8.2" height="21.4"/>
			</g>
			<g>
				<rect x="512.4" y="123.9" class="st160" width="8.2" height="21.4"/>
			</g>
			<g>
				<path class="st170" d="M524.4,159.5h-3.9v-14.2h-0.6l0.6-0.6v-1.5l-0.2,0.2l-1.4,1.4l-0.5,0.5h-1.1l1.2-1.2l1.2-1.2l0.8-0.8
					v-1.5l-0.2,0.2l-1.4,1.4l-1.2,1.2l-1.4,1.4l-0.5,0.5h-1.1l1.2-1.2l1.2-1.2l1.4-1.4l1.2-1.2l0.8-0.8v-1.5l-0.2,0.2l-1.4,1.4
					l-1.2,1.2l-1.4,1.4l-1.2,1.2l-1.4,1.4l-0.5,0.5h-1v14.2H509v-23.3h-0.2l0.2-0.2v-1.5l-0.2,0.2l-1.2,1.2l-0.4,0.4h-1.1l0.8-0.8
					l1.4-1.4l0.6-0.6v-1.5l-0.2,0.2l-1.2,1.2l-1.4,1.4l-1.2,1.2l-0.4,0.4h-1.1l0.8-0.8l1.4-1.4l1.2-1.2l1.4-1.4l0.6-0.6v-1.5
					l-0.2,0.2l-1.2,1.2l-1.4,1.4l-1.2,1.2l-1.4,1.4l-1.2,1.2l-0.4,0.4h-1.1l0.8-0.8l1.4-1.4l1.2-1.2l1.4-1.4l1.2-1.2l1.4-1.4
					l0.6-0.6v-1.5l-0.2,0.2l-1.2,1.2l-1.4,1.4l-1.2,1.2l-1.4,1.4l-1.2,1.2l-1.4,1.4l-0.3,0.3v1.2v23.3H496v-13.1H496l0.1-0.1v-1.5
					l-1.2,1.2l-0.4,0.4h-1.1l0.8-0.8l1.4-1.4l0.4-0.4v-1.5l-1.2,1.2l-1.4,1.4l-1.2,1.2l-0.4,0.4h-1.1l0.8-0.8l1.4-1.4l1.2-1.2
					l1.4-1.4l0.4-0.4v-1.5l-1.2,1.2l-1.4,1.4l-1.2,1.2l-1.4,1.4l-1.2,1.2l-0.4,0.4h-1.1l0.8-0.8l1.4-1.4l1.2-1.2l1.4-1.4l1.2-1.2
					l1.4-1.4l0.4-0.4v-1.5l-1.2,1.2l-1.4,1.4l-1.2,1.2l-1.4,1.4l-1.2,1.2l-1.4,1.4l-0.5,0.5v1v13.1h-5.2v-7h-0.5l0.5-0.5v-1.5
					l-0.5,0.5l-1.4,1.4l-0.1,0.1h-1.1l0.7-0.7l1.2-1.2l1.1-1.1V148l-0.5,0.5l-1.4,1.4l-1.2,1.2l-1.4,1.4l-0.1,0.1H477l0.7-0.7
					l1.2-1.2l1.4-1.4l1.2-1.2l0.9-0.9h0.2v-9.8h-7.2v9.8h0.3l-0.2,0.2l-0.2,0.2v1.5l0.9-0.9l0.9-0.9h1.1l-0.2,0.2l-1.2,1.2l-1.4,1.4
					l-0.2,0.2v1.5l0.9-0.9l1.4-1.4l1.2-1.2l0.9-0.9h1.1l-0.2,0.2l-1.2,1.2l-1.4,1.4l-1.2,1.2l-1.4,1.4l-0.1,0.1h-0.1v7H471V112h1
					l-1.5-3.7l-1.5,3.7h1v47.5v0.7v0.3h54.3v1l3.7-1.5l-3.7-1.5V159.5z M476.3,146.3v-8.1h5.5v8.1H476.3z"/>
			</g>
			<g>
				<path class="st170" d="M495.8,128.7h0.2v-6.8h-8.2v6.8v0.3l0.1-0.1l0.2-0.2h1.1l-0.8,0.8l-0.5,0.5v1.5l0.1-0.1l1.2-1.2l1.4-1.4
					l0.2-0.2h1.1l-0.8,0.8l-1.2,1.2l-1.4,1.4l-0.5,0.5v1.5l0.1-0.1l1.2-1.2l1.4-1.4l1.2-1.2l1.4-1.4l0.2-0.2h1.1l-0.8,0.8l-1.2,1.2
					l-1.4,1.4l-1.2,1.2l-1.4,1.4l-0.5,0.5v1.5l0.1-0.1l1.2-1.2l1.4-1.4l1.2-1.2l1.4-1.4l1.2-1.2l1.4-1.4L495.8,128.7z M495.2,127.8
					h-6.5v-5.1h6.5V127.8z"/>
			</g>
			<g>
				<polygon class="st170" points="496,131 496,129.5 494.9,130.7 493.5,132.1 492.3,133.2 490.9,134.6 489.8,135.8 488.4,137.2 
					487.9,137.7 487.9,139.2 488,139.1 489.1,137.9 490.5,136.5 491.7,135.4 493.1,134 494.2,132.8 495.6,131.4 				"/>
			</g>
			<g>
				<polygon class="st170" points="496,133.6 496,132.1 494.9,133.2 493.5,134.6 492.3,135.8 490.9,137.2 489.8,138.3 488.4,139.7 
					487.9,140.2 487.9,141.7 488,141.6 489.1,140.5 490.5,139.1 491.7,137.9 493.1,136.5 494.2,135.4 495.6,134 				"/>
			</g>
			<g>
				<polygon class="st170" points="496,136.1 496,134.6 494.9,135.8 493.5,137.2 492.3,138.3 490.9,139.7 489.8,140.9 488.4,142.3 
					487.9,142.8 487.9,144.3 488,144.2 489.1,143 490.5,141.6 491.7,140.5 493.1,139.1 494.2,137.9 495.6,136.5 				"/>
			</g>
			<g>
				<path class="st170" d="M509,118.1v-0.3v-6.1h-8.2v6.1v0.8l0.8-0.8h1.1l-0.2,0.2l-1.4,1.4l-0.3,0.3v1.5l1.1-1.1l1.4-1.4l0.9-0.9
					h1.1l-0.2,0.2l-1.4,1.4l-1.2,1.2l-1.4,1.4l-0.3,0.3v1.5l1.1-1.1l1.4-1.4l1.2-1.2l1.4-1.4l0.9-0.9h1.1l-0.2,0.2l-1.4,1.4
					l-1.2,1.2l-1.4,1.4l-1.2,1.2l-1.4,1.4l-0.3,0.3v1.5l1.1-1.1l1.4-1.4l1.2-1.2l1.4-1.4l1.2-1.2l1.4-1.4L509,118.1z M501.7,112.5
					h6.5v4.4h-6.5V112.5z"/>
			</g>
			<g>
				<polygon class="st170" points="509,120.6 509,119.1 508.8,119.3 507.6,120.5 506.2,121.9 505.1,123 503.7,124.4 502.5,125.6 
					501.1,127 500.8,127.3 500.8,128.8 501.9,127.7 503.3,126.3 504.4,125.2 505.8,123.8 507,122.6 508.4,121.2 				"/>
			</g>
			<g>
				<polygon class="st170" points="509,123.2 509,121.7 508.8,121.9 507.6,123 506.2,124.4 505.1,125.6 503.7,127 502.5,128.1 
					501.1,129.5 500.8,129.9 500.8,131.3 501.9,130.3 503.3,128.9 504.4,127.7 505.8,126.3 507,125.2 508.4,123.8 				"/>
			</g>
			<g>
				<polygon class="st170" points="509,125.7 509,124.2 508.8,124.4 507.6,125.6 506.2,127 505.1,128.1 503.7,129.5 502.5,130.7 
					501.1,132.1 500.8,132.4 500.8,133.9 501.9,132.8 503.3,131.4 504.4,130.3 505.8,128.9 507,127.7 508.4,126.3 				"/>
			</g>
			<g>
				<polygon class="st170" points="519.7,132.8 520.5,132 520.5,130.5 520.4,130.7 519,132.1 517.8,133.2 516.4,134.6 515.3,135.8 
					513.9,137.2 512.7,138.3 512.4,138.7 512.4,140.2 513.5,139.1 514.6,137.9 516,136.5 517.2,135.4 518.6,134 				"/>
			</g>
			<g>
				<polygon class="st170" points="519.7,135.4 520.5,134.5 520.5,133.1 520.4,133.2 519,134.6 517.8,135.8 516.4,137.2 
					515.3,138.3 513.9,139.7 512.7,140.9 512.4,141.2 512.4,142.7 513.5,141.6 514.6,140.5 516,139.1 517.2,137.9 518.6,136.5 				
					"/>
			</g>
			<g>
				<polygon class="st170" points="519.7,137.9 520.5,137.1 520.5,135.6 520.4,135.8 519,137.2 517.8,138.3 516.4,139.7 
					515.3,140.9 513.9,142.3 512.7,143.4 512.4,143.8 512.4,145.3 513.5,144.2 514.6,143 516,141.6 517.2,140.5 518.6,139.1 				"/>
			</g>
			<g>
				<path class="st170" d="M512.4,128.7v1.3l1.1-1.1l0.2-0.2h1.1l-0.8,0.8l-1.2,1.2l-0.3,0.3v1.5l1.1-1.1l1.2-1.2l1.4-1.4l0.2-0.2
					h1.1l-0.8,0.8l-1.2,1.2l-1.4,1.4l-1.2,1.2l-0.3,0.3v1.5l1.1-1.1l1.2-1.2l1.4-1.4l1.2-1.2l1.4-1.4l0.2-0.2h1.1l-0.8,0.8l-1.2,1.2
					l-1.4,1.4l-1.2,1.2l-1.4,1.4l-1.2,1.2l-0.3,0.3v1.5l1.1-1.1l1.2-1.2l1.4-1.4l1.2-1.2l1.4-1.4l1.2-1.2l0.8-0.8v-0.8v-4.8h-8.2
					V128.7z M519.7,124.8v3.1h-6.5v-3.1H519.7z"/>
			</g>
			<g>
				<rect x="475.5" y="137.3" class="st55" width="7.2" height="9.8"/>
			</g>
			<g>
				<rect x="487.9" y="120" class="st55" width="8.2" height="8.6"/>
			</g>
			<g>
				<rect x="500.8" y="111.7" class="st55" width="8.2" height="8.6"/>
			</g>
			<g>
				<rect x="512.4" y="123.9" class="st55" width="8.2" height="8.6"/>
			</g>
		</g>
	</g>
	<g>
		<g>
			<g>
				<polygon class="st170" points="529.5,82.2 525.8,80.7 525.8,81.8 472.5,81.8 472.5,34.2 473.5,34.2 472,30.5 470.5,34.2 
					471.5,34.2 471.5,81.8 471.5,82.2 471.5,82.7 525.8,82.7 525.8,83.7 				"/>
			</g>
			<g>
				<path class="st55" d="M477.1,74.7c1.2,0,2.3-1,2.3-2.3c0-0.7-0.4-1.4-0.9-1.8l6.4-13.6c0.2,0,0.4,0.1,0.6,0.1
					c0.9,0,1.6-0.5,2-1.2l13.5,4c0,0.1,0,0.1,0,0.2c0,1.2,1,2.3,2.3,2.3c1.2,0,2.3-1,2.3-2.3c0-0.8-0.4-1.5-1-1.9l8-19.6
					c0.1,0,0.3,0,0.4,0c1.2,0,2.3-1,2.3-2.3c0-1.2-1-2.3-2.3-2.3c-1.2,0-2.3,1-2.3,2.3c0,0.8,0.4,1.5,1,1.9l-8,19.6
					c-0.1,0-0.3,0-0.4,0c-0.9,0-1.6,0.5-2,1.2l-13.5-4c0-0.1,0-0.1,0-0.2c0-1.2-1-2.3-2.3-2.3c-1.2,0-2.3,1-2.3,2.3
					c0,0.7,0.4,1.4,0.9,1.8l-6.4,13.6c-0.2,0-0.4-0.1-0.6-0.1c-1.2,0-2.3,1-2.3,2.3C474.8,73.7,475.8,74.7,477.1,74.7z M511.4,36.3
					c0-0.8,0.6-1.4,1.4-1.4c0.8,0,1.4,0.6,1.4,1.4s-0.6,1.4-1.4,1.4C512,37.7,511.4,37.1,511.4,36.3z M501.7,60
					c0-0.8,0.6-1.4,1.4-1.4c0.8,0,1.4,0.6,1.4,1.4c0,0.8-0.6,1.4-1.4,1.4C502.3,61.4,501.7,60.8,501.7,60z M484,54.8
					c0-0.8,0.6-1.4,1.4-1.4c0.8,0,1.4,0.6,1.4,1.4s-0.6,1.4-1.4,1.4C484.6,56.2,484,55.6,484,54.8z M477.1,71c0.8,0,1.4,0.6,1.4,1.4
					c0,0.8-0.6,1.4-1.4,1.4c-0.8,0-1.4-0.6-1.4-1.4C475.7,71.6,476.3,71,477.1,71z"/>
			</g>
			<g>
				<path class="st170" d="M477.1,80.3c1.2,0,2.3-1,2.3-2.3c0-0.5-0.2-0.9-0.4-1.3l11.6-11.9c0.4,0.2,0.8,0.4,1.2,0.4
					c0.5,0,1-0.2,1.4-0.5l8,6.7c-0.2,0.3-0.3,0.7-0.3,1.1c0,1.2,1,2.3,2.3,2.3c1.2,0,2.3-1,2.3-2.3c0-0.5-0.2-1-0.4-1.3l6.7-7.3
					c0.3,0.2,0.7,0.3,1.2,0.3c1.2,0,2.3-1,2.3-2.3c0-1.2-1-2.3-2.3-2.3c-1.2,0-2.3,1-2.3,2.3c0,0.5,0.2,1,0.4,1.3l-6.7,7.3
					c-0.3-0.2-0.7-0.3-1.2-0.3c-0.5,0-1,0.2-1.4,0.5l-8-6.7c0.2-0.3,0.3-0.7,0.3-1.1c0-1.2-1-2.3-2.3-2.3c-1.2,0-2.3,1-2.3,2.3
					c0,0.5,0.2,0.9,0.4,1.3l-11.6,11.9c-0.4-0.2-0.8-0.4-1.2-0.4c-1.2,0-2.3,1-2.3,2.3C474.8,79.3,475.8,80.3,477.1,80.3z"/>
			</g>
		</g>
	</g>
	<g>
		<g>
			<g>
				<g>
					<g>
						<path class="st136" d="M240,291.7l2.5,1.3v0.8h-10c-1,0-1.8-0.6-2.1-1.5c-0.9-2.9-2.8-9-3.8-9.4c-1.3-0.5-2.9-0.7-2.9-0.7v12
							h-3.6c0,0-1.4-11.6-1.4-12.8c0-1.2,0.1-1.7,0.8-2.6c0.7-0.9,9.7,2.5,9.7,2.5L240,291.7z"/>
					</g>
					<g>
						<path class="st184" d="M234.7,278c0,0,0.8,7.9,2.1,8.7s5.5,3.2,5.7,4.1c0.2,0.9,0,2.2,0,2.2s-10.1,0.2-10.6-0.5
							c-0.5-0.7-3.7-10.4-5.2-11.3c-1.6-0.9-5.9-1.2-5.9-1.2l-1.5-0.4c0,0,0.1-3.8,1.6-5.6C222.3,272.2,234.7,278,234.7,278z"/>
					</g>
				</g>
				<g>
					<g>
						<path class="st136" d="M266.4,291.7l2.5,1.3v0.8h-10c-1,0-1.8-0.6-2.1-1.5c-0.9-2.9-2.8-9-3.8-9.4c-1.3-0.5-2.9-0.7-2.9-0.7
							v12h-3.6c0,0-1.4-11.6-1.4-12.8c0-1.2,0.1-1.7,0.8-2.6c0.7-0.9,9.7,2.5,9.7,2.5L266.4,291.7z"/>
					</g>
					<g>
						<path class="st184" d="M252.5,269.1c0,0,9.6,10.3,10.7,17.6c0.2,1.5,5.5,3.2,5.7,4.1c0.2,0.9,0,2.2,0,2.2s-10.1,0.2-10.6-0.5
							c-0.5-0.7-3.7-10.4-5.2-11.3c-1.6-0.9-5.9-1.2-5.9-1.2l-1.5-0.4c0,0,0.1-3.8,1.6-5.6C248.7,272.2,252.5,269.1,252.5,269.1z"/>
					</g>
				</g>
				<g>
					<path class="st185" d="M155.8,210.7c0,0,0.7,21.2,10.8,21.2s51.5-1.7,51.5-1.7s0.7,12.1,4.9,16.5c4.2,4.4,23.8,30,23.8,30
						l7.2-5.9c0,0-9.4-23.4-11.6-31.3c-2.2-7.9-5.4-21.7-7.4-23.9c-2-2.2-44.3-6.4-44.3-6.4l-6.6-12.3L155.8,210.7z"/>
				</g>
				<g>
					<path class="st186" d="M182.6,209.2c0,0,58.6-4.9,59.6,0.7c1,5.7-6.7,67.9-6.7,67.9l-12.8-4c0,0-2.9-30.2-1.9-34.9
						c1-4.7,5.4-16,5.4-16s-45.1,11.9-52.3,10.5c-7.3-1.4-17.6-18.2-17.6-18.2L182.6,209.2z"/>
				</g>
				<g>
					<path class="st187" d="M154.8,156.3c0,0,2.3-7.8,9.2-8.3c8.3-0.5,19.4,17.7,19.4,17.7s2.4,9.1,2.4,17.4s-2.2,21.2-2.2,21.2
						s-24.6,7.6-25.6,7.9C157,212.4,154.8,156.3,154.8,156.3z"/>
				</g>
				<g>
					<path class="st2" d="M158.1,149.8c3.9-3.4,0.9-14.3,0.9-14.3l11.2,2.7l0.4,10.7l0.2,5.6C170.8,154.6,154.4,153,158.1,149.8z"/>
				</g>
				<g>
					<g>
						<path class="st4" d="M179.7,135.9c0,0,3.2-2.4,2.3-2.7c-2.6-0.9-4.7-4.4-4.7-4.4s0.4-1.1-0.2-3.7c-0.5-2.6-4.5-5.7-4.5-5.7
							s-8-3-13.3-0.5c-4.9,2-8.2,9.6-7.1,14.9c1,5.1,5.5,8.7,10.5,8.9c6.5,2.2,17.2,2.6,17.3,2.1c0.1-0.6,0.3-3.9,1.4-4.8
							c0.3-0.2-1.2-0.8-1.2-0.8s1.1-0.7,1.1-1.2C181.4,137.5,179.7,135.9,179.7,135.9z"/>
					</g>
					<g>
						<path class="st188" d="M174.2,120.7c0,0-6.2,1.3-6.5,4.1c-0.3,2.7,0.8,10.8-0.5,10.4c-1.3-0.4-2-4.2-4.2-3.7
							c-2.2,0.5-4,4.3-1.3,6.3c2.7,2,3,2.7,0.5,4.1c-2.5,1.4-9.6,0.1-11.4-6.5c-1.8-6.6,3.6-14.8,3.6-14.8s8.1-5.4,10.9-5.4
							C169,115.2,178.2,119.8,174.2,120.7z"/>
					</g>
					<g>
						<path class="st188" d="M157.5,122.2c0,0,4.4-2.4,0.6-5.5c-3.7-3.1-4.5-4-9.5-2.2c-5,1.8-5.8,18.8,1.7,16.4
							c7.5-2.4,7.1-8.5,7.1-8.5L157.5,122.2z"/>
					</g>
				</g>
				<g>
					<polygon class="st140" points="204.5,201.8 214.1,199.9 220.1,199.9 228.7,204.3 232.3,207.5 221.8,208.2 209.2,206 					"/>
				</g>
				<g>
					<path class="st162" d="M160.2,161.5c0,0-1.6-6.6-5.1-6.6c-9.7,0-9.4,13.7-7,21c2.5,7.3,26.3,32.2,31.8,33.2s31.3-2.2,31.3-2.2
						s-2-7.8-7.4-9.2c-5.4-1.4-24.9-1.6-24.9-1.6L160.2,161.5z"/>
				</g>
				<g>
					<path class="st162" d="M159.2,147.8c0,0,3,4.5,5.9,4.8c3,0.2,5.9,1,5.9,1s1.5,5.7-1.5,5.2c-2.9-0.5-12.8-6.9-12.8-6.9
						L159.2,147.8z"/>
				</g>
			</g>
			<g>
				<g>
					<g>
						<path class="st131" d="M151.7,293.4l-3.5-0.7l8.4-42.5c1.8-9.4,8.3-16,15.8-16h23c7.5,0,14,6.6,15.8,16l8.4,42.5l-3.5,0.7
							l-8.4-42.5c-1.5-7.7-6.6-13.1-12.3-13.1h-23c-5.7,0-10.8,5.4-12.3,13.1L151.7,293.4z"/>
					</g>
				</g>
				<g>
					<path class="st55" d="M149.3,197.6c0,0,36.4-2.6,39.5,2.8c3.1,5.4,6.7,30.2,11.6,32.8c4.9,2.6,6.4,2.3,6.4,2.3l-43.3-1.3
						l-5.2-7l19.7-1c0,0,0.9-4.9-10.7-8.5c-11.6-3.6-14.7-3.4-14.7-3.4L149.3,197.6z"/>
				</g>
			</g>
		</g>
		<g>
			<path class="st162" d="M173.5,154c-0.2-1.4-2.9-4.9-2.9-4.9l0.2,4.5c0,0,2.6,4.4,3.3,4.3S173.5,154.5,173.5,154z"/>
		</g>
	</g>
</g>
</svg>
