<?xml version="1.0" encoding="utf-8"?>
<!-- Generator: Adobe Illustrator 24.0.1, SVG Export Plug-In . SVG Version: 6.00 Build 0)  -->
<svg version="1.1" id="Layer_1" xmlns="http://www.w3.org/2000/svg" xmlns:xlink="http://www.w3.org/1999/xlink" x="0px" y="0px"
	 viewBox="0 0 500 500" style="enable-background:new 0 0 500 500;" xml:space="preserve">
<style type="text/css">
	.st0{fill:#3A559F;}
	.st1{fill:#FFFFFF;}
	.st2{fill:#00C200;}
	.st3{fill:#DD4B39;}
	.st4{fill:#15ACE5;}
	.st5{fill:#DC472E;}
	.st6{fill:#C536A4;}
	.st7{fill:#00C500;}
</style>
<circle class="st5" cx="250" cy="250" r="250"/>
<g>
	<path class="st1" d="M287.7,318c0-1.8-0.5-3.7-1.2-5.4c-0.9-2.2-2.8-3.3-5.2-3.6c-2.8-0.3-5.1,0.9-7.1,2.7
		c-0.8,0.7-1.2,1.8-1.2,1.8l0,57.4v1.4c0,0,0.5,0.7,0.6,0.7c1.7,1.8,3.6,3.2,6.1,3.7c4.1,0.8,7-0.9,7.8-4.7c0.2-0.9,0.3-1.9,0.3-2.9
		C287.7,352.2,287.8,335.1,287.7,318L287.7,318z M287.7,318c0-1.8-0.5-3.7-1.2-5.4c-0.9-2.2-2.8-3.3-5.2-3.6
		c-2.8-0.3-5.1,0.9-7.1,2.7c-0.8,0.7-1.2,1.8-1.2,1.8l0,57.4v1.4c0,0,0.5,0.7,0.6,0.7c1.7,1.8,3.6,3.2,6.1,3.7
		c4.1,0.8,7-0.9,7.8-4.7c0.2-0.9,0.3-1.9,0.3-2.9C287.7,352.2,287.8,335.1,287.7,318L287.7,318z M352,231.3c-68-1.5-136-1.5-204,0
		c-23.6,0.5-42.5,19.8-42.5,43.4v106.2c0,23.6,18.9,42.9,42.5,43.4c68,1.5,136,1.5,204,0c23.6-0.5,42.5-19.8,42.5-43.4V274.7
		C394.5,251.1,375.6,231.9,352,231.3L352,231.3z M168,390.6h-19.6V279.8h-20.3v-18.5h60.2v18.5H168V390.6z M238.1,344.6v46h-17.4
		v-10.5c-0.6,0.7-1,1-1.3,1.4c-3.7,4.2-8,7.7-13.4,9.6c-2.6,0.9-5.4,1.2-8.1,0.7c-3.8-0.6-6.3-2.8-7.9-6.3c-1.4-3.2-1.8-6.6-1.8-10
		c0-12.7,0-79.7,0-80.4h17.3c0,0.6,0.1,48.7,0.1,72.2c0,1.3,0,2.6,0.3,3.8c0.6,3.1,3.1,4.5,6.1,3.4c3.5-1.3,6.2-3.7,8.4-6.6
		c0.3-0.4,0.3-1.2,0.3-1.8v-71.2l17.4,0V344.6z M304.2,381.4c-2.3,7-7.4,10.5-14.8,10.5c-6-0.1-10.8-2.4-14.8-6.8
		c-0.4-0.5-1.7-1.8-1.7-1.8v7.3h-17.4V261.2h17.4v42.6c0,0,1-2,1.9-3c2.7-3,6-5.3,10-6.4c6.7-1.7,14.4,0.4,18,8.2
		c2.2,4.6,2.8,9.5,2.8,14.5c0,18.1,0,36.2,0,54.3C305.6,374.8,305.3,378.2,304.2,381.4L304.2,381.4z M368.4,377.8
		c-3,8.8-9.2,13.7-18.4,15.1c-5.7,0.8-11.3,0.7-16.6-1.7c-7.3-3.3-11.4-9.2-13.2-16.8c-0.8-3.5-1.2-7.2-1.3-10.8
		c-0.1-14.2-0.1-28.3,0-42.5c0-7.4,1.8-14.2,6.9-19.9c5.8-6.5,13.2-8.9,21.7-8.4c2.5,0.2,5.1,0.6,7.6,1.4c8.2,2.7,12.6,8.9,14.4,17
		c0.7,3.1,0.9,6.4,1,9.6c0.1,7.6-0.1,24.2-0.1,24.2H337V369c0,4.3,3.5,7.8,7.8,7.8c4.3,0,7.8-3.5,7.8-7.8v-12.3h17.9
		C370.4,356.7,370.7,371.2,368.4,377.8L368.4,377.8z M352.5,316.9c0-4.3-3.5-7.8-7.8-7.8c-4.3,0-7.8,3.5-7.8,7.8v13.4h15.5V316.9z
		 M286.5,312.6c-0.9-2.2-2.8-3.3-5.2-3.6c-2.8-0.3-5.1,0.9-7.1,2.7c-0.8,0.7-1.2,1.8-1.2,1.8l0,57.4v1.4c0,0,0.5,0.7,0.6,0.7
		c1.7,1.8,3.6,3.2,6.1,3.7c4.1,0.8,7-0.9,7.8-4.7c0.2-1,0.3-1.9,0.3-2.9c0-17.1,0.1-34.2,0-51.3
		C287.7,316.2,287.1,314.3,286.5,312.6L286.5,312.6z M286.5,312.6"/>
	<path class="st1" d="M330.9,108.6l0,96.1h-17.8l0-10.3c-2,1.9-3.6,3.8-5.5,5.4c-3.3,2.9-7,5-11.3,5.9c-6.7,1.3-12.3-0.8-14.4-7.7
		c-0.7-2.3-1.1-4.8-1.2-7.2v-82.1h17.7v73.3c0,1,0.1,2,0.3,2.9c0.5,3,2.8,4.4,5.7,3.4c3.5-1.2,6.2-3.7,8.5-6.6
		c0.3-0.4,0.3-1.2,0.3-1.8v-71.2H330.9z M330.9,108.6"/>
	<path class="st1" d="M183.7,125.3c-3.9-16.3-12-50.7-12-50.7h-20.3c0,0,15.6,51.6,22.5,74.6c0.3,0.8,0.4,1.7,0.4,2.6l0,52.8H193
		l0-52.8c0-0.9,0.1-1.8,0.4-2.6c7-23,22.5-74.6,22.5-74.6h-20.3C195.7,74.6,187.6,109,183.7,125.3L183.7,125.3z M183.7,125.3"/>
	<path class="st1" d="M240.3,106.2c-14.1,0-25.5,11.4-25.5,25.5v49.9c0,14.1,11.4,25.5,25.5,25.5c14.1,0,25.5-11.4,25.5-25.5v-49.9
		C265.8,117.6,254.4,106.2,240.3,106.2L240.3,106.2z M247.7,182.5c0,4.1-3.3,7.4-7.4,7.4c-4.1,0-7.4-3.3-7.4-7.4v-51.9
		c0-4.1,3.3-7.4,7.4-7.4c4.1,0,7.4,3.3,7.4,7.4V182.5z M247.7,182.5"/>
</g>
</svg>
